Namdhinggo-ExtraBoldItalic.ufo
<glyph name="exclam" format="2">
  <advance width="558"/>
  <unicode hex="0021"/>
  <outline>
    <contour>
      <point x="366" y="1188" type="line"/>
      <point x="313" y="1172"/>
      <point x="237" y="1148"/>
      <point x="139" y="1096" type="curve"/>
      <point x="211" y="336" type="line"/>
      <point x="246" y="309" type="line"/>
      <point x="269" y="316"/>
      <point x="320" y="343"/>
      <point x="341" y="360" type="curve"/>
      <point x="413" y="1156" type="line"/>
    </contour>
    <contour>
      <point x="410" y="102" type="curve" smooth="yes"/>
      <point x="410" y="183"/>
      <point x="346" y="215"/>
      <point x="291" y="215" type="curve" smooth="yes"/>
      <point x="246" y="215"/>
      <point x="202" y="199"/>
      <point x="173" y="170" type="curve" smooth="yes"/>
      <point x="150" y="147"/>
      <point x="136" y="116"/>
      <point x="136" y="77" type="curve" smooth="yes"/>
      <point x="136" y="-4"/>
      <point x="198" y="-35"/>
      <point x="261" y="-35" type="curve" smooth="yes"/>
      <point x="310" y="-35"/>
      <point x="350" y="-19"/>
      <point x="378" y="13" type="curve" smooth="yes"/>
      <point x="398" y="35"/>
      <point x="410" y="65"/>
    </contour>
  </outline>
</glyph>
<glyph name="eight" format="2">
  <advance width="1044"/>
  <unicode hex="0038"/>
  <anchor x="521" y="-100" name="L"/>
  <anchor x="521" y="1370" name="U"/>
  <outline>
    <contour>
      <point x="966" y="352" type="curve"/>
      <point x="966" y="776"/>
      <point x="366" y="702"/>
      <point x="366" y="950" type="curve" smooth="yes"/>
      <point x="366" y="1040"/>
      <point x="414" y="1116"/>
      <point x="500" y="1116" type="curve" smooth="yes"/>
      <point x="582" y="1116"/>
      <point x="658" y="1077"/>
      <point x="659" y="938" type="curve" smooth="yes"/>
      <point x="660" y="862"/>
      <point x="617" y="784"/>
      <point x="526" y="709" type="curve"/>
      <point x="638" y="666" type="line"/>
      <point x="791" y="754"/>
      <point x="916" y="848"/>
      <point x="916" y="969" type="curve" smooth="yes"/>
      <point x="916" y="1124"/>
      <point x="793" y="1235"/>
      <point x="535" y="1235" type="curve" smooth="yes"/>
      <point x="309" y="1235"/>
      <point x="128" y="1100"/>
      <point x="128" y="915" type="curve" smooth="yes"/>
      <point x="128" y="542"/>
      <point x="699" y="662"/>
      <point x="699" y="309" type="curve" smooth="yes"/>
      <point x="699" y="193"/>
      <point x="639" y="95"/>
      <point x="533" y="95" type="curve" smooth="yes"/>
      <point x="439" y="95"/>
      <point x="345" y="176"/>
      <point x="345" y="315" type="curve" smooth="yes"/>
      <point x="345" y="438"/>
      <point x="400" y="520"/>
      <point x="506" y="614" type="curve"/>
      <point x="394" y="651" type="line"/>
      <point x="211" y="569"/>
      <point x="78" y="434"/>
      <point x="78" y="285" type="curve" smooth="yes"/>
      <point x="78" y="121"/>
      <point x="223" y="-30"/>
      <point x="500" y="-30" type="curve" smooth="yes"/>
      <point x="763" y="-30"/>
      <point x="966" y="145"/>
    </contour>
  </outline>
</glyph>
<glyph name="nine" format="2">
  <advance width="1044"/>
  <unicode hex="0039"/>
  <anchor x="521" y="-100" name="L"/>
  <anchor x="521" y="1370" name="U"/>
  <outline>
    <contour>
      <point x="969" y="731" type="curve"/>
      <point x="969" y="1085"/>
      <point x="791" y="1235"/>
      <point x="539" y="1235" type="curve" smooth="yes"/>
      <point x="270" y="1235"/>
      <point x="84" y="997"/>
      <point x="84" y="795" type="curve" smooth="yes"/>
      <point x="84" y="596"/>
      <point x="209" y="420"/>
      <point x="446" y="420" type="curve" smooth="yes"/>
      <point x="596" y="420"/>
      <point x="728" y="526"/>
      <point x="797" y="666" type="curve"/>
      <point x="784" y="804" type="line"/>
      <point x="733" y="690"/>
      <point x="638" y="572"/>
      <point x="514" y="572" type="curve" smooth="yes"/>
      <point x="450" y="572"/>
      <point x="341" y="634"/>
      <point x="341" y="856" type="curve" smooth="yes"/>
      <point x="341" y="1014"/>
      <point x="406" y="1105"/>
      <point x="514" y="1105" type="curve" smooth="yes"/>
      <point x="606" y="1105"/>
      <point x="702" y="1032"/>
      <point x="702" y="637" type="curve" smooth="yes"/>
      <point x="702" y="362"/>
      <point x="614" y="155"/>
      <point x="180" y="49" type="curve"/>
      <point x="206" y="-43" type="line"/>
      <point x="714" y="16"/>
      <point x="969" y="326"/>
    </contour>
  </outline>
</glyph>
<glyph name="semicolon" format="2">
  <advance width="503"/>
  <unicode hex="003B"/>
  <outline>
    <contour>
      <point x="386" y="54" type="curve" smooth="yes"/>
      <point x="386" y="143"/>
      <point x="358" y="185"/>
      <point x="310" y="208" type="curve"/>
      <point x="283" y="209"/>
      <point x="234" y="196"/>
      <point x="186" y="180" type="curve" smooth="yes"/>
      <point x="130" y="161"/>
      <point x="76" y="136"/>
      <point x="67" y="123" type="curve"/>
      <point x="79" y="56" type="line"/>
      <point x="144" y="60"/>
      <point x="186" y="7"/>
      <point x="186" y="-39" type="curve" smooth="yes"/>
      <point x="186" y="-128"/>
      <point x="148" y="-204"/>
      <point x="92" y="-271" type="curve"/>
      <point x="148" y="-314" type="line"/>
      <point x="216" y="-271"/>
      <point x="279" y="-204"/>
      <point x="323" y="-132" type="curve" smooth="yes"/>
      <point x="362" y="-69"/>
      <point x="386" y="-2"/>
    </contour>
    <contour>
      <point x="370" y="681" type="curve" smooth="yes"/>
      <point x="370" y="760"/>
      <point x="307" y="792"/>
      <point x="250" y="792" type="curve" smooth="yes"/>
      <point x="209" y="792"/>
      <point x="171" y="779"/>
      <point x="143" y="755" type="curve" smooth="yes"/>
      <point x="116" y="732"/>
      <point x="99" y="699"/>
      <point x="99" y="657" type="curve" smooth="yes"/>
      <point x="99" y="578"/>
      <point x="159" y="547"/>
      <point x="220" y="547" type="curve" smooth="yes"/>
      <point x="262" y="547"/>
      <point x="300" y="559"/>
      <point x="327" y="583" type="curve" smooth="yes"/>
      <point x="354" y="605"/>
      <point x="370" y="638"/>
    </contour>
  </outline>
</glyph>
<glyph name="A" format="2">
  <advance width="1250"/>
  <unicode hex="0041"/>
  <anchor x="615" y="0" name="H"/>
  <anchor x="615" y="-97" name="L"/>
  <anchor x="986" y="0" name="O"/>
  <anchor x="615" y="1323" name="U"/>
  <outline>
    <contour>
      <point x="450" y="411" type="line"/>
      <point x="825" y="411" type="line"/>
      <point x="873" y="146" type="line" smooth="yes"/>
      <point x="879" y="103"/>
      <point x="845" y="86"/>
      <point x="746" y="80" type="curve"/>
      <point x="732" y="0" type="line"/>
      <point x="1230" y="0" type="line"/>
      <point x="1244" y="80" type="line"/>
      <point x="1164" y="90"/>
      <point x="1146" y="110"/>
      <point x="1140" y="146" type="curve" smooth="yes"/>
      <point x="937" y="1272" type="line"/>
      <point x="858" y="1252"/>
      <point x="752" y="1215"/>
      <point x="672" y="1156" type="curve"/>
      <point x="167" y="146" type="line" smooth="yes"/>
      <point x="148" y="107"/>
      <point x="103" y="96"/>
      <point x="14" y="80" type="curve"/>
      <point x="0" y="0" type="line"/>
      <point x="424" y="0" type="line"/>
      <point x="438" y="80" type="line"/>
      <point x="336" y="92"/>
      <point x="298" y="106"/>
      <point x="317" y="146" type="curve" smooth="yes"/>
    </contour>
    <contour>
      <point x="805" y="536" type="line"/>
      <point x="514" y="536" type="line"/>
      <point x="727" y="969" type="line"/>
    </contour>
  </outline>
</glyph>
<glyph name="H" format="2">
  <advance width="1355"/>
  <unicode hex="0048"/>
  <anchor x="306" y="0" name="H"/>
  <anchor x="668" y="-97" name="L"/>
  <anchor x="668" y="1323" name="U"/>
  <outline>
    <contour>
      <point x="774" y="0" type="line"/>
      <point x="1299" y="0" type="line"/>
      <point x="1299" y="80" type="line"/>
      <point x="1207" y="98"/>
      <point x="1170" y="124"/>
      <point x="1170" y="139" type="curve" smooth="yes"/>
      <point x="1170" y="1077" type="line" smooth="yes"/>
      <point x="1170" y="1095"/>
      <point x="1213" y="1119"/>
      <point x="1299" y="1137" type="curve"/>
      <point x="1299" y="1217" type="line"/>
      <point x="774" y="1217" type="line"/>
      <point x="774" y="1137" type="line"/>
      <point x="865" y="1119"/>
      <point x="902" y="1093"/>
      <point x="902" y="1077" type="curve" smooth="yes"/>
      <point x="902" y="139" type="line" smooth="yes"/>
      <point x="902" y="122"/>
      <point x="860" y="98"/>
      <point x="774" y="80" type="curve"/>
    </contour>
    <contour>
      <point x="408" y="575" type="line"/>
      <point x="922" y="575" type="line"/>
      <point x="922" y="700" type="line"/>
      <point x="408" y="700" type="line"/>
    </contour>
    <contour>
      <point x="38" y="0" type="line"/>
      <point x="563" y="0" type="line"/>
      <point x="563" y="80" type="line"/>
      <point x="471" y="98"/>
      <point x="435" y="124"/>
      <point x="435" y="139" type="curve" smooth="yes"/>
      <point x="435" y="1077" type="line" smooth="yes"/>
      <point x="435" y="1095"/>
      <point x="478" y="1119"/>
      <point x="563" y="1137" type="curve"/>
      <point x="563" y="1217" type="line"/>
      <point x="38" y="1217" type="line"/>
      <point x="38" y="1137" type="line"/>
      <point x="130" y="1119"/>
      <point x="167" y="1093"/>
      <point x="167" y="1077" type="curve" smooth="yes"/>
      <point x="167" y="139" type="line" smooth="yes"/>
      <point x="167" y="122"/>
      <point x="124" y="98"/>
      <point x="38" y="80" type="curve"/>
    </contour>
  </outline>
</glyph>
<glyph name="I" format="2">
  <advance width="658"/>
  <unicode hex="0049"/>
  <anchor x="320" y="0" name="H"/>
  <anchor x="320" y="-97" name="L"/>
  <anchor x="378" y="0" name="O"/>
  <anchor x="581" y="1063" name="R"/>
  <anchor x="320" y="1323" name="U"/>
  <outline>
    <contour>
      <point x="57" y="0" type="line"/>
      <point x="583" y="0" type="line"/>
      <point x="583" y="80" type="line"/>
      <point x="491" y="98"/>
      <point x="454" y="124"/>
      <point x="454" y="139" type="curve" smooth="yes"/>
      <point x="454" y="1077" type="line" smooth="yes"/>
      <point x="454" y="1095"/>
      <point x="497" y="1119"/>
      <point x="583" y="1137" type="curve"/>
      <point x="583" y="1217" type="line"/>
      <point x="57" y="1217" type="line"/>
      <point x="57" y="1137" type="line"/>
      <point x="149" y="1119"/>
      <point x="186" y="1093"/>
      <point x="186" y="1077" type="curve" smooth="yes"/>
      <point x="186" y="139" type="line" smooth="yes"/>
      <point x="186" y="122"/>
      <point x="143" y="98"/>
      <point x="57" y="80" type="curve"/>
    </contour>
  </outline>
</glyph>
<glyph name="bracketleft" format="2">
  <advance width="667"/>
  <unicode hex="005B"/>
  <outline>
    <contour>
      <point x="572" y="-133" type="line"/>
      <point x="309" y="-133" type="line"/>
      <point x="309" y="1229" type="line"/>
      <point x="568" y="1229" type="line"/>
      <point x="589" y="1262"/>
      <point x="616" y="1327"/>
      <point x="631" y="1380" type="curve"/>
      <point x="592" y="1414" type="line"/>
      <point x="124" y="1414" type="line"/>
      <point x="124" y="-294" type="line"/>
      <point x="558" y="-294" type="line"/>
      <point x="569" y="-268"/>
      <point x="607" y="-193"/>
      <point x="612" y="-168" type="curve"/>
    </contour>
  </outline>
</glyph>
<glyph name="asciicircum" format="2">
  <advance width="944"/>
  <unicode hex="005E"/>
  <anchor x="472" y="1599" name="U"/>
  <outline>
    <contour>
      <point x="850" y="601" type="curve"/>
      <point x="520" y="1466" type="line"/>
      <point x="485" y="1449"/>
      <point x="426" y="1412"/>
      <point x="395" y="1383" type="curve"/>
      <point x="94" y="560" type="line"/>
      <point x="115" y="534" type="line"/>
      <point x="141" y="547"/>
      <point x="190" y="575"/>
      <point x="216" y="601" type="curve"/>
      <point x="451" y="1244" type="line"/>
      <point x="716" y="560" type="line"/>
      <point x="751" y="534" type="line"/>
      <point x="793" y="554"/>
      <point x="819" y="571"/>
    </contour>
  </outline>
</glyph>
<glyph name="grave" format="2">
  <advance width="611"/>
  <unicode hex="0060"/>
  <anchor x="306" y="1334" name="U"/>
  <outline>
    <contour>
      <point x="427" y="1029" type="curve"/>
      <point x="231" y="1437" type="line"/>
      <point x="200" y="1435"/>
      <point x="24" y="1402"/>
      <point x="0" y="1395" type="curve"/>
      <point x="-30" y="1338" type="line"/>
      <point x="337" y="981" type="line"/>
      <point x="359" y="988"/>
      <point x="411" y="1014"/>
    </contour>
  </outline>
</glyph>
<glyph name="g" format="2">
  <advance width="1011"/>
  <unicode hex="0067"/>
  <anchor x="499" y="-445" name="H"/>
  <anchor x="499" y="-568" name="L"/>
  <anchor x="1011" y="851" name="R"/>
  <anchor x="499" y="993" name="U"/>
  <outline>
    <contour>
      <point x="993" y="-95" type="curve" smooth="yes"/>
      <point x="993" y="42"/>
      <point x="912" y="102"/>
      <point x="611" y="142" type="curve" smooth="yes"/>
      <point x="416" y="167"/>
      <point x="409" y="184"/>
      <point x="409" y="204" type="curve" smooth="yes"/>
      <point x="409" y="215"/>
      <point x="416" y="255"/>
      <point x="519" y="331" type="curve"/>
      <point x="339" y="315" type="line"/>
      <point x="194" y="220"/>
      <point x="133" y="139"/>
      <point x="133" y="107" type="curve" smooth="yes"/>
      <point x="133" y="46"/>
      <point x="287" y="-18"/>
      <point x="532" y="-51" type="curve" smooth="yes"/>
      <point x="721" y="-77"/>
      <point x="750" y="-126"/>
      <point x="750" y="-167" type="curve" smooth="yes"/>
      <point x="750" y="-241"/>
      <point x="695" y="-317"/>
      <point x="555" y="-317" type="curve" smooth="yes"/>
      <point x="384" y="-317"/>
      <point x="262" y="-248"/>
      <point x="262" y="-170" type="curve" smooth="yes"/>
      <point x="262" y="-128"/>
      <point x="271" y="-78"/>
      <point x="435" y="28" type="curve"/>
      <point x="429" y="54"/>
      <point x="313" y="58"/>
      <point x="313" y="58" type="curve"/>
      <point x="68" y="-69"/>
      <point x="9" y="-138"/>
      <point x="9" y="-207" type="curve" smooth="yes"/>
      <point x="9" y="-391"/>
      <point x="282" y="-464"/>
      <point x="484" y="-464" type="curve" smooth="yes"/>
      <point x="733" y="-464"/>
      <point x="993" y="-264"/>
    </contour>
    <contour>
      <point x="1011" y="870" type="curve"/>
      <point x="983" y="908" type="line"/>
      <point x="925" y="886"/>
      <point x="797" y="843"/>
      <point x="679" y="833" type="curve"/>
      <point x="714" y="742" type="line"/>
      <point x="820" y="738"/>
      <point x="890" y="745"/>
      <point x="958" y="757" type="curve"/>
      <point x="977" y="788"/>
      <point x="1005" y="845"/>
    </contour>
    <contour>
      <point x="862" y="606" type="curve" smooth="yes"/>
      <point x="862" y="770"/>
      <point x="712" y="908"/>
      <point x="501" y="908" type="curve" smooth="yes"/>
      <point x="273" y="908"/>
      <point x="75" y="755"/>
      <point x="75" y="569" type="curve" smooth="yes"/>
      <point x="75" y="394"/>
      <point x="245" y="279"/>
      <point x="468" y="279" type="curve" smooth="yes"/>
      <point x="683" y="279"/>
      <point x="862" y="413"/>
    </contour>
    <contour>
      <point x="618" y="568" type="curve" smooth="yes"/>
      <point x="618" y="451"/>
      <point x="564" y="397"/>
      <point x="491" y="397" type="curve" smooth="yes"/>
      <point x="371" y="397"/>
      <point x="319" y="499"/>
      <point x="319" y="623" type="curve" smooth="yes"/>
      <point x="319" y="739"/>
      <point x="384" y="795"/>
      <point x="446" y="795" type="curve" smooth="yes"/>
      <point x="558" y="795"/>
      <point x="618" y="692"/>
    </contour>
  </outline>
</glyph>
<glyph name="h" format="2">
  <advance width="1133"/>
  <unicode hex="0068"/>
  <anchor x="300" y="0" name="H"/>
  <anchor x="578" y="-95" name="L"/>
  <anchor x="578" y="1533" name="U"/>
  <outline>
    <contour>
      <point x="618" y="0" type="line"/>
      <point x="1115" y="0" type="line"/>
      <point x="1115" y="79" type="line"/>
      <point x="1017" y="104"/>
      <point x="993" y="119"/>
      <point x="993" y="136" type="curve" smooth="yes"/>
      <point x="993" y="654" type="line" smooth="yes"/>
      <point x="993" y="843"/>
      <point x="894" y="908"/>
      <point x="786" y="908" type="curve" smooth="yes"/>
      <point x="689" y="908"/>
      <point x="572" y="874"/>
      <point x="417" y="770" type="curve"/>
      <point x="417" y="1425" type="line"/>
      <point x="373" y="1466" type="line"/>
      <point x="274" y="1429"/>
      <point x="195" y="1410"/>
      <point x="42" y="1391" type="curve"/>
      <point x="42" y="1315" type="line"/>
      <point x="163" y="1301"/>
      <point x="164" y="1295"/>
      <point x="164" y="1190" type="curve" smooth="yes"/>
      <point x="164" y="136" type="line" smooth="yes"/>
      <point x="164" y="115"/>
      <point x="125" y="100"/>
      <point x="42" y="79" type="curve"/>
      <point x="42" y="0" type="line"/>
      <point x="539" y="0" type="line"/>
      <point x="539" y="79" type="line"/>
      <point x="458" y="96"/>
      <point x="417" y="117"/>
      <point x="417" y="136" type="curve" smooth="yes"/>
      <point x="417" y="633" type="line"/>
      <point x="512" y="686"/>
      <point x="572" y="719"/>
      <point x="639" y="719" type="curve" smooth="yes"/>
      <point x="712" y="719"/>
      <point x="740" y="676"/>
      <point x="740" y="523" type="curve" smooth="yes"/>
      <point x="740" y="136" type="line" smooth="yes"/>
      <point x="740" y="119"/>
      <point x="708" y="102"/>
      <point x="618" y="79" type="curve"/>
    </contour>
  </outline>
</glyph>
<glyph name="r" format="2">
  <advance width="881"/>
  <unicode hex="0072"/>
  <anchor x="284" y="0" name="H"/>
  <anchor x="284" y="-95" name="L"/>
  <anchor x="487" y="993" name="U"/>
  <outline>
    <contour>
      <point x="853" y="864" type="curve" smooth="yes"/>
      <point x="808" y="890"/>
      <point x="750" y="908"/>
      <point x="700" y="908" type="curve" smooth="yes"/>
      <point x="592" y="908"/>
      <point x="483" y="838"/>
      <point x="415" y="755" type="curve"/>
      <point x="403" y="866" type="line"/>
      <point x="361" y="908" type="line"/>
      <point x="243" y="873"/>
      <point x="198" y="863"/>
      <point x="42" y="842" type="curve"/>
      <point x="42" y="766" type="line"/>
      <point x="112" y="762"/>
      <point x="126" y="758"/>
      <point x="142" y="741" type="curve" smooth="yes"/>
      <point x="154" y="729"/>
      <point x="164" y="704"/>
      <point x="164" y="621" type="curve" smooth="yes"/>
      <point x="164" y="136" type="line" smooth="yes"/>
      <point x="164" y="115"/>
      <point x="125" y="97"/>
      <point x="42" y="79" type="curve"/>
      <point x="42" y="0" type="line"/>
      <point x="585" y="0" type="line"/>
      <point x="585" y="79" type="line"/>
      <point x="468" y="96"/>
      <point x="417" y="117"/>
      <point x="417" y="136" type="curve" smooth="yes"/>
      <point x="417" y="564" type="line"/>
      <point x="496" y="712"/>
      <point x="557" y="719"/>
      <point x="602" y="719" type="curve" smooth="yes"/>
      <point x="668" y="719"/>
      <point x="701" y="619"/>
      <point x="706" y="517" type="curve"/>
      <point x="784" y="517" type="line"/>
      <point x="815" y="585"/>
      <point x="876" y="850"/>
    </contour>
  </outline>
</glyph>
<glyph name="cent" format="2">
  <advance width="994"/>
  <unicode hex="00A2"/>
  <outline>
    <contour>
      <point x="595" y="11" type="curve"/>
      <point x="595" y="1147" type="line"/>
      <point x="561" y="1178" type="line"/>
      <point x="523" y="1168"/>
      <point x="508" y="1151"/>
      <point x="473" y="1130" type="curve"/>
      <point x="473" y="-6" type="line"/>
      <point x="506" y="-39" type="line"/>
      <point x="536" y="-29"/>
      <point x="573" y="-9"/>
    </contour>
    <contour>
      <point x="913" y="341" type="curve"/>
      <point x="848" y="417" type="line"/>
      <point x="725" y="294"/>
      <point x="658" y="267"/>
      <point x="573" y="267" type="curve" smooth="yes"/>
      <point x="423" y="267"/>
      <point x="305" y="366"/>
      <point x="305" y="583" type="curve" smooth="yes"/>
      <point x="305" y="817"/>
      <point x="429" y="890"/>
      <point x="538" y="890" type="curve" smooth="yes"/>
      <point x="667" y="890"/>
      <point x="734" y="790"/>
      <point x="757" y="745" type="curve"/>
      <point x="827" y="727" type="line"/>
      <point x="850" y="759"/>
      <point x="915" y="917"/>
      <point x="909" y="945" type="curve"/>
      <point x="867" y="992"/>
      <point x="705" y="1021"/>
      <point x="622" y="1021" type="curve" smooth="yes"/>
      <point x="296" y="1021"/>
      <point x="79" y="823"/>
      <point x="79" y="554" type="curve" smooth="yes"/>
      <point x="79" y="273"/>
      <point x="325" y="122"/>
      <point x="505" y="122" type="curve" smooth="yes"/>
      <point x="645" y="122"/>
      <point x="750" y="158"/>
    </contour>
  </outline>
</glyph>
<glyph name="yen" format="2">
  <advance width="994"/>
  <unicode hex="00A5"/>
  <outline>
    <contour>
      <point x="212" y="0" type="line"/>
      <point x="765" y="0" type="line"/>
      <point x="765" y="79" type="line"/>
      <point x="647" y="102"/>
      <point x="618" y="131"/>
      <point x="618" y="147" type="curve" smooth="yes"/>
      <point x="618" y="352" type="line"/>
      <point x="853" y="352" type="line"/>
      <point x="890" y="453" type="line"/>
      <point x="867" y="475" type="line"/>
      <point x="618" y="475" type="line"/>
      <point x="618" y="482" type="line"/>
      <point x="885" y="998" type="line"/>
      <point x="902" y="1030"/>
      <point x="936" y="1044"/>
      <point x="1021" y="1060" type="curve"/>
      <point x="1021" y="1139" type="line"/>
      <point x="622" y="1139" type="line"/>
      <point x="622" y="1060" type="line"/>
      <point x="719" y="1048"/>
      <point x="745" y="1031"/>
      <point x="726" y="998" type="curve"/>
      <point x="553" y="656" type="line"/>
      <point x="466" y="837"/>
      <point x="383" y="977"/>
      <point x="291" y="1102" type="curve" smooth="yes"/>
      <point x="270" y="1131"/>
      <point x="227" y="1148"/>
      <point x="190" y="1148" type="curve" smooth="yes"/>
      <point x="139" y="1148"/>
      <point x="-7" y="1130"/>
      <point x="-81" y="1119" type="curve"/>
      <point x="-77" y="1041" type="line"/>
      <point x="27" y="1041"/>
      <point x="46" y="1026"/>
      <point x="67" y="998" type="curve" smooth="yes"/>
      <point x="155" y="880"/>
      <point x="269" y="682"/>
      <point x="356" y="484" type="curve"/>
      <point x="356" y="475" type="line"/>
      <point x="96" y="475" type="line"/>
      <point x="88" y="455"/>
      <point x="67" y="394"/>
      <point x="61" y="375" type="curve"/>
      <point x="82" y="352" type="line"/>
      <point x="356" y="352" type="line"/>
      <point x="356" y="147" type="line" smooth="yes"/>
      <point x="356" y="129"/>
      <point x="325" y="102"/>
      <point x="212" y="79" type="curve"/>
    </contour>
  </outline>
</glyph>
<glyph name="dieresis" format="2">
  <advance width="750"/>
  <unicode hex="00A8"/>
  <anchor x="377" y="1334" name="U"/>
  <outline>
    <contour>
      <point x="316" y="1201" type="curve" smooth="yes"/>
      <point x="316" y="1284"/>
      <point x="269" y="1324"/>
      <point x="194" y="1324" type="curve" smooth="yes"/>
      <point x="112" y="1324"/>
      <point x="35" y="1245"/>
      <point x="35" y="1145" type="curve" smooth="yes"/>
      <point x="35" y="1064"/>
      <point x="79" y="1022"/>
      <point x="156" y="1022" type="curve" smooth="yes"/>
      <point x="243" y="1022"/>
      <point x="316" y="1102"/>
    </contour>
    <contour>
      <point x="719" y="1201" type="curve" smooth="yes"/>
      <point x="719" y="1284"/>
      <point x="672" y="1324"/>
      <point x="597" y="1324" type="curve" smooth="yes"/>
      <point x="514" y="1324"/>
      <point x="438" y="1245"/>
      <point x="438" y="1145" type="curve" smooth="yes"/>
      <point x="438" y="1064"/>
      <point x="482" y="1022"/>
      <point x="559" y="1022" type="curve" smooth="yes"/>
      <point x="646" y="1022"/>
      <point x="719" y="1102"/>
    </contour>
  </outline>
</glyph>
<glyph name="ordfeminine" format="2">
  <advance width="540"/>
  <unicode hex="00AA"/>
  <outline>
    <contour>
      <point x="527" y="767" type="curve"/>
      <point x="513" y="810" type="line"/>
      <point x="479" y="796"/>
      <point x="469" y="793"/>
      <point x="463" y="797" type="curve"/>
      <point x="455" y="805"/>
      <point x="450" y="818"/>
      <point x="450" y="853" type="curve" smooth="yes"/>
      <point x="450" y="1039" type="line" smooth="yes"/>
      <point x="450" y="1169"/>
      <point x="401" y="1202"/>
      <point x="311" y="1202" type="curve" smooth="yes"/>
      <point x="199" y="1202"/>
      <point x="84" y="1147"/>
      <point x="45" y="1058" type="curve"/>
      <point x="57" y="1030" type="line"/>
      <point x="74" y="1026"/>
      <point x="204" y="1061"/>
      <point x="201" y="1073" type="curve" smooth="yes"/>
      <point x="192" y="1116"/>
      <point x="220" y="1132"/>
      <point x="257" y="1132" type="curve" smooth="yes"/>
      <point x="315" y="1132"/>
      <point x="316" y="1091"/>
      <point x="316" y="1013" type="curve" smooth="yes"/>
      <point x="316" y="857" type="line" smooth="yes"/>
      <point x="316" y="718"/>
      <point x="335" y="692"/>
      <point x="357" y="692" type="curve" smooth="yes"/>
      <point x="405" y="692"/>
      <point x="469" y="728"/>
    </contour>
    <contour>
      <point x="266" y="940" type="curve" smooth="yes"/>
      <point x="375" y="963" type="line"/>
      <point x="375" y="1015" type="line"/>
      <point x="214" y="983" type="line" smooth="yes"/>
      <point x="85" y="957"/>
      <point x="37" y="877"/>
      <point x="37" y="799" type="curve" smooth="yes"/>
      <point x="37" y="720"/>
      <point x="102" y="692"/>
      <point x="152" y="692" type="curve" smooth="yes"/>
      <point x="198" y="692"/>
      <point x="260" y="709"/>
      <point x="324" y="777" type="curve"/>
      <point x="320" y="839" type="line"/>
      <point x="269" y="793"/>
      <point x="245" y="786"/>
      <point x="221" y="786" type="curve" smooth="yes"/>
      <point x="203" y="786"/>
      <point x="178" y="798"/>
      <point x="178" y="841" type="curve" smooth="yes"/>
      <point x="178" y="895"/>
      <point x="218" y="930"/>
    </contour>
    <contour>
      <point x="38" y="554" type="line"/>
      <point x="501" y="554" type="line"/>
      <point x="501" y="642" type="line"/>
      <point x="38" y="642" type="line"/>
    </contour>
  </outline>
</glyph>
<glyph name="guillemotleft" format="2">
  <advance width="934"/>
  <unicode hex="00AB"/>
  <outline>
    <contour>
      <point x="775" y="-3" type="line"/>
      <point x="830" y="41" type="line"/>
      <point x="664" y="411" type="line"/>
      <point x="829" y="777" type="line"/>
      <point x="775" y="821" type="line"/>
      <point x="419" y="443" type="line"/>
      <point x="417" y="431"/>
      <point x="416" y="410"/>
      <point x="418" y="378" type="curve"/>
    </contour>
    <contour>
      <point x="410" y="-3" type="line"/>
      <point x="465" y="41" type="line"/>
      <point x="298" y="411" type="line"/>
      <point x="464" y="777" type="line"/>
      <point x="410" y="821" type="line"/>
      <point x="54" y="443" type="line"/>
      <point x="53" y="431"/>
      <point x="53" y="410"/>
      <point x="52" y="378" type="curve"/>
    </contour>
  </outline>
</glyph>
<glyph name="logicalnot" format="2">
  <advance width="994"/>
  <unicode hex="00AC"/>
  <outline>
    <contour>
      <point x="910" y="220" type="curve"/>
      <point x="910" y="573" type="line"/>
      <point x="873" y="604" type="line"/>
      <point x="873" y="604"/>
      <point x="860" y="604"/>
      <point x="123" y="604" type="curve"/>
      <point x="112" y="579"/>
      <point x="82" y="517"/>
      <point x="75" y="492" type="curve"/>
      <point x="108" y="460" type="line"/>
      <point x="759" y="460" type="line"/>
      <point x="759" y="186" type="line"/>
      <point x="792" y="153" type="line"/>
      <point x="823" y="164"/>
      <point x="885" y="201"/>
    </contour>
  </outline>
</glyph>
<glyph name="threesuperior" format="2">
  <advance width="695"/>
  <unicode hex="00B3"/>
  <anchor x="348" y="530" name="L"/>
  <anchor x="348" y="1364" name="U"/>
  <outline>
    <contour>
      <point x="620" y="803" type="curve" smooth="yes"/>
      <point x="620" y="895"/>
      <point x="552" y="973"/>
      <point x="442" y="983" type="curve"/>
      <point x="525" y="1005"/>
      <point x="583" y="1074"/>
      <point x="583" y="1130" type="curve" smooth="yes"/>
      <point x="583" y="1207"/>
      <point x="519" y="1288"/>
      <point x="350" y="1288" type="curve" smooth="yes"/>
      <point x="180" y="1288"/>
      <point x="69" y="1186"/>
      <point x="69" y="1123" type="curve"/>
      <point x="93" y="1082" type="line"/>
      <point x="145" y="1087"/>
      <point x="217" y="1108"/>
      <point x="256" y="1128" type="curve"/>
      <point x="237" y="1180"/>
      <point x="275" y="1219"/>
      <point x="312" y="1219" type="curve" smooth="yes"/>
      <point x="373" y="1219"/>
      <point x="393" y="1172"/>
      <point x="393" y="1120" type="curve" smooth="yes"/>
      <point x="393" y="1074"/>
      <point x="371" y="1009"/>
      <point x="225" y="976" type="curve"/>
      <point x="237" y="920" type="line"/>
      <point x="264" y="923"/>
      <point x="271" y="923"/>
      <point x="295" y="923" type="curve" smooth="yes"/>
      <point x="347" y="923"/>
      <point x="429" y="892"/>
      <point x="429" y="790" type="curve" smooth="yes"/>
      <point x="429" y="693"/>
      <point x="365" y="655"/>
      <point x="290" y="655" type="curve" smooth="yes"/>
      <point x="225" y="655"/>
      <point x="159" y="675"/>
      <point x="80" y="727" type="curve"/>
      <point x="52" y="665" type="line"/>
      <point x="130" y="600"/>
      <point x="244" y="569"/>
      <point x="312" y="569" type="curve" smooth="yes"/>
      <point x="492" y="569"/>
      <point x="620" y="675"/>
    </contour>
  </outline>
</glyph>
<glyph name="acute" format="2">
  <advance width="611"/>
  <unicode hex="00B4"/>
  <anchor x="306" y="1334" name="U"/>
  <outline>
    <contour>
      <point x="275" y="981" type="curve"/>
      <point x="646" y="1340" type="line"/>
      <point x="615" y="1396" type="line"/>
      <point x="587" y="1405"/>
      <point x="405" y="1435"/>
      <point x="376" y="1437" type="curve"/>
      <point x="185" y="1026" type="line"/>
      <point x="199" y="1015"/>
      <point x="253" y="985"/>
    </contour>
  </outline>
</glyph>
<glyph name="cedilla" format="2">
  <advance width="439"/>
  <unicode hex="00B8"/>
  <anchor x="228" y="-568" name="L"/>
  <outline>
    <contour>
      <point x="439" y="-217" type="curve" smooth="yes"/>
      <point x="439" y="-146"/>
      <point x="386" y="-98"/>
      <point x="280" y="-79" type="curve"/>
      <point x="329" y="47" type="line"/>
      <point x="200" y="49" type="line"/>
      <point x="133" y="-162"/>
      <point x="110" y="-188"/>
      <point x="110" y="-188" type="curve"/>
      <point x="157" y="-192"/>
      <point x="188" y="-209"/>
      <point x="188" y="-252" type="curve" smooth="yes"/>
      <point x="188" y="-292"/>
      <point x="147" y="-331"/>
      <point x="46" y="-345" type="curve"/>
      <point x="85" y="-420" type="line"/>
      <point x="277" y="-402"/>
      <point x="439" y="-310"/>
    </contour>
  </outline>
</glyph>
<glyph name="onesuperior" format="2">
  <advance width="695"/>
  <unicode hex="00B9"/>
  <anchor x="348" y="530" name="L"/>
  <anchor x="348" y="1364" name="U"/>
  <outline>
    <contour>
      <point x="98" y="587" type="line"/>
      <point x="617" y="587" type="line"/>
      <point x="617" y="639" type="line"/>
      <point x="484" y="654"/>
      <point x="453" y="675"/>
      <point x="453" y="691" type="curve" smooth="yes"/>
      <point x="453" y="1268" type="line"/>
      <point x="422" y="1293" type="line"/>
      <point x="357" y="1270"/>
      <point x="154" y="1209"/>
      <point x="78" y="1197" type="curve"/>
      <point x="98" y="1145" type="line"/>
      <point x="214" y="1166"/>
      <point x="253" y="1163"/>
      <point x="263" y="1153" type="curve" smooth="yes"/>
      <point x="275" y="1143"/>
      <point x="275" y="1128"/>
      <point x="275" y="1097" type="curve" smooth="yes"/>
      <point x="275" y="691" type="line" smooth="yes"/>
      <point x="275" y="674"/>
      <point x="235" y="654"/>
      <point x="98" y="639" type="curve"/>
    </contour>
  </outline>
</glyph>
<glyph name="ordmasculine" format="2">
  <advance width="537"/>
  <unicode hex="00BA"/>
  <outline>
    <contour>
      <point x="510" y="955" type="curve" smooth="yes"/>
      <point x="510" y="1092"/>
      <point x="418" y="1203"/>
      <point x="278" y="1203" type="curve" smooth="yes"/>
      <point x="127" y="1203"/>
      <point x="28" y="1066"/>
      <point x="28" y="935" type="curve" smooth="yes"/>
      <point x="28" y="797"/>
      <point x="116" y="692"/>
      <point x="260" y="692" type="curve" smooth="yes"/>
      <point x="395" y="692"/>
      <point x="510" y="825"/>
    </contour>
    <contour>
      <point x="37" y="554" type="line"/>
      <point x="500" y="554" type="line"/>
      <point x="500" y="642" type="line"/>
      <point x="37" y="642" type="line"/>
    </contour>
    <contour>
      <point x="369" y="930" type="curve" smooth="yes"/>
      <point x="369" y="823"/>
      <point x="350" y="757"/>
      <point x="274" y="757" type="curve" smooth="yes"/>
      <point x="216" y="757"/>
      <point x="169" y="852"/>
      <point x="169" y="959" type="curve" smooth="yes"/>
      <point x="169" y="1066"/>
      <point x="190" y="1138"/>
      <point x="264" y="1138" type="curve" smooth="yes"/>
      <point x="337" y="1138"/>
      <point x="369" y="1036"/>
    </contour>
  </outline>
</glyph>
<glyph name="onehalf" format="2">
  <advance width="1218"/>
  <unicode hex="00BD"/>
  <outline>
    <contour>
      <point x="287" y="3" type="curve"/>
      <point x="1156" y="1142" type="line"/>
      <point x="1133" y="1168" type="line"/>
      <point x="1106" y="1163"/>
      <point x="1027" y="1148"/>
      <point x="1003" y="1138" type="curve"/>
      <point x="129" y="0" type="line"/>
      <point x="153" y="-28" type="line"/>
      <point x="186" y="-20"/>
      <point x="258" y="-11"/>
    </contour>
    <contour>
      <point x="80" y="603" type="line"/>
      <point x="502" y="603" type="line"/>
      <point x="502" y="645" type="line"/>
      <point x="394" y="657"/>
      <point x="368" y="674"/>
      <point x="368" y="686" type="curve" smooth="yes"/>
      <point x="368" y="1147" type="line"/>
      <point x="344" y="1168" type="line"/>
      <point x="290" y="1149"/>
      <point x="125" y="1101"/>
      <point x="64" y="1091" type="curve"/>
      <point x="80" y="1049" type="line"/>
      <point x="174" y="1066"/>
      <point x="206" y="1063"/>
      <point x="215" y="1056" type="curve" smooth="yes"/>
      <point x="223" y="1047"/>
      <point x="224" y="1035"/>
      <point x="224" y="1011" type="curve" smooth="yes"/>
      <point x="224" y="686" type="line" smooth="yes"/>
      <point x="224" y="673"/>
      <point x="192" y="657"/>
      <point x="80" y="645" type="curve"/>
    </contour>
    <contour>
      <point x="1150" y="0" type="line"/>
      <point x="1158" y="171" type="line"/>
      <point x="1110" y="182" type="line"/>
      <point x="1110" y="182"/>
      <point x="1104" y="87"/>
      <point x="1055" y="87" type="curve" smooth="yes"/>
      <point x="845" y="87" type="line"/>
      <point x="1077" y="300"/>
      <point x="1150" y="368"/>
      <point x="1150" y="450" type="curve" smooth="yes"/>
      <point x="1150" y="522"/>
      <point x="1078" y="561"/>
      <point x="959" y="561" type="curve" smooth="yes"/>
      <point x="819" y="561"/>
      <point x="704" y="482"/>
      <point x="704" y="420" type="curve"/>
      <point x="723" y="384" type="line"/>
      <point x="756" y="386"/>
      <point x="832" y="404"/>
      <point x="856" y="415" type="curve"/>
      <point x="844" y="461"/>
      <point x="866" y="504"/>
      <point x="924" y="504" type="curve" smooth="yes"/>
      <point x="977" y="504"/>
      <point x="999" y="469"/>
      <point x="999" y="420" type="curve" smooth="yes"/>
      <point x="999" y="356"/>
      <point x="938" y="283"/>
      <point x="689" y="34" type="curve"/>
      <point x="705" y="0" type="line"/>
    </contour>
  </outline>
</glyph>
<glyph name="questiondown" format="2">
  <advance width="929"/>
  <unicode hex="00BF"/>
  <outline>
    <contour>
      <point x="637" y="787" type="curve" smooth="yes"/>
      <point x="637" y="877"/>
      <point x="566" y="913"/>
      <point x="505" y="913" type="curve" smooth="yes"/>
      <point x="413" y="913"/>
      <point x="332" y="855"/>
      <point x="332" y="760" type="curve" smooth="yes"/>
      <point x="332" y="670"/>
      <point x="401" y="635"/>
      <point x="471" y="635" type="curve" smooth="yes"/>
      <point x="566" y="635"/>
      <point x="637" y="694"/>
    </contour>
    <contour>
      <point x="426" y="486" type="curve"/>
      <point x="420" y="405" type="line" smooth="yes"/>
      <point x="401" y="151"/>
      <point x="72" y="52"/>
      <point x="72" y="-233" type="curve" smooth="yes"/>
      <point x="72" y="-407"/>
      <point x="178" y="-529"/>
      <point x="430" y="-529" type="curve" smooth="yes"/>
      <point x="625" y="-529"/>
      <point x="857" y="-406"/>
      <point x="857" y="-199" type="curve" smooth="yes"/>
      <point x="857" y="-189"/>
      <point x="857" y="-174"/>
      <point x="855" y="-164" type="curve"/>
      <point x="828" y="-133" type="line"/>
      <point x="772" y="-138"/>
      <point x="634" y="-172"/>
      <point x="591" y="-200" type="curve"/>
      <point x="599" y="-218"/>
      <point x="604" y="-238"/>
      <point x="604" y="-257" type="curve" smooth="yes"/>
      <point x="604" y="-331"/>
      <point x="560" y="-414"/>
      <point x="476" y="-414" type="curve" smooth="yes"/>
      <point x="381" y="-414"/>
      <point x="332" y="-325"/>
      <point x="332" y="-190" type="curve" smooth="yes"/>
      <point x="332" y="-14"/>
      <point x="563" y="177"/>
      <point x="563" y="388" type="curve" smooth="yes"/>
      <point x="563" y="393"/>
      <point x="563" y="399"/>
      <point x="563" y="405" type="curve" smooth="yes"/>
      <point x="558" y="505" type="line"/>
      <point x="522" y="536" type="line"/>
      <point x="487" y="526"/>
      <point x="447" y="500"/>
    </contour>
  </outline>
</glyph>
<glyph name="Eacute" format="2">
  <advance width="1046"/>
  <unicode hex="00C9"/>
  <anchor x="522" y="0" name="H"/>
  <anchor x="522" y="-97" name="L"/>
  <anchor x="788" y="0" name="O"/>
  <anchor x="1047" y="1063" name="R"/>
  <anchor x="522" y="1710" name="U"/>
  <outline>
    <contour>
      <point x="944" y="1183" type="curve"/>
      <point x="903" y="1217" type="line"/>
      <point x="413" y="1217" type="line"/>
      <point x="385" y="1092" type="line"/>
      <point x="746" y="1092" type="line" smooth="yes"/>
      <point x="793" y="1092"/>
      <point x="818" y="1017"/>
      <point x="824" y="898" type="curve"/>
      <point x="905" y="898" type="line"/>
      <point x="921" y="948"/>
      <point x="941" y="1118"/>
    </contour>
    <contour>
      <point x="846" y="673" type="curve"/>
      <point x="812" y="710" type="line"/>
      <point x="393" y="710" type="line"/>
      <point x="371" y="600" type="line"/>
      <point x="569" y="600" type="line" smooth="yes"/>
      <point x="676" y="600"/>
      <point x="719" y="584"/>
      <point x="758" y="547" type="curve"/>
      <point x="786" y="567"/>
      <point x="826" y="638"/>
    </contour>
    <contour>
      <point x="1007" y="313" type="curve"/>
      <point x="927" y="340" type="line"/>
      <point x="873" y="189"/>
      <point x="832" y="126"/>
      <point x="714" y="126" type="curve" smooth="yes"/>
      <point x="629" y="126" type="line" smooth="yes"/>
      <point x="461" y="126"/>
      <point x="435" y="150"/>
      <point x="435" y="187" type="curve" smooth="yes"/>
      <point x="435" y="1098" type="line" smooth="yes"/>
      <point x="435" y="1116"/>
      <point x="487" y="1128"/>
      <point x="573" y="1137" type="curve"/>
      <point x="573" y="1217" type="line"/>
      <point x="38" y="1217" type="line"/>
      <point x="38" y="1137" type="line"/>
      <point x="130" y="1119"/>
      <point x="167" y="1093"/>
      <point x="167" y="1077" type="curve" smooth="yes"/>
      <point x="167" y="139" type="line" smooth="yes"/>
      <point x="167" y="122"/>
      <point x="124" y="98"/>
      <point x="38" y="80" type="curve"/>
      <point x="38" y="0" type="line"/>
      <point x="967" y="0" type="line"/>
      <point x="978" y="38"/>
      <point x="997" y="202"/>
    </contour>
    <contour>
      <point x="376" y="1309" type="curve"/>
      <point x="876" y="1541" type="line"/>
      <point x="865" y="1605" type="line"/>
      <point x="842" y="1624"/>
      <point x="679" y="1709"/>
      <point x="652" y="1720" type="curve"/>
      <point x="306" y="1384" type="line"/>
      <point x="315" y="1369"/>
      <point x="356" y="1320"/>
    </contour>
  </outline>
</glyph>
<glyph name="Edieresis" format="2">
  <advance width="1046"/>
  <unicode hex="00CB"/>
  <anchor x="522" y="0" name="H"/>
  <anchor x="522" y="-97" name="L"/>
  <anchor x="788" y="0" name="O"/>
  <anchor x="1047" y="1063" name="R"/>
  <anchor x="522" y="1633" name="U"/>
  <outline>
    <contour>
      <point x="944" y="1183" type="curve"/>
      <point x="903" y="1217" type="line"/>
      <point x="413" y="1217" type="line"/>
      <point x="385" y="1092" type="line"/>
      <point x="746" y="1092" type="line" smooth="yes"/>
      <point x="793" y="1092"/>
      <point x="818" y="1017"/>
      <point x="824" y="898" type="curve"/>
      <point x="905" y="898" type="line"/>
      <point x="921" y="948"/>
      <point x="941" y="1118"/>
    </contour>
    <contour>
      <point x="846" y="673" type="curve"/>
      <point x="812" y="710" type="line"/>
      <point x="393" y="710" type="line"/>
      <point x="371" y="600" type="line"/>
      <point x="569" y="600" type="line" smooth="yes"/>
      <point x="676" y="600"/>
      <point x="719" y="584"/>
      <point x="758" y="547" type="curve"/>
      <point x="786" y="567"/>
      <point x="826" y="638"/>
    </contour>
    <contour>
      <point x="1007" y="313" type="curve"/>
      <point x="927" y="340" type="line"/>
      <point x="873" y="189"/>
      <point x="832" y="126"/>
      <point x="714" y="126" type="curve" smooth="yes"/>
      <point x="629" y="126" type="line" smooth="yes"/>
      <point x="461" y="126"/>
      <point x="435" y="150"/>
      <point x="435" y="187" type="curve" smooth="yes"/>
      <point x="435" y="1098" type="line" smooth="yes"/>
      <point x="435" y="1116"/>
      <point x="487" y="1128"/>
      <point x="573" y="1137" type="curve"/>
      <point x="573" y="1217" type="line"/>
      <point x="38" y="1217" type="line"/>
      <point x="38" y="1137" type="line"/>
      <point x="130" y="1119"/>
      <point x="167" y="1093"/>
      <point x="167" y="1077" type="curve" smooth="yes"/>
      <point x="167" y="139" type="line" smooth="yes"/>
      <point x="167" y="122"/>
      <point x="124" y="98"/>
      <point x="38" y="80" type="curve"/>
      <point x="38" y="0" type="line"/>
      <point x="967" y="0" type="line"/>
      <point x="978" y="38"/>
      <point x="997" y="202"/>
    </contour>
    <contour>
      <point x="459" y="1497" type="curve" smooth="yes"/>
      <point x="459" y="1581"/>
      <point x="412" y="1623"/>
      <point x="335" y="1623" type="curve" smooth="yes"/>
      <point x="251" y="1623"/>
      <point x="173" y="1542"/>
      <point x="173" y="1439" type="curve" smooth="yes"/>
      <point x="173" y="1357"/>
      <point x="218" y="1314"/>
      <point x="297" y="1314" type="curve" smooth="yes"/>
      <point x="385" y="1314"/>
      <point x="459" y="1396"/>
    </contour>
    <contour>
      <point x="870" y="1497" type="curve" smooth="yes"/>
      <point x="870" y="1581"/>
      <point x="822" y="1623"/>
      <point x="746" y="1623" type="curve" smooth="yes"/>
      <point x="662" y="1623"/>
      <point x="584" y="1542"/>
      <point x="584" y="1439" type="curve" smooth="yes"/>
      <point x="584" y="1357"/>
      <point x="628" y="1314"/>
      <point x="708" y="1314" type="curve" smooth="yes"/>
      <point x="796" y="1314"/>
      <point x="870" y="1396"/>
    </contour>
  </outline>
</glyph>
<glyph name="Iacute" format="2">
  <advance width="658"/>
  <unicode hex="00CD"/>
  <anchor x="320" y="0" name="H"/>
  <anchor x="320" y="-97" name="L"/>
  <anchor x="378" y="0" name="O"/>
  <anchor x="581" y="1063" name="R"/>
  <anchor x="320" y="1710" name="U"/>
  <outline>
    <contour>
      <point x="57" y="0" type="line"/>
      <point x="583" y="0" type="line"/>
      <point x="583" y="80" type="line"/>
      <point x="491" y="98"/>
      <point x="454" y="124"/>
      <point x="454" y="139" type="curve" smooth="yes"/>
      <point x="454" y="1077" type="line" smooth="yes"/>
      <point x="454" y="1095"/>
      <point x="497" y="1119"/>
      <point x="583" y="1137" type="curve"/>
      <point x="583" y="1217" type="line"/>
      <point x="57" y="1217" type="line"/>
      <point x="57" y="1137" type="line"/>
      <point x="149" y="1119"/>
      <point x="186" y="1093"/>
      <point x="186" y="1077" type="curve" smooth="yes"/>
      <point x="186" y="139" type="line" smooth="yes"/>
      <point x="186" y="122"/>
      <point x="143" y="98"/>
      <point x="57" y="80" type="curve"/>
    </contour>
    <contour>
      <point x="174" y="1309" type="curve"/>
      <point x="673" y="1541" type="line"/>
      <point x="663" y="1605" type="line"/>
      <point x="640" y="1624"/>
      <point x="477" y="1709"/>
      <point x="450" y="1720" type="curve"/>
      <point x="103" y="1384" type="line"/>
      <point x="113" y="1369"/>
      <point x="154" y="1320"/>
    </contour>
  </outline>
</glyph>
<glyph name="Ntilde" format="2">
  <advance width="1307"/>
  <unicode hex="00D1"/>
  <anchor x="1028" y="0" name="H"/>
  <anchor x="654" y="-97" name="L"/>
  <anchor x="654" y="1633" name="U"/>
  <outline>
    <contour>
      <point x="1270" y="1137" type="curve"/>
      <point x="1270" y="1217" type="line"/>
      <point x="860" y="1217" type="line"/>
      <point x="860" y="1137" type="line"/>
      <point x="962" y="1122"/>
      <point x="988" y="1093"/>
      <point x="988" y="1077" type="curve" smooth="yes"/>
      <point x="988" y="69" type="line"/>
      <point x="1141" y="31" type="line"/>
      <point x="1141" y="1077" type="line" smooth="yes"/>
      <point x="1141" y="1095"/>
      <point x="1178" y="1124"/>
    </contour>
    <contour>
      <point x="1141" y="-29" type="curve"/>
      <point x="1141" y="145" type="line"/>
      <point x="1141" y="145"/>
      <point x="1036" y="274"/>
      <point x="1009" y="312" type="curve" smooth="yes"/>
      <point x="418" y="1142" type="line" smooth="yes"/>
      <point x="371" y="1208"/>
      <point x="364" y="1217"/>
      <point x="327" y="1217" type="curve" smooth="yes"/>
      <point x="38" y="1217" type="line"/>
      <point x="38" y="1137" type="line"/>
      <point x="105" y="1126"/>
      <point x="175" y="1069"/>
      <point x="227" y="995" type="curve" smooth="yes"/>
      <point x="875" y="88" type="line" smooth="yes"/>
      <point x="915" y="32"/>
      <point x="1001" y="-18"/>
    </contour>
    <contour>
      <point x="38" y="0" type="line"/>
      <point x="449" y="0" type="line"/>
      <point x="449" y="80" type="line"/>
      <point x="350" y="94"/>
      <point x="320" y="124"/>
      <point x="320" y="139" type="curve" smooth="yes"/>
      <point x="320" y="1179" type="line"/>
      <point x="167" y="1117" type="line"/>
      <point x="167" y="139" type="line" smooth="yes"/>
      <point x="167" y="122"/>
      <point x="132" y="92"/>
      <point x="38" y="80" type="curve"/>
    </contour>
    <contour>
      <point x="1046" y="1601" type="curve"/>
      <point x="966" y="1633" type="line"/>
      <point x="923" y="1557"/>
      <point x="885" y="1523"/>
      <point x="827" y="1523" type="curve" smooth="yes"/>
      <point x="737" y="1523"/>
      <point x="643" y="1623"/>
      <point x="518" y="1623" type="curve" smooth="yes"/>
      <point x="395" y="1623"/>
      <point x="306" y="1438"/>
      <point x="261" y="1333" type="curve"/>
      <point x="340" y="1304" type="line"/>
      <point x="387" y="1376"/>
      <point x="416" y="1413"/>
      <point x="477" y="1413" type="curve" smooth="yes"/>
      <point x="580" y="1413"/>
      <point x="671" y="1314"/>
      <point x="788" y="1314" type="curve" smooth="yes"/>
      <point x="911" y="1314"/>
      <point x="1001" y="1496"/>
    </contour>
  </outline>
</glyph>
<glyph name="Otilde" format="2">
  <advance width="1230"/>
  <unicode hex="00D5"/>
  <anchor x="585" y="0" name="H"/>
  <anchor x="617" y="-97" name="L"/>
  <anchor x="680" y="0" name="O"/>
  <anchor x="1199" y="1063" name="R"/>
  <anchor x="617" y="1633" name="U"/>
  <outline>
    <contour>
      <point x="578" y="-29" type="curve" smooth="yes"/>
      <point x="895" y="-29"/>
      <point x="1163" y="275"/>
      <point x="1163" y="625" type="curve" smooth="yes"/>
      <point x="1163" y="940"/>
      <point x="977" y="1246"/>
      <point x="633" y="1246" type="curve" smooth="yes"/>
      <point x="286" y="1246"/>
      <point x="48" y="942"/>
      <point x="48" y="591" type="curve" smooth="yes"/>
      <point x="48" y="267"/>
      <point x="251" y="-29"/>
    </contour>
    <contour>
      <point x="625" y="106" type="curve" smooth="yes"/>
      <point x="457" y="106"/>
      <point x="320" y="330"/>
      <point x="320" y="619" type="curve" smooth="yes"/>
      <point x="320" y="934"/>
      <point x="408" y="1116"/>
      <point x="577" y="1116" type="curve" smooth="yes"/>
      <point x="765" y="1116"/>
      <point x="891" y="874"/>
      <point x="891" y="608" type="curve" smooth="yes"/>
      <point x="891" y="267"/>
      <point x="778" y="106"/>
    </contour>
    <contour>
      <point x="1008" y="1601" type="curve"/>
      <point x="928" y="1633" type="line"/>
      <point x="885" y="1557"/>
      <point x="848" y="1523"/>
      <point x="790" y="1523" type="curve" smooth="yes"/>
      <point x="700" y="1523"/>
      <point x="605" y="1623"/>
      <point x="480" y="1623" type="curve" smooth="yes"/>
      <point x="358" y="1623"/>
      <point x="268" y="1438"/>
      <point x="223" y="1333" type="curve"/>
      <point x="303" y="1304" type="line"/>
      <point x="350" y="1376"/>
      <point x="379" y="1413"/>
      <point x="439" y="1413" type="curve" smooth="yes"/>
      <point x="542" y="1413"/>
      <point x="634" y="1314"/>
      <point x="751" y="1314" type="curve" smooth="yes"/>
      <point x="874" y="1314"/>
      <point x="964" y="1496"/>
    </contour>
  </outline>
</glyph>
<glyph name="Odieresis" format="2">
  <advance width="1230"/>
  <unicode hex="00D6"/>
  <anchor x="585" y="0" name="H"/>
  <anchor x="617" y="-97" name="L"/>
  <anchor x="680" y="0" name="O"/>
  <anchor x="1199" y="1063" name="R"/>
  <anchor x="617" y="1633" name="U"/>
  <outline>
    <contour>
      <point x="578" y="-29" type="curve" smooth="yes"/>
      <point x="895" y="-29"/>
      <point x="1163" y="275"/>
      <point x="1163" y="625" type="curve" smooth="yes"/>
      <point x="1163" y="940"/>
      <point x="977" y="1246"/>
      <point x="633" y="1246" type="curve" smooth="yes"/>
      <point x="286" y="1246"/>
      <point x="48" y="942"/>
      <point x="48" y="591" type="curve" smooth="yes"/>
      <point x="48" y="267"/>
      <point x="251" y="-29"/>
    </contour>
    <contour>
      <point x="625" y="106" type="curve" smooth="yes"/>
      <point x="457" y="106"/>
      <point x="320" y="330"/>
      <point x="320" y="619" type="curve" smooth="yes"/>
      <point x="320" y="934"/>
      <point x="408" y="1116"/>
      <point x="577" y="1116" type="curve" smooth="yes"/>
      <point x="765" y="1116"/>
      <point x="891" y="874"/>
      <point x="891" y="608" type="curve" smooth="yes"/>
      <point x="891" y="267"/>
      <point x="778" y="106"/>
    </contour>
    <contour>
      <point x="554" y="1497" type="curve" smooth="yes"/>
      <point x="554" y="1581"/>
      <point x="506" y="1623"/>
      <point x="430" y="1623" type="curve" smooth="yes"/>
      <point x="346" y="1623"/>
      <point x="267" y="1542"/>
      <point x="267" y="1439" type="curve" smooth="yes"/>
      <point x="267" y="1357"/>
      <point x="312" y="1314"/>
      <point x="392" y="1314" type="curve" smooth="yes"/>
      <point x="479" y="1314"/>
      <point x="554" y="1396"/>
    </contour>
    <contour>
      <point x="965" y="1497" type="curve" smooth="yes"/>
      <point x="965" y="1581"/>
      <point x="917" y="1623"/>
      <point x="840" y="1623" type="curve" smooth="yes"/>
      <point x="756" y="1623"/>
      <point x="678" y="1542"/>
      <point x="678" y="1439" type="curve" smooth="yes"/>
      <point x="678" y="1357"/>
      <point x="723" y="1314"/>
      <point x="802" y="1314" type="curve" smooth="yes"/>
      <point x="890" y="1314"/>
      <point x="965" y="1396"/>
    </contour>
  </outline>
</glyph>
<glyph name="idieresis" format="2">
  <advance width="594"/>
  <unicode hex="00EF"/>
  <anchor x="305" y="0" name="H"/>
  <anchor x="305" y="-95" name="L"/>
  <anchor x="362" y="0" name="O"/>
  <anchor x="595" y="851" name="R"/>
  <anchor x="305" y="1391" name="U"/>
  <outline>
    <contour>
      <point x="56" y="0" type="line"/>
      <point x="553" y="0" type="line"/>
      <point x="553" y="79" type="line"/>
      <point x="462" y="96"/>
      <point x="431" y="121"/>
      <point x="431" y="136" type="curve" smooth="yes"/>
      <point x="431" y="908" type="line"/>
      <point x="362" y="908" type="line"/>
      <point x="270" y="877"/>
      <point x="172" y="857"/>
      <point x="56" y="842" type="curve"/>
      <point x="56" y="766" type="line"/>
      <point x="188" y="754"/>
      <point x="178" y="735"/>
      <point x="178" y="605" type="curve" smooth="yes"/>
      <point x="178" y="136" type="line" smooth="yes"/>
      <point x="178" y="119"/>
      <point x="141" y="96"/>
      <point x="56" y="79" type="curve"/>
    </contour>
    <contour>
      <point x="244" y="1201" type="curve" smooth="yes"/>
      <point x="244" y="1284"/>
      <point x="197" y="1324"/>
      <point x="122" y="1324" type="curve" smooth="yes"/>
      <point x="39" y="1324"/>
      <point x="-37" y="1245"/>
      <point x="-37" y="1145" type="curve" smooth="yes"/>
      <point x="-37" y="1064"/>
      <point x="7" y="1022"/>
      <point x="84" y="1022" type="curve" smooth="yes"/>
      <point x="171" y="1022"/>
      <point x="244" y="1102"/>
    </contour>
    <contour>
      <point x="647" y="1201" type="curve" smooth="yes"/>
      <point x="647" y="1284"/>
      <point x="600" y="1324"/>
      <point x="525" y="1324" type="curve" smooth="yes"/>
      <point x="442" y="1324"/>
      <point x="365" y="1245"/>
      <point x="365" y="1145" type="curve" smooth="yes"/>
      <point x="365" y="1064"/>
      <point x="409" y="1022"/>
      <point x="487" y="1022" type="curve" smooth="yes"/>
      <point x="573" y="1022"/>
      <point x="647" y="1102"/>
    </contour>
  </outline>
</glyph>
<glyph name="eth" format="2">
  <advance width="988"/>
  <unicode hex="00F0"/>
  <anchor x="491" y="-95" name="L"/>
  <anchor x="495" y="1533" name="U"/>
  <outline>
    <contour>
      <point x="932" y="579" type="curve" smooth="yes"/>
      <point x="932" y="787"/>
      <point x="875" y="980"/>
      <point x="718" y="1160" type="curve"/>
      <point x="942" y="1252" type="line"/>
      <point x="935" y="1294" type="line"/>
      <point x="902" y="1305"/>
      <point x="863" y="1310"/>
      <point x="804" y="1315" type="curve"/>
      <point x="635" y="1246" type="line"/>
      <point x="583" y="1294"/>
      <point x="501" y="1355"/>
      <point x="433" y="1400" type="curve"/>
      <point x="160" y="1304" type="line"/>
      <point x="174" y="1227" type="line"/>
      <point x="283" y="1243"/>
      <point x="380" y="1214"/>
      <point x="450" y="1165" type="curve"/>
      <point x="202" y="1061" type="line"/>
      <point x="213" y="1017" type="line"/>
      <point x="256" y="1004"/>
      <point x="294" y="1001"/>
      <point x="341" y="1000" type="curve"/>
      <point x="534" y="1079" type="line"/>
      <point x="606" y="995"/>
      <point x="636" y="925"/>
      <point x="658" y="836" type="curve"/>
      <point x="611" y="885"/>
      <point x="551" y="908"/>
      <point x="474" y="908" type="curve" smooth="yes"/>
      <point x="224" y="908"/>
      <point x="56" y="671"/>
      <point x="56" y="420" type="curve" smooth="yes"/>
      <point x="56" y="163"/>
      <point x="221" y="-28"/>
      <point x="493" y="-28" type="curve" smooth="yes"/>
      <point x="662" y="-28"/>
      <point x="932" y="143"/>
    </contour>
    <contour>
      <point x="679" y="587" type="curve"/>
      <point x="679" y="571"/>
      <point x="679" y="556"/>
      <point x="679" y="540" type="curve" smooth="yes"/>
      <point x="679" y="230"/>
      <point x="640" y="95"/>
      <point x="502" y="95" type="curve" smooth="yes"/>
      <point x="394" y="95"/>
      <point x="314" y="267"/>
      <point x="314" y="466" type="curve" smooth="yes"/>
      <point x="314" y="668"/>
      <point x="363" y="776"/>
      <point x="464" y="776" type="curve" smooth="yes"/>
      <point x="536" y="776"/>
      <point x="643" y="719"/>
    </contour>
  </outline>
</glyph>
<glyph name="dotaccent" format="2">
  <advance width="374"/>
  <unicode hex="02D9"/>
  <outline>
    <contour>
      <point x="328" y="1201" type="curve" smooth="yes"/>
      <point x="328" y="1284"/>
      <point x="281" y="1324"/>
      <point x="206" y="1324" type="curve" smooth="yes"/>
      <point x="124" y="1324"/>
      <point x="47" y="1245"/>
      <point x="47" y="1145" type="curve" smooth="yes"/>
      <point x="47" y="1064"/>
      <point x="91" y="1022"/>
      <point x="169" y="1022" type="curve" smooth="yes"/>
      <point x="255" y="1022"/>
      <point x="328" y="1102"/>
    </contour>
  </outline>
</glyph>
<glyph name="ogonek" format="2">
  <advance width="496"/>
  <unicode hex="02DB"/>
  <anchor x="271" y="-568" name="L"/>
  <outline>
    <contour>
      <point x="520" y="-283" type="curve"/>
      <point x="488" y="-210" type="line"/>
      <point x="436" y="-258"/>
      <point x="397" y="-271"/>
      <point x="366" y="-271" type="curve" smooth="yes"/>
      <point x="328" y="-271"/>
      <point x="295" y="-249"/>
      <point x="295" y="-202" type="curve" smooth="yes"/>
      <point x="295" y="-143"/>
      <point x="327" y="-84"/>
      <point x="439" y="23" type="curve"/>
      <point x="350" y="41" type="line"/>
      <point x="143" y="-56"/>
      <point x="43" y="-170"/>
      <point x="43" y="-283" type="curve" smooth="yes"/>
      <point x="43" y="-388"/>
      <point x="149" y="-420"/>
      <point x="217" y="-420" type="curve" smooth="yes"/>
      <point x="336" y="-420"/>
      <point x="456" y="-349"/>
    </contour>
  </outline>
</glyph>
<glyph name="danda" format="2">
  <advance width="505"/>
  <unicode hex="0964"/>
  <outline>
    <contour>
      <point x="368" y="933" type="curve"/>
      <point x="319" y="808"/>
      <point x="186" y="421"/>
      <point x="59" y="4" type="curve"/>
      <point x="59" y="4"/>
      <point x="101" y="-34"/>
      <point x="101" y="-34" type="curve"/>
      <point x="163" y="-16"/>
      <point x="295" y="36"/>
      <point x="318" y="67" type="curve"/>
      <point x="396" y="372"/>
      <point x="501" y="688"/>
      <point x="616" y="957" type="curve"/>
      <point x="587" y="999" type="line"/>
      <point x="543" y="986"/>
      <point x="410" y="964"/>
    </contour>
  </outline>
</glyph>
<glyph name="vowelcarrier-limb" format="2">
  <advance width="1030"/>
  <unicode hex="1900"/>
  <anchor x="798" y="945" name="K"/>
  <anchor x="452" y="-90" name="L"/>
  <anchor x="1108" y="945" name="O"/>
  <anchor x="789" y="945" name="U"/>
  <anchor x="867" y="45" name="V"/>
  <outline>
    <contour>
      <point x="855" y="791" type="curve"/>
      <point x="721" y="791" type="line"/>
      <point x="558" y="661"/>
      <point x="358" y="518"/>
      <point x="179" y="392" type="curve"/>
      <point x="199" y="342" type="line"/>
      <point x="568" y="342" type="line"/>
      <point x="557" y="417" type="line"/>
      <point x="425" y="287"/>
      <point x="249" y="167"/>
      <point x="51" y="14" type="curve"/>
      <point x="70" y="-31" type="line"/>
      <point x="207" y="15"/>
      <point x="329" y="39"/>
      <point x="444" y="39" type="curve" smooth="yes"/>
      <point x="564" y="39"/>
      <point x="711" y="10"/>
      <point x="817" y="-31" type="curve"/>
      <point x="849" y="-14"/>
      <point x="960" y="50"/>
      <point x="979" y="78" type="curve"/>
      <point x="1015" y="210"/>
      <point x="1050" y="330"/>
      <point x="1100" y="486" type="curve" smooth="yes"/>
      <point x="1135" y="594"/>
      <point x="1175" y="710"/>
      <point x="1221" y="837" type="curve"/>
      <point x="1209" y="873" type="line"/>
      <point x="454" y="873" type="line"/>
      <point x="421" y="854"/>
      <point x="331" y="788"/>
      <point x="289" y="752" type="curve"/>
      <point x="310" y="707" type="line"/>
      <point x="1022" y="707" type="line"/>
      <point x="999" y="800" type="line"/>
      <point x="947" y="650"/>
      <point x="899" y="508"/>
      <point x="860" y="386" type="curve" smooth="yes"/>
      <point x="821" y="267"/>
      <point x="791" y="167"/>
      <point x="772" y="92" type="curve"/>
      <point x="869" y="156" type="line"/>
      <point x="823" y="179"/>
      <point x="711" y="210"/>
      <point x="582" y="210" type="curve" smooth="yes"/>
      <point x="506" y="210"/>
      <point x="394" y="192"/>
      <point x="335" y="170" type="curve"/>
      <point x="344" y="116" type="line"/>
      <point x="399" y="154"/>
      <point x="612" y="337"/>
      <point x="724" y="446" type="curve"/>
      <point x="711" y="488" type="line"/>
      <point x="359" y="488" type="line"/>
      <point x="429" y="452" type="line"/>
      <point x="442" y="448"/>
      <point x="715" y="669"/>
    </contour>
  </outline>
</glyph>
<glyph name="ka-limb" format="2">
  <advance width="1015"/>
  <unicode hex="1901"/>
  <anchor x="510" y="1050" name="K"/>
  <anchor x="495" y="-100" name="L"/>
  <anchor x="765" y="1050" name="O"/>
  <anchor x="497" y="1050" name="U"/>
  <anchor x="930" y="50" name="V"/>
  <outline>
    <contour>
      <point x="439" y="970" type="curve"/>
      <point x="406" y="952"/>
      <point x="312" y="896"/>
      <point x="267" y="855" type="curve"/>
      <point x="286" y="805" type="line"/>
      <point x="304" y="805"/>
      <point x="797" y="805"/>
      <point x="866" y="805" type="curve"/>
      <point x="871" y="875" type="line"/>
      <point x="557" y="645"/>
      <point x="221" y="289"/>
      <point x="6" y="50" type="curve"/>
      <point x="19" y="0" type="line"/>
      <point x="751" y="0" type="line"/>
      <point x="784" y="22"/>
      <point x="880" y="89"/>
      <point x="902" y="115" type="curve"/>
      <point x="879" y="165" type="line"/>
      <point x="203" y="165" type="line"/>
      <point x="269" y="101" type="line"/>
      <point x="460" y="313"/>
      <point x="842" y="679"/>
      <point x="1143" y="910" type="curve"/>
      <point x="1128" y="970" type="line"/>
      <point x="1128" y="970"/>
      <point x="438" y="970"/>
    </contour>
  </outline>
</glyph>
<glyph name="kha-limb" format="2">
  <advance width="1049"/>
  <unicode hex="1902"/>
  <anchor x="951" y="945" name="K"/>
  <anchor x="499" y="-90" name="L"/>
  <anchor x="1188" y="945" name="O"/>
  <anchor x="899" y="945" name="U"/>
  <anchor x="986" y="45" name="V"/>
  <outline>
    <contour>
      <point x="773" y="142" type="curve"/>
      <point x="768" y="216" type="line"/>
      <point x="678" y="137"/>
      <point x="613" y="104"/>
      <point x="549" y="104" type="curve" smooth="yes"/>
      <point x="446" y="104"/>
      <point x="328" y="191"/>
      <point x="416" y="461" type="curve" smooth="yes"/>
      <point x="510" y="749"/>
      <point x="703" y="821"/>
      <point x="916" y="860" type="curve"/>
      <point x="691" y="873" type="line"/>
      <point x="534" y="811"/>
      <point x="256" y="651"/>
      <point x="166" y="370" type="curve" smooth="yes"/>
      <point x="82" y="110"/>
      <point x="196" y="-31"/>
      <point x="401" y="-31" type="curve" smooth="yes"/>
      <point x="553" y="-31"/>
      <point x="636" y="34"/>
    </contour>
    <contour>
      <point x="1070" y="707" type="line"/>
      <point x="1085" y="734"/>
      <point x="1193" y="812"/>
      <point x="1276" y="828" type="curve"/>
      <point x="1258" y="873" type="line"/>
      <point x="691" y="873" type="line"/>
      <point x="478" y="707" type="line"/>
    </contour>
    <contour>
      <point x="1164" y="836" type="line"/>
      <point x="948" y="745"/>
      <point x="725" y="529"/>
      <point x="653" y="309" type="curve" smooth="yes"/>
      <point x="578" y="78"/>
      <point x="644" y="-31"/>
      <point x="788" y="-31" type="curve" smooth="yes"/>
      <point x="895" y="-31"/>
      <point x="1004" y="51"/>
      <point x="1081" y="126" type="curve"/>
      <point x="1055" y="176" type="line"/>
      <point x="996" y="130"/>
      <point x="965" y="104"/>
      <point x="928" y="104" type="curve" smooth="yes"/>
      <point x="866" y="104"/>
      <point x="828" y="206"/>
      <point x="886" y="383" type="curve" smooth="yes"/>
      <point x="929" y="517"/>
      <point x="1022" y="673"/>
      <point x="1276" y="828" type="curve"/>
    </contour>
  </outline>
</glyph>
<glyph name="ga-limb" format="2">
  <advance width="958"/>
  <unicode hex="1903"/>
  <anchor x="820" y="945" name="K"/>
  <anchor x="424" y="-90" name="L"/>
  <anchor x="1044" y="945" name="O"/>
  <anchor x="762" y="945" name="U"/>
  <anchor x="745" y="45" name="V"/>
  <outline>
    <contour>
      <point x="409" y="873" type="line"/>
      <point x="377" y="854"/>
      <point x="274" y="779"/>
      <point x="244" y="752" type="curve"/>
      <point x="266" y="707" type="line"/>
      <point x="601" y="707" type="line"/>
      <point x="586" y="752" type="line"/>
      <point x="451" y="646"/>
      <point x="335" y="537"/>
      <point x="266" y="463" type="curve"/>
      <point x="301" y="428" type="line"/>
      <point x="390" y="456"/>
      <point x="489" y="479"/>
      <point x="567" y="479" type="curve" smooth="yes"/>
      <point x="727" y="479"/>
      <point x="791" y="386"/>
      <point x="755" y="273" type="curve" smooth="yes"/>
      <point x="732" y="202"/>
      <point x="696" y="116"/>
      <point x="607" y="116" type="curve" smooth="yes"/>
      <point x="553" y="116"/>
      <point x="520" y="152"/>
      <point x="540" y="213" type="curve" smooth="yes"/>
      <point x="593" y="377"/>
      <point x="847" y="580"/>
      <point x="1107" y="743" type="curve"/>
      <point x="1127" y="770"/>
      <point x="1161" y="824"/>
      <point x="1177" y="860" type="curve"/>
      <point x="1175" y="862"/>
      <point x="1155" y="874"/>
      <point x="1145" y="878" type="curve"/>
      <point x="681" y="581"/>
      <point x="390" y="338"/>
      <point x="327" y="144" type="curve" smooth="yes"/>
      <point x="294" y="43"/>
      <point x="338" y="-31"/>
      <point x="472" y="-31" type="curve" smooth="yes"/>
      <point x="653" y="-31"/>
      <point x="932" y="163"/>
      <point x="994" y="354" type="curve" smooth="yes"/>
      <point x="1052" y="532"/>
      <point x="919" y="612"/>
      <point x="742" y="612" type="curve" smooth="yes"/>
      <point x="644" y="612"/>
      <point x="526" y="581"/>
      <point x="438" y="544" type="curve"/>
      <point x="501" y="535" type="line"/>
      <point x="567" y="614"/>
      <point x="728" y="745"/>
      <point x="848" y="828" type="curve"/>
      <point x="830" y="873" type="line"/>
    </contour>
  </outline>
</glyph>
<glyph name="gha-limb" format="2">
  <advance width="1093"/>
  <unicode hex="1904"/>
  <anchor x="550" y="1050" name="K"/>
  <anchor x="520" y="-100" name="L"/>
  <anchor x="830" y="1050" name="O"/>
  <anchor x="510" y="1050" name="U"/>
  <anchor x="890" y="50" name="V"/>
  <outline>
    <contour>
      <point x="139" y="970" type="line"/>
      <point x="110" y="949"/>
      <point x="23" y="865"/>
      <point x="0" y="835" type="curve"/>
      <point x="39" y="785" type="line"/>
      <point x="762" y="785" type="line"/>
      <point x="760" y="501"/>
      <point x="750" y="261"/>
      <point x="761" y="-3" type="curve"/>
      <point x="761" y="-3"/>
      <point x="815" y="-34"/>
      <point x="820" y="-34" type="curve"/>
      <point x="909" y="-6"/>
      <point x="1000" y="66"/>
      <point x="1013" y="97" type="curve"/>
      <point x="999" y="345"/>
      <point x="999" y="577"/>
      <point x="1010" y="920" type="curve"/>
      <point x="975" y="970" type="line"/>
    </contour>
    <contour>
      <point x="171" y="483" type="curve" smooth="yes"/>
      <point x="173" y="272"/>
      <point x="288" y="214"/>
      <point x="403" y="214" type="curve" smooth="yes"/>
      <point x="637" y="214"/>
      <point x="755" y="329"/>
      <point x="850" y="416" type="curve"/>
      <point x="829" y="566" type="line"/>
      <point x="783" y="489"/>
      <point x="645" y="384"/>
      <point x="529" y="384" type="curve" smooth="yes"/>
      <point x="446" y="384"/>
      <point x="401" y="436"/>
      <point x="400" y="533" type="curve"/>
      <point x="400" y="632"/>
      <point x="405" y="891"/>
      <point x="405" y="904" type="curve"/>
      <point x="178" y="904" type="line"/>
      <point x="174" y="880"/>
      <point x="169" y="624"/>
    </contour>
  </outline>
</glyph>
<glyph name="nga-limb" format="2">
  <advance width="1262"/>
  <unicode hex="1905"/>
  <anchor x="640" y="1050" name="K"/>
  <anchor x="530" y="-100" name="L"/>
  <anchor x="830" y="1050" name="O"/>
  <anchor x="630" y="1050" name="U"/>
  <anchor x="858" y="50" name="V"/>
  <outline>
    <contour>
      <point x="558" y="970" type="line"/>
      <point x="520" y="949"/>
      <point x="412" y="885"/>
      <point x="381" y="855" type="curve"/>
      <point x="402" y="805" type="line"/>
      <point x="730" y="805" type="line"/>
      <point x="717" y="824" type="line"/>
      <point x="572" y="698"/>
      <point x="519" y="650"/>
      <point x="391" y="528" type="curve"/>
      <point x="411" y="480" type="line"/>
      <point x="465" y="504"/>
      <point x="535" y="522"/>
      <point x="587" y="522" type="curve" smooth="yes"/>
      <point x="707" y="522"/>
      <point x="753" y="458"/>
      <point x="753" y="382" type="curve" smooth="yes"/>
      <point x="753" y="270"/>
      <point x="614" y="99"/>
      <point x="480" y="99" type="curve" smooth="yes"/>
      <point x="309" y="99"/>
      <point x="245" y="216"/>
      <point x="245" y="360" type="curve" smooth="yes"/>
      <point x="245" y="475"/>
      <point x="308" y="633"/>
      <point x="387" y="746" type="curve"/>
      <point x="381" y="760"/>
      <point x="360" y="767"/>
      <point x="352" y="769" type="curve"/>
      <point x="186" y="619"/>
      <point x="57" y="422"/>
      <point x="57" y="227" type="curve" smooth="yes"/>
      <point x="57" y="49"/>
      <point x="186" y="-34"/>
      <point x="372" y="-34" type="curve" smooth="yes"/>
      <point x="633" y="-34"/>
      <point x="976" y="236"/>
      <point x="976" y="476" type="curve" smooth="yes"/>
      <point x="976" y="591"/>
      <point x="888" y="657"/>
      <point x="697" y="657" type="curve" smooth="yes"/>
      <point x="676" y="657"/>
      <point x="606" y="651"/>
      <point x="570" y="628" type="curve"/>
      <point x="642" y="610" type="line"/>
      <point x="773" y="723"/>
      <point x="849" y="809"/>
      <point x="997" y="917" type="curve"/>
      <point x="970" y="970" type="line"/>
    </contour>
    <contour>
      <point x="1388" y="852" type="curve" smooth="yes"/>
      <point x="1388" y="931"/>
      <point x="1317" y="960"/>
      <point x="1244" y="960" type="curve" smooth="yes"/>
      <point x="1107" y="960"/>
      <point x="972" y="846"/>
      <point x="972" y="726" type="curve" smooth="yes"/>
      <point x="972" y="653"/>
      <point x="1039" y="626"/>
      <point x="1112" y="626" type="curve" smooth="yes"/>
      <point x="1236" y="626"/>
      <point x="1388" y="726"/>
    </contour>
    <contour>
      <point x="1129" y="769" type="curve" smooth="yes"/>
      <point x="1129" y="798"/>
      <point x="1151" y="855"/>
      <point x="1189" y="855" type="curve" smooth="yes"/>
      <point x="1215" y="855"/>
      <point x="1227" y="835"/>
      <point x="1227" y="811" type="curve" smooth="yes"/>
      <point x="1227" y="780"/>
      <point x="1207" y="727"/>
      <point x="1166" y="727" type="curve" smooth="yes"/>
      <point x="1143" y="727"/>
      <point x="1129" y="744"/>
    </contour>
  </outline>
</glyph>
<glyph name="ca-limb" format="2">
  <advance width="1068"/>
  <unicode hex="1906"/>
  <anchor x="869" y="1050" name="K"/>
  <anchor x="504" y="-100" name="L"/>
  <anchor x="1219" y="1050" name="O"/>
  <anchor x="851" y="1050" name="U"/>
  <anchor x="973" y="50" name="V"/>
  <outline>
    <contour>
      <point x="1064" y="906" type="curve"/>
      <point x="1017" y="782"/>
      <point x="891" y="414"/>
      <point x="761" y="-3" type="curve"/>
      <point x="761" y="-3"/>
      <point x="803" y="-34"/>
      <point x="803" y="-34" type="curve"/>
      <point x="862" y="-19"/>
      <point x="1007" y="56"/>
      <point x="1036" y="97" type="curve"/>
      <point x="1117" y="402"/>
      <point x="1202" y="671"/>
      <point x="1305" y="940" type="curve"/>
      <point x="1292" y="1000" type="line"/>
      <point x="1250" y="987"/>
      <point x="1104" y="937"/>
    </contour>
    <contour>
      <point x="302" y="865" type="curve"/>
      <point x="325" y="810" type="line"/>
      <point x="421" y="861"/>
      <point x="487" y="889"/>
      <point x="549" y="889" type="curve" smooth="yes"/>
      <point x="618" y="889"/>
      <point x="645" y="837"/>
      <point x="645" y="755" type="curve" smooth="yes"/>
      <point x="645" y="660"/>
      <point x="571" y="475"/>
      <point x="501" y="426" type="curve"/>
      <point x="490" y="424"/>
      <point x="480" y="423"/>
      <point x="467" y="423" type="curve" smooth="yes"/>
      <point x="433" y="423"/>
      <point x="371" y="431"/>
      <point x="371" y="471" type="curve" smooth="yes"/>
      <point x="371" y="517"/>
      <point x="436" y="552"/>
      <point x="485" y="575" type="curve"/>
      <point x="484" y="626" type="line"/>
      <point x="393" y="613"/>
      <point x="164" y="578"/>
      <point x="164" y="450" type="curve" smooth="yes"/>
      <point x="164" y="350"/>
      <point x="301" y="318"/>
      <point x="395" y="318" type="curve" smooth="yes"/>
      <point x="720" y="318"/>
      <point x="890" y="610"/>
      <point x="890" y="772" type="curve" smooth="yes"/>
      <point x="890" y="937"/>
      <point x="730" y="995"/>
      <point x="617" y="995" type="curve" smooth="yes"/>
      <point x="567" y="995"/>
      <point x="520" y="987"/>
      <point x="478" y="969" type="curve" smooth="yes"/>
      <point x="424" y="946"/>
      <point x="352" y="906"/>
    </contour>
  </outline>
</glyph>
<glyph name="cha-limb" format="2">
  <advance width="1188"/>
  <unicode hex="1907"/>
  <anchor x="982" y="1050" name="K"/>
  <anchor x="549" y="-100" name="L"/>
  <anchor x="1166" y="1050" name="O"/>
  <anchor x="937" y="1050" name="U"/>
  <anchor x="952" y="50" name="V"/>
  <outline>
    <contour>
      <point x="530" y="970" type="line"/>
      <point x="489" y="950"/>
      <point x="404" y="895"/>
      <point x="361" y="855" type="curve"/>
      <point x="379" y="805" type="line"/>
      <point x="1190" y="805" type="line"/>
      <point x="1243" y="821"/>
      <point x="1296" y="845"/>
      <point x="1385" y="920" type="curve"/>
      <point x="1371" y="970" type="line"/>
    </contour>
    <contour>
      <point x="892" y="887" type="line"/>
      <point x="561" y="873"/>
      <point x="272" y="643"/>
      <point x="272" y="340" type="curve" smooth="yes"/>
      <point x="272" y="88"/>
      <point x="486" y="-31"/>
      <point x="730" y="-31" type="curve" smooth="yes"/>
      <point x="876" y="-31"/>
      <point x="1023" y="13"/>
      <point x="1168" y="133" type="curve"/>
      <point x="1142" y="203" type="line"/>
      <point x="1043" y="153"/>
      <point x="952" y="130"/>
      <point x="836" y="130" type="curve" smooth="yes"/>
      <point x="705" y="130"/>
      <point x="495" y="200"/>
      <point x="495" y="391" type="curve" smooth="yes"/>
      <point x="495" y="628"/>
      <point x="737" y="832"/>
      <point x="949" y="857" type="curve"/>
    </contour>
    <contour>
      <point x="552" y="673" type="curve"/>
      <point x="432" y="522" type="line"/>
      <point x="544" y="527"/>
      <point x="686" y="525"/>
      <point x="765" y="530" type="curve"/>
      <point x="741" y="506"/>
      <point x="650" y="388"/>
      <point x="588" y="305" type="curve"/>
      <point x="598" y="268" type="line"/>
      <point x="867" y="268"/>
      <point x="950" y="273"/>
      <point x="965" y="280" type="curve"/>
      <point x="1013" y="295"/>
      <point x="1064" y="324"/>
      <point x="1123" y="394" type="curve"/>
      <point x="1113" y="424" type="line"/>
      <point x="1097" y="415"/>
      <point x="994" y="410"/>
      <point x="827" y="411" type="curve"/>
      <point x="890" y="480"/>
      <point x="952" y="555"/>
      <point x="1023" y="630" type="curve"/>
      <point x="1012" y="681" type="line"/>
      <point x="854" y="670"/>
      <point x="698" y="675"/>
    </contour>
  </outline>
</glyph>
<glyph name="ja-limb" format="2">
  <advance width="1172"/>
  <unicode hex="1908"/>
  <guideline x="84" y="367" angle="72.0442"/>
  <anchor x="502" y="1050" name="K"/>
  <anchor x="486" y="-100" name="L"/>
  <anchor x="890" y="1050" name="O"/>
  <anchor x="486" y="1050" name="U"/>
  <anchor x="946" y="50" name="V"/>
  <outline>
    <contour>
      <point x="408" y="970" type="line"/>
      <point x="374" y="949"/>
      <point x="273" y="875"/>
      <point x="243" y="845" type="curve"/>
      <point x="262" y="795" type="line"/>
      <point x="1066" y="795" type="line"/>
      <point x="1015" y="826" type="line"/>
      <point x="912" y="532"/>
      <point x="823" y="274"/>
      <point x="743" y="-3" type="curve"/>
      <point x="743" y="-3"/>
      <point x="785" y="-34"/>
      <point x="785" y="-34" type="curve"/>
      <point x="876" y="-6"/>
      <point x="982" y="66"/>
      <point x="1003" y="97" type="curve"/>
      <point x="1071" y="345"/>
      <point x="1144" y="577"/>
      <point x="1265" y="920" type="curve"/>
      <point x="1250" y="970" type="line"/>
    </contour>
    <contour>
      <point x="180" y="574" type="curve"/>
      <point x="216" y="529" type="line"/>
      <point x="249" y="534"/>
      <point x="294" y="536"/>
      <point x="335" y="536" type="curve" smooth="yes"/>
      <point x="429" y="536"/>
      <point x="577" y="500"/>
      <point x="577" y="394" type="curve" smooth="yes"/>
      <point x="577" y="357"/>
      <point x="537" y="252"/>
      <point x="481" y="224" type="curve" smooth="yes"/>
      <point x="456" y="212"/>
      <point x="431" y="208"/>
      <point x="408" y="208" type="curve" smooth="yes"/>
      <point x="358" y="208"/>
      <point x="276" y="230"/>
      <point x="276" y="306" type="curve" smooth="yes"/>
      <point x="276" y="343"/>
      <point x="296" y="380"/>
      <point x="314" y="391" type="curve"/>
      <point x="286" y="425" type="line"/>
      <point x="236" y="403"/>
      <point x="136" y="345"/>
      <point x="99" y="314" type="curve"/>
      <point x="87" y="298"/>
      <point x="79" y="278"/>
      <point x="79" y="260" type="curve" smooth="yes"/>
      <point x="79" y="145"/>
      <point x="246" y="98"/>
      <point x="333" y="98" type="curve" smooth="yes"/>
      <point x="421" y="98"/>
      <point x="501" y="124"/>
      <point x="576" y="165" type="curve" smooth="yes"/>
      <point x="714" y="240"/>
      <point x="792" y="352"/>
      <point x="792" y="457" type="curve" smooth="yes"/>
      <point x="792" y="630"/>
      <point x="542" y="681"/>
      <point x="432" y="681" type="curve" smooth="yes"/>
      <point x="402" y="681"/>
      <point x="374" y="678"/>
      <point x="337" y="673" type="curve"/>
      <point x="294" y="652"/>
      <point x="225" y="609"/>
    </contour>
  </outline>
</glyph>
<glyph name="jha-limb" format="2">
  <advance width="788"/>
  <unicode hex="1909"/>
  <anchor x="773" y="1050" name="K"/>
  <anchor x="382" y="-100" name="L"/>
  <anchor x="962" y="1050" name="O"/>
  <anchor x="755" y="1050" name="U"/>
  <anchor x="723" y="50" name="V"/>
  <outline>
    <contour>
      <point x="1059" y="920" type="curve"/>
      <point x="1043" y="970" type="line"/>
      <point x="714" y="970" type="line" smooth="yes"/>
      <point x="602" y="970"/>
      <point x="236" y="784"/>
      <point x="236" y="575" type="curve" smooth="yes"/>
      <point x="236" y="484"/>
      <point x="305" y="416"/>
      <point x="459" y="416" type="curve" smooth="yes"/>
      <point x="525" y="416"/>
      <point x="693" y="448"/>
      <point x="814" y="530" type="curve"/>
      <point x="796" y="607" type="line"/>
      <point x="734" y="579"/>
      <point x="694" y="566"/>
      <point x="593" y="566" type="curve" smooth="yes"/>
      <point x="520" y="566"/>
      <point x="458" y="598"/>
      <point x="458" y="661" type="curve" smooth="yes"/>
      <point x="458" y="691"/>
      <point x="477" y="785"/>
      <point x="600" y="785" type="curve" smooth="yes"/>
      <point x="863" y="785" type="line"/>
      <point x="915" y="810"/>
      <point x="1015" y="884"/>
    </contour>
    <contour>
      <point x="355" y="-34" type="curve" smooth="yes"/>
      <point x="464" y="-34"/>
      <point x="707" y="53"/>
      <point x="828" y="139" type="curve"/>
      <point x="810" y="217" type="line"/>
      <point x="754" y="191"/>
      <point x="620" y="132"/>
      <point x="482" y="132" type="curve" smooth="yes"/>
      <point x="390" y="132"/>
      <point x="335" y="168"/>
      <point x="335" y="233" type="curve" smooth="yes"/>
      <point x="335" y="338"/>
      <point x="447" y="410"/>
      <point x="547" y="466" type="curve"/>
      <point x="392" y="461" type="line"/>
      <point x="254" y="401"/>
      <point x="99" y="275"/>
      <point x="99" y="127" type="curve" smooth="yes"/>
      <point x="99" y="33"/>
      <point x="186" y="-34"/>
    </contour>
    <contour>
      <point x="171" y="-300" type="curve"/>
      <point x="364" y="-210"/>
      <point x="647" y="-19"/>
      <point x="828" y="139" type="curve"/>
      <point x="578" y="134" type="line"/>
      <point x="442" y="1"/>
      <point x="316" y="-100"/>
      <point x="122" y="-219" type="curve"/>
      <point x="122" y="-238"/>
      <point x="155" y="-293"/>
    </contour>
  </outline>
</glyph>
<glyph name="yan-limb" format="2">
  <advance width="1260"/>
  <unicode hex="190A"/>
  <anchor x="937" y="1050" name="K"/>
  <anchor x="559" y="-100" name="L"/>
  <anchor x="927" y="1050" name="O"/>
  <anchor x="932" y="1050" name="U"/>
  <anchor x="999" y="50" name="V"/>
  <outline>
    <contour>
      <point x="530" y="970" type="line"/>
      <point x="496" y="952"/>
      <point x="406" y="903"/>
      <point x="361" y="855" type="curve"/>
      <point x="379" y="805" type="line"/>
      <point x="1246" y="805" type="line"/>
      <point x="1298" y="830"/>
      <point x="1390" y="884"/>
      <point x="1432" y="920" type="curve"/>
      <point x="1417" y="970" type="line"/>
    </contour>
    <contour>
      <point x="787" y="655" type="curve" smooth="yes"/>
      <point x="501" y="655"/>
      <point x="172" y="416"/>
      <point x="172" y="156" type="curve" smooth="yes"/>
      <point x="172" y="55"/>
      <point x="231" y="-34"/>
      <point x="365" y="-34" type="curve" smooth="yes"/>
      <point x="567" y="-34"/>
      <point x="787" y="178"/>
      <point x="854" y="384" type="curve" smooth="yes"/>
      <point x="992" y="808"/>
      <point x="1031" y="930"/>
      <point x="1031" y="930" type="curve"/>
      <point x="800" y="865" type="line"/>
      <point x="800" y="865"/>
      <point x="632" y="349"/>
      <point x="604" y="264" type="curve" smooth="yes"/>
      <point x="569" y="156"/>
      <point x="531" y="131"/>
      <point x="472" y="131" type="curve" smooth="yes"/>
      <point x="411" y="131"/>
      <point x="376" y="182"/>
      <point x="376" y="255" type="curve" smooth="yes"/>
      <point x="376" y="370"/>
      <point x="454" y="494"/>
      <point x="592" y="494" type="curve" smooth="yes"/>
      <point x="686" y="494"/>
      <point x="870" y="489"/>
      <point x="999" y="-34" type="curve"/>
      <point x="1050" y="-6"/>
      <point x="1079" y="18"/>
      <point x="1096" y="38" type="curve"/>
      <point x="1073" y="465"/>
      <point x="966" y="655"/>
    </contour>
    <contour>
      <point x="1296" y="561" type="curve"/>
      <point x="1282" y="577"/>
      <point x="1227" y="630"/>
      <point x="1205" y="644" type="curve"/>
      <point x="1096" y="451"/>
      <point x="897" y="181"/>
      <point x="728" y="30" type="curve"/>
      <point x="730" y="17"/>
      <point x="766" y="-31"/>
      <point x="775" y="-34" type="curve"/>
      <point x="962" y="110"/>
      <point x="1178" y="382"/>
    </contour>
  </outline>
</glyph>
<glyph name="ta-limb" format="2">
  <advance width="875"/>
  <unicode hex="190B"/>
  <anchor x="758" y="1050" name="K"/>
  <anchor x="371" y="-100" name="L"/>
  <anchor x="974" y="1050" name="O"/>
  <anchor x="758" y="1050" name="U"/>
  <anchor x="721" y="50" name="V"/>
  <outline>
    <contour>
      <point x="677" y="621" type="curve"/>
      <point x="512" y="621" type="line"/>
      <point x="467" y="601"/>
      <point x="367" y="522"/>
      <point x="340" y="494" type="curve"/>
      <point x="346" y="451" type="line"/>
      <point x="377" y="451"/>
      <point x="549" y="451"/>
      <point x="579" y="451" type="curve" smooth="yes"/>
      <point x="665" y="451"/>
      <point x="715" y="406"/>
      <point x="715" y="330" type="curve" smooth="yes"/>
      <point x="715" y="261"/>
      <point x="649" y="116"/>
      <point x="463" y="116" type="curve" smooth="yes"/>
      <point x="341" y="116"/>
      <point x="266" y="179"/>
      <point x="266" y="256" type="curve" smooth="yes"/>
      <point x="266" y="273"/>
      <point x="269" y="290"/>
      <point x="275" y="308" type="curve"/>
      <point x="271" y="313"/>
      <point x="245" y="329"/>
      <point x="236" y="330" type="curve"/>
      <point x="181" y="280"/>
      <point x="103" y="173"/>
      <point x="88" y="129" type="curve" smooth="yes"/>
      <point x="76" y="93"/>
      <point x="131" y="-34"/>
      <point x="367" y="-34" type="curve" smooth="yes"/>
      <point x="629" y="-34"/>
      <point x="936" y="186"/>
      <point x="936" y="440" type="curve" smooth="yes"/>
      <point x="936" y="539"/>
      <point x="882" y="621"/>
    </contour>
    <contour>
      <point x="662" y="616" type="curve"/>
      <point x="805" y="554" type="line"/>
      <point x="961" y="621"/>
      <point x="1030" y="726"/>
      <point x="1030" y="830" type="curve" smooth="yes"/>
      <point x="1030" y="929"/>
      <point x="941" y="995"/>
      <point x="773" y="995" type="curve" smooth="yes"/>
      <point x="620" y="995"/>
      <point x="446" y="914"/>
      <point x="336" y="799" type="curve"/>
      <point x="362" y="759" type="line"/>
      <point x="462" y="821"/>
      <point x="565" y="851"/>
      <point x="673" y="851" type="curve" smooth="yes"/>
      <point x="760" y="851"/>
      <point x="803" y="811"/>
      <point x="803" y="765" type="curve" smooth="yes"/>
      <point x="803" y="705"/>
      <point x="720" y="636"/>
    </contour>
  </outline>
</glyph>
<glyph name="tha-limb" format="2">
  <advance width="1130"/>
  <unicode hex="190C"/>
  <guideline x="752" y="559" angle="71.9323"/>
  <anchor x="977" y="1050" name="K"/>
  <anchor x="513" y="-100" name="L"/>
  <anchor x="970" y="1050" name="O"/>
  <anchor x="887" y="1050" name="U"/>
  <anchor x="912" y="50" name="V"/>
  <outline>
    <contour>
      <point x="485" y="970" type="line"/>
      <point x="452" y="949"/>
      <point x="347" y="865"/>
      <point x="316" y="835" type="curve"/>
      <point x="336" y="785" type="line"/>
      <point x="886" y="785" type="line"/>
      <point x="844" y="843" type="line"/>
      <point x="675" y="324" type="line"/>
      <point x="632" y="193"/>
      <point x="619" y="174"/>
      <point x="607" y="159" type="curve" smooth="yes"/>
      <point x="595" y="144"/>
      <point x="559" y="128"/>
      <point x="525" y="128" type="curve" smooth="yes"/>
      <point x="429" y="128"/>
      <point x="359" y="181"/>
      <point x="359" y="276" type="curve" smooth="yes"/>
      <point x="359" y="433"/>
      <point x="545" y="496"/>
      <point x="720" y="496" type="curve" smooth="yes"/>
      <point x="963" y="496"/>
      <point x="1044" y="412"/>
      <point x="1044" y="311" type="curve" smooth="yes"/>
      <point x="1044" y="201"/>
      <point x="954" y="115"/>
      <point x="864" y="31" type="curve"/>
      <point x="865" y="19"/>
      <point x="910" y="-32"/>
      <point x="916" y="-34" type="curve"/>
      <point x="1094" y="92"/>
      <point x="1202" y="290"/>
      <point x="1202" y="462" type="curve" smooth="yes"/>
      <point x="1202" y="576"/>
      <point x="1127" y="668"/>
      <point x="876" y="668" type="curve" smooth="yes"/>
      <point x="640" y="668"/>
      <point x="530" y="620"/>
      <point x="405" y="551" type="curve" smooth="yes"/>
      <point x="270" y="476"/>
      <point x="160" y="318"/>
      <point x="160" y="187" type="curve" smooth="yes"/>
      <point x="160" y="63"/>
      <point x="251" y="-34"/>
      <point x="422" y="-34" type="curve" smooth="yes"/>
      <point x="621" y="-34"/>
      <point x="832" y="157"/>
      <point x="924" y="414" type="curve"/>
      <point x="1088" y="920" type="line"/>
      <point x="1072" y="970" type="line"/>
    </contour>
  </outline>
</glyph>
<glyph name="da-limb" format="2">
  <advance width="1094"/>
  <unicode hex="190D"/>
  <anchor x="600" y="1050" name="K"/>
  <anchor x="545" y="-100" name="L"/>
  <anchor x="712" y="1050" name="O"/>
  <anchor x="545" y="1050" name="U"/>
  <anchor x="916" y="50" name="V"/>
  <outline>
    <contour>
      <point x="441" y="-34" type="curve" smooth="yes"/>
      <point x="733" y="-34"/>
      <point x="970" y="189"/>
      <point x="1031" y="375" type="curve" smooth="yes"/>
      <point x="1079" y="524"/>
      <point x="1029" y="643"/>
      <point x="813" y="643" type="curve" smooth="yes"/>
      <point x="741" y="643"/>
      <point x="680" y="624"/>
      <point x="619" y="597" type="curve"/>
      <point x="666" y="580" type="line"/>
      <point x="719" y="664"/>
      <point x="796" y="767"/>
      <point x="884" y="842" type="curve"/>
      <point x="716" y="833" type="line"/>
      <point x="612" y="721"/>
      <point x="522" y="603"/>
      <point x="442" y="481" type="curve"/>
      <point x="463" y="436" type="line"/>
      <point x="539" y="478"/>
      <point x="596" y="489"/>
      <point x="673" y="489" type="curve" smooth="yes"/>
      <point x="798" y="489"/>
      <point x="821" y="391"/>
      <point x="789" y="294" type="curve" smooth="yes"/>
      <point x="761" y="208"/>
      <point x="691" y="116"/>
      <point x="564" y="116" type="curve" smooth="yes"/>
      <point x="380" y="116"/>
      <point x="273" y="261"/>
      <point x="301" y="348" type="curve" smooth="yes"/>
      <point x="311" y="378"/>
      <point x="324" y="406"/>
      <point x="345" y="438" type="curve"/>
      <point x="334" y="449"/>
      <point x="324" y="460"/>
      <point x="311" y="464" type="curve"/>
      <point x="220" y="404"/>
      <point x="107" y="267"/>
      <point x="96" y="234" type="curve" smooth="yes"/>
      <point x="64" y="135"/>
      <point x="106" y="-34"/>
    </contour>
    <contour>
      <point x="1103" y="822" type="curve" smooth="yes"/>
      <point x="1132" y="846"/>
      <point x="1167" y="872"/>
      <point x="1222" y="974" type="curve"/>
      <point x="1185" y="1000" type="line"/>
      <point x="1053" y="912"/>
      <point x="913" y="890"/>
      <point x="797" y="890" type="curve" smooth="yes"/>
      <point x="695" y="890"/>
      <point x="564" y="927"/>
      <point x="524" y="994" type="curve"/>
      <point x="475" y="1000" type="line"/>
      <point x="423" y="972"/>
      <point x="357" y="907"/>
      <point x="316" y="861" type="curve"/>
      <point x="304" y="812"/>
      <point x="546" y="716"/>
      <point x="668" y="716" type="curve" smooth="yes"/>
      <point x="822" y="716"/>
      <point x="1045" y="774"/>
    </contour>
  </outline>
</glyph>
<glyph name="dha-limb" format="2">
  <advance width="1017"/>
  <unicode hex="190E"/>
  <anchor x="881" y="1050" name="K"/>
  <anchor x="517" y="-100" name="L"/>
  <anchor x="1007" y="1050" name="O"/>
  <anchor x="863" y="1050" name="U"/>
  <anchor x="855" y="50" name="V"/>
  <outline>
    <contour>
      <point x="458" y="970" type="line"/>
      <point x="401" y="935"/>
      <point x="336" y="882"/>
      <point x="289" y="835" type="curve"/>
      <point x="308" y="785" type="line"/>
      <point x="822" y="785" type="line"/>
      <point x="874" y="810"/>
      <point x="941" y="864"/>
      <point x="1008" y="920" type="curve"/>
      <point x="985" y="970" type="line"/>
    </contour>
    <contour>
      <point x="703" y="900" type="line"/>
      <point x="559" y="869"/>
      <point x="371" y="763"/>
      <point x="327" y="627" type="curve" smooth="yes"/>
      <point x="282" y="488"/>
      <point x="363" y="410"/>
      <point x="453" y="410" type="curve" smooth="yes"/>
      <point x="546" y="410"/>
      <point x="621" y="392"/>
      <point x="794" y="527" type="curve"/>
      <point x="775" y="580" type="line"/>
      <point x="709" y="564"/>
      <point x="708" y="564"/>
      <point x="660" y="564" type="curve" smooth="yes"/>
      <point x="589" y="564"/>
      <point x="507" y="584"/>
      <point x="548" y="707" type="curve" smooth="yes"/>
      <point x="567" y="761"/>
      <point x="614" y="817"/>
      <point x="717" y="885" type="curve"/>
    </contour>
    <contour>
      <point x="531" y="485" type="line"/>
      <point x="360" y="401"/>
      <point x="248" y="311"/>
      <point x="207" y="187" type="curve" smooth="yes"/>
      <point x="165" y="57"/>
      <point x="236" y="-34"/>
      <point x="423" y="-34" type="curve" smooth="yes"/>
      <point x="730" y="-34"/>
      <point x="1052" y="206"/>
      <point x="1097" y="491" type="curve" smooth="yes"/>
      <point x="1121" y="637"/>
      <point x="1092" y="789"/>
      <point x="1134" y="835" type="curve"/>
      <point x="1170" y="842"/>
      <point x="1250" y="876"/>
      <point x="1284" y="918" type="curve" smooth="yes"/>
      <point x="1287" y="922"/>
      <point x="1273" y="970"/>
      <point x="1271" y="970" type="curve"/>
      <point x="1214" y="950"/>
      <point x="1063" y="913"/>
      <point x="995" y="854" type="curve" smooth="yes"/>
      <point x="844" y="722"/>
      <point x="903" y="595"/>
      <point x="871" y="405" type="curve" smooth="yes"/>
      <point x="830" y="165"/>
      <point x="683" y="126"/>
      <point x="603" y="126" type="curve" smooth="yes"/>
      <point x="463" y="126"/>
      <point x="416" y="175"/>
      <point x="442" y="258" type="curve" smooth="yes"/>
      <point x="481" y="382"/>
      <point x="608" y="449"/>
      <point x="655" y="480" type="curve"/>
    </contour>
  </outline>
</glyph>
<glyph name="na-limb" format="2">
  <advance width="1035"/>
  <unicode hex="190F"/>
  <anchor x="515" y="1050" name="K"/>
  <anchor x="480" y="-100" name="L"/>
  <anchor x="778" y="1050" name="O"/>
  <anchor x="497" y="1050" name="U"/>
  <anchor x="920" y="50" name="V"/>
  <outline>
    <component base="ka-limb"/>
    <contour>
      <point x="441" y="420" type="line"/>
      <point x="463" y="390" type="line"/>
      <point x="915" y="390" type="line"/>
      <point x="941" y="413"/>
      <point x="1017" y="481"/>
      <point x="1032" y="506" type="curve"/>
      <point x="988" y="555" type="line"/>
      <point x="605" y="555" type="line"/>
    </contour>
  </outline>
</glyph>
<glyph name="pa-limb" format="2">
  <advance width="1394"/>
  <unicode hex="1910"/>
  <anchor x="720" y="1050" name="K"/>
  <anchor x="697" y="-100" name="L"/>
  <anchor x="960" y="1050" name="O"/>
  <anchor x="697" y="1050" name="U"/>
  <anchor x="1207" y="50" name="V"/>
  <outline>
    <contour>
      <point x="710" y="1000" type="curve"/>
      <point x="463" y="916"/>
      <point x="248" y="695"/>
      <point x="159" y="420" type="curve" smooth="yes"/>
      <point x="59" y="114"/>
      <point x="149" y="-34"/>
      <point x="304" y="-34" type="curve" smooth="yes"/>
      <point x="424" y="-34"/>
      <point x="551" y="31"/>
      <point x="683" y="179" type="curve"/>
      <point x="599" y="174" type="line"/>
      <point x="600" y="44"/>
      <point x="675" y="-34"/>
      <point x="787" y="-34" type="curve" smooth="yes"/>
      <point x="992" y="-34"/>
      <point x="1250" y="199"/>
      <point x="1344" y="488" type="curve" smooth="yes"/>
      <point x="1420" y="721"/>
      <point x="1387" y="943"/>
      <point x="1268" y="1000" type="curve"/>
      <point x="1216" y="982"/>
      <point x="1082" y="914"/>
      <point x="1035" y="874" type="curve"/>
      <point x="1037" y="830" type="line"/>
      <point x="1162" y="790"/>
      <point x="1184" y="619"/>
      <point x="1121" y="425" type="curve" smooth="yes"/>
      <point x="1067" y="258"/>
      <point x="959" y="120"/>
      <point x="872" y="120" type="curve" smooth="yes"/>
      <point x="818" y="120"/>
      <point x="760" y="173"/>
      <point x="792" y="300" type="curve" smooth="yes"/>
      <point x="800" y="334"/>
      <point x="829" y="407"/>
      <point x="851" y="444" type="curve"/>
      <point x="838" y="492" type="line"/>
      <point x="779" y="472"/>
      <point x="662" y="411"/>
      <point x="611" y="368" type="curve"/>
      <point x="606" y="278"/>
      <point x="495" y="120"/>
      <point x="410" y="120" type="curve" smooth="yes"/>
      <point x="316" y="120"/>
      <point x="327" y="317"/>
      <point x="380" y="481" type="curve" smooth="yes"/>
      <point x="446" y="683"/>
      <point x="553" y="849"/>
      <point x="720" y="923" type="curve"/>
      <point x="721" y="945"/>
      <point x="715" y="983"/>
    </contour>
  </outline>
</glyph>
<glyph name="pha-limb" format="2">
  <advance width="1469"/>
  <unicode hex="1911"/>
  <anchor x="1053" y="1050" name="K"/>
  <anchor x="625" y="-100" name="L"/>
  <anchor x="1209" y="1050" name="O"/>
  <anchor x="1026" y="1050" name="U"/>
  <anchor x="1192" y="50" name="V"/>
  <outline>
    <contour>
      <point x="333" y="585" type="line"/>
      <point x="374" y="615"/>
      <point x="448" y="672"/>
      <point x="494" y="721" type="curve"/>
      <point x="527" y="803"/>
      <point x="564" y="830"/>
      <point x="613" y="830" type="curve" smooth="yes"/>
      <point x="672" y="830"/>
      <point x="731" y="769"/>
      <point x="708" y="403" type="curve" smooth="yes"/>
      <point x="693" y="154"/>
      <point x="717" y="-34"/>
      <point x="936" y="-34" type="curve" smooth="yes"/>
      <point x="1179" y="-34"/>
      <point x="1383" y="212"/>
      <point x="1486" y="528" type="curve" smooth="yes"/>
      <point x="1518" y="625"/>
      <point x="1533" y="710"/>
      <point x="1533" y="780" type="curve" smooth="yes"/>
      <point x="1533" y="917"/>
      <point x="1467" y="995"/>
      <point x="1335" y="995" type="curve" smooth="yes"/>
      <point x="1128" y="995"/>
      <point x="994" y="818"/>
      <point x="785" y="537" type="curve" smooth="yes"/>
      <point x="488" y="139"/>
      <point x="411" y="132"/>
      <point x="374" y="132" type="curve" smooth="yes"/>
      <point x="348" y="132"/>
      <point x="316" y="145"/>
      <point x="316" y="211" type="curve" smooth="yes"/>
      <point x="316" y="245"/>
      <point x="335" y="293"/>
      <point x="357" y="360" type="curve"/>
      <point x="352" y="363"/>
      <point x="341" y="370"/>
      <point x="331" y="372" type="curve"/>
      <point x="275" y="340"/>
      <point x="198" y="299"/>
      <point x="165" y="254" type="curve"/>
      <point x="153" y="203"/>
      <point x="148" y="158"/>
      <point x="148" y="120" type="curve" smooth="yes"/>
      <point x="148" y="19"/>
      <point x="199" y="-34"/>
      <point x="309" y="-34" type="curve" smooth="yes"/>
      <point x="509" y="-34"/>
      <point x="691" y="183"/>
      <point x="862" y="415" type="curve" smooth="yes"/>
      <point x="1162" y="820"/>
      <point x="1207" y="830"/>
      <point x="1242" y="830" type="curve" smooth="yes"/>
      <point x="1281" y="830"/>
      <point x="1305" y="782"/>
      <point x="1305" y="696" type="curve" smooth="yes"/>
      <point x="1305" y="627"/>
      <point x="1280" y="535"/>
      <point x="1244" y="424" type="curve" smooth="yes"/>
      <point x="1173" y="204"/>
      <point x="1102" y="130"/>
      <point x="1056" y="130" type="curve" smooth="yes"/>
      <point x="968" y="130"/>
      <point x="929" y="242"/>
      <point x="950" y="562" type="curve" smooth="yes"/>
      <point x="970" y="869"/>
      <point x="932" y="995"/>
      <point x="770" y="995" type="curve" smooth="yes"/>
      <point x="626" y="995"/>
      <point x="425" y="869"/>
      <point x="296" y="633" type="curve"/>
    </contour>
  </outline>
</glyph>
<glyph name="ba-limb" format="2">
  <advance width="1061"/>
  <unicode hex="1912"/>
  <anchor x="892" y="945" name="K"/>
  <anchor x="518" y="-90" name="L"/>
  <anchor x="1074" y="945" name="O"/>
  <anchor x="854" y="945" name="U"/>
  <anchor x="932" y="45" name="V"/>
  <outline>
    <contour>
      <point x="454" y="873" type="line"/>
      <point x="401" y="846"/>
      <point x="334" y="793"/>
      <point x="289" y="752" type="curve"/>
      <point x="310" y="707" type="line"/>
      <point x="1121" y="707" type="line"/>
      <point x="1180" y="738"/>
      <point x="1259" y="787"/>
      <point x="1303" y="828" type="curve"/>
      <point x="1286" y="873" type="line"/>
    </contour>
    <contour>
      <point x="775" y="796" type="line"/>
      <point x="516" y="745"/>
      <point x="271" y="544"/>
      <point x="205" y="339" type="curve" smooth="yes"/>
      <point x="123" y="89"/>
      <point x="275" y="-31"/>
      <point x="526" y="-31" type="curve" smooth="yes"/>
      <point x="814" y="-31"/>
      <point x="1049" y="147"/>
      <point x="1101" y="305" type="curve" smooth="yes"/>
      <point x="1129" y="393"/>
      <point x="1106" y="491"/>
      <point x="958" y="491" type="curve" smooth="yes"/>
      <point x="797" y="491"/>
      <point x="605" y="362"/>
      <point x="566" y="240" type="curve" smooth="yes"/>
      <point x="548" y="186"/>
      <point x="561" y="133"/>
      <point x="620" y="95" type="curve"/>
      <point x="771" y="112"/>
      <point x="779" y="106"/>
      <point x="864" y="162" type="curve"/>
      <point x="735" y="162"/>
      <point x="716" y="203"/>
      <point x="747" y="291" type="curve" smooth="yes"/>
      <point x="764" y="338"/>
      <point x="815" y="369"/>
      <point x="859" y="369" type="curve" smooth="yes"/>
      <point x="903" y="369"/>
      <point x="941" y="338"/>
      <point x="910" y="245" type="curve" smooth="yes"/>
      <point x="897" y="203"/>
      <point x="818" y="125"/>
      <point x="713" y="125" type="curve" smooth="yes"/>
      <point x="547" y="125"/>
      <point x="378" y="180"/>
      <point x="440" y="383" type="curve"/>
      <point x="499" y="571"/>
      <point x="678" y="727"/>
      <point x="896" y="785" type="curve"/>
    </contour>
  </outline>
</glyph>
<glyph name="bha-limb" format="2">
  <advance width="1157"/>
  <unicode hex="1913"/>
  <anchor x="917" y="1050" name="K"/>
  <anchor x="517" y="-100" name="L"/>
  <anchor x="1261" y="1050" name="O"/>
  <anchor x="891" y="1050" name="U"/>
  <anchor x="989" y="50" name="V"/>
  <outline>
    <contour>
      <point x="1128" y="836" type="curve"/>
      <point x="1033" y="550"/>
      <point x="928" y="261"/>
      <point x="853" y="-3" type="curve"/>
      <point x="855" y="-6"/>
      <point x="893" y="-34"/>
      <point x="896" y="-34" type="curve"/>
      <point x="925" y="-26"/>
      <point x="1094" y="66"/>
      <point x="1116" y="97" type="curve"/>
      <point x="1173" y="315"/>
      <point x="1268" y="616"/>
      <point x="1390" y="960" type="curve"/>
      <point x="1372" y="1000" type="line"/>
      <point x="1334" y="978"/>
      <point x="1181" y="895"/>
    </contour>
    <contour>
      <point x="1182" y="473" type="line"/>
      <point x="1057" y="379"/>
      <point x="920" y="365"/>
      <point x="859" y="366" type="curve" smooth="yes"/>
      <point x="785" y="367"/>
      <point x="726" y="380"/>
      <point x="767" y="506" type="curve" smooth="yes"/>
      <point x="815" y="651"/>
      <point x="962" y="679"/>
      <point x="1010" y="827" type="curve" smooth="yes"/>
      <point x="1044" y="931"/>
      <point x="1003" y="995"/>
      <point x="822" y="995" type="curve" smooth="yes"/>
      <point x="549" y="995"/>
      <point x="286" y="741"/>
      <point x="213" y="514" type="curve" smooth="yes"/>
      <point x="149" y="314"/>
      <point x="235" y="230"/>
      <point x="382" y="230" type="curve" smooth="yes"/>
      <point x="532" y="230"/>
      <point x="648" y="326"/>
      <point x="696" y="379" type="curve"/>
      <point x="696" y="396"/>
      <point x="687" y="429"/>
      <point x="654" y="442" type="curve"/>
      <point x="619" y="445"/>
      <point x="621" y="366"/>
      <point x="517" y="366" type="curve" smooth="yes"/>
      <point x="445" y="366"/>
      <point x="405" y="414"/>
      <point x="453" y="559" type="curve" smooth="yes"/>
      <point x="501" y="709"/>
      <point x="634" y="878"/>
      <point x="735" y="878" type="curve" smooth="yes"/>
      <point x="784" y="878"/>
      <point x="800" y="858"/>
      <point x="777" y="787" type="curve" smooth="yes"/>
      <point x="721" y="615"/>
      <point x="602" y="622"/>
      <point x="539" y="430" type="curve" smooth="yes"/>
      <point x="499" y="306"/>
      <point x="593" y="230"/>
      <point x="731" y="230" type="curve" smooth="yes"/>
      <point x="880" y="230"/>
      <point x="1041" y="291"/>
      <point x="1167" y="372" type="curve"/>
    </contour>
  </outline>
</glyph>
<glyph name="ma-limb" format="2">
  <advance width="1147"/>
  <unicode hex="1914"/>
  <anchor x="901" y="1050" name="K"/>
  <anchor x="507" y="-100" name="L"/>
  <anchor x="1222" y="1050" name="O"/>
  <anchor x="881" y="1050" name="U"/>
  <anchor x="948" y="50" name="V"/>
  <outline>
    <contour>
      <point x="1053" y="886" type="curve"/>
      <point x="868" y="882" type="line"/>
      <point x="688" y="764"/>
      <point x="318" y="445"/>
      <point x="172" y="277" type="curve"/>
      <point x="191" y="237" type="line"/>
      <point x="355" y="238"/>
      <point x="677" y="118"/>
      <point x="844" y="-34" type="curve"/>
      <point x="885" y="-16"/>
      <point x="1005" y="69"/>
      <point x="1026" y="100" type="curve"/>
      <point x="1084" y="318"/>
      <point x="1165" y="577"/>
      <point x="1286" y="920" type="curve"/>
      <point x="1271" y="970" type="line"/>
      <point x="529" y="970" type="line"/>
      <point x="496" y="949"/>
      <point x="389" y="865"/>
      <point x="359" y="835" type="curve"/>
      <point x="379" y="785" type="line"/>
      <point x="1023" y="785" type="line"/>
      <point x="917" y="474"/>
      <point x="859" y="312"/>
      <point x="818" y="146" type="curve"/>
      <point x="978" y="198" type="line"/>
      <point x="846" y="295"/>
      <point x="632" y="382"/>
      <point x="442" y="401" type="curve"/>
      <point x="438" y="332" type="line"/>
      <point x="559" y="479"/>
      <point x="828" y="729"/>
    </contour>
  </outline>
</glyph>
<glyph name="ya-limb" format="2">
  <advance width="896"/>
  <unicode hex="1915"/>
  <anchor x="750" y="945" name="K"/>
  <anchor x="405" y="-90" name="L"/>
  <anchor x="975" y="945" name="O"/>
  <anchor x="741" y="945" name="U"/>
  <anchor x="831" y="45" name="V"/>
  <outline>
    <contour>
      <point x="459" y="873" type="line"/>
      <point x="426" y="854"/>
      <point x="319" y="779"/>
      <point x="289" y="752" type="curve"/>
      <point x="311" y="707" type="line"/>
      <point x="770" y="707" type="line"/>
      <point x="822" y="788" type="line"/>
      <point x="690" y="693"/>
      <point x="583" y="618"/>
      <point x="466" y="519" type="curve"/>
      <point x="487" y="476" type="line"/>
      <point x="537" y="497"/>
      <point x="572" y="504"/>
      <point x="613" y="504" type="curve" smooth="yes"/>
      <point x="736" y="504"/>
      <point x="788" y="405"/>
      <point x="757" y="311" type="curve" smooth="yes"/>
      <point x="706" y="155"/>
      <point x="586" y="110"/>
      <point x="479" y="110" type="curve" smooth="yes"/>
      <point x="328" y="110"/>
      <point x="274" y="202"/>
      <point x="291" y="252" type="curve" smooth="yes"/>
      <point x="299" y="279"/>
      <point x="324" y="300"/>
      <point x="357" y="300" type="curve" smooth="yes"/>
      <point x="565" y="300"/>
      <point x="538" y="-31"/>
      <point x="775" y="-31" type="curve"/>
      <point x="799" y="-11"/>
      <point x="871" y="68"/>
      <point x="888" y="95" type="curve"/>
      <point x="652" y="134"/>
      <point x="757" y="419"/>
      <point x="455" y="419" type="curve" smooth="yes"/>
      <point x="291" y="419"/>
      <point x="147" y="296"/>
      <point x="115" y="198" type="curve" smooth="yes"/>
      <point x="82" y="97"/>
      <point x="121" y="-31"/>
      <point x="352" y="-31" type="curve" smooth="yes"/>
      <point x="679" y="-31"/>
      <point x="931" y="273"/>
      <point x="967" y="384" type="curve" smooth="yes"/>
      <point x="1013" y="526"/>
      <point x="956" y="625"/>
      <point x="792" y="625" type="curve" smooth="yes"/>
      <point x="749" y="625"/>
      <point x="719" y="627"/>
      <point x="640" y="593" type="curve"/>
      <point x="712" y="589" type="line"/>
      <point x="825" y="677"/>
      <point x="927" y="738"/>
      <point x="1066" y="828" type="curve"/>
      <point x="1049" y="873" type="line"/>
    </contour>
  </outline>
</glyph>
<glyph name="ra-limb" format="2">
  <advance width="986"/>
  <unicode hex="1916"/>
  <anchor x="804" y="945" name="K"/>
  <anchor x="452" y="-90" name="L"/>
  <anchor x="1026" y="945" name="O"/>
  <anchor x="789" y="945" name="U"/>
  <anchor x="835" y="45" name="V"/>
  <outline>
    <contour>
      <point x="447" y="873" type="line"/>
      <point x="389" y="838"/>
      <point x="318" y="783"/>
      <point x="281" y="752" type="curve"/>
      <point x="303" y="707" type="line"/>
      <point x="878" y="707" type="line"/>
      <point x="897" y="764" type="line"/>
      <point x="563" y="563"/>
      <point x="251" y="266"/>
      <point x="40" y="12" type="curve"/>
      <point x="64" y="-31" type="line"/>
      <point x="104" y="-23"/>
      <point x="248" y="14"/>
      <point x="284" y="31" type="curve"/>
      <point x="496" y="323"/>
      <point x="780" y="552"/>
      <point x="1174" y="828" type="curve"/>
      <point x="1158" y="873" type="line"/>
    </contour>
    <contour>
      <point x="527" y="328" type="line"/>
      <point x="551" y="346"/>
      <point x="558" y="352"/>
      <point x="578" y="352" type="curve" smooth="yes"/>
      <point x="681" y="352"/>
      <point x="729" y="10"/>
      <point x="783" y="-31" type="curve"/>
      <point x="841" y="-13"/>
      <point x="964" y="72"/>
      <point x="1015" y="121" type="curve"/>
      <point x="950" y="205"/>
      <point x="852" y="504"/>
      <point x="756" y="504" type="curve" smooth="yes"/>
      <point x="744" y="504"/>
      <point x="718" y="495"/>
      <point x="704" y="482" type="curve" smooth="yes"/>
    </contour>
  </outline>
</glyph>
<glyph name="la-limb" format="2">
  <advance width="1167"/>
  <unicode hex="1917"/>
  <anchor x="594" y="1050" name="K"/>
  <anchor x="557" y="-100" name="L"/>
  <anchor x="946" y="1050" name="O"/>
  <anchor x="557" y="1050" name="U"/>
  <anchor x="1006" y="50" name="V"/>
  <outline>
    <contour>
      <point x="211" y="1000" type="curve"/>
      <point x="182" y="979"/>
      <point x="89" y="920"/>
      <point x="66" y="889" type="curve"/>
      <point x="56" y="838"/>
      <point x="50" y="781"/>
      <point x="50" y="730" type="curve" smooth="yes"/>
      <point x="50" y="396"/>
      <point x="283" y="320"/>
      <point x="401" y="320" type="curve" smooth="yes"/>
      <point x="576" y="320"/>
      <point x="700" y="403"/>
      <point x="778" y="506" type="curve"/>
      <point x="778" y="517"/>
      <point x="763" y="545"/>
      <point x="755" y="559" type="curve"/>
      <point x="700" y="524"/>
      <point x="612" y="497"/>
      <point x="511" y="497" type="curve" smooth="yes"/>
      <point x="278" y="497"/>
      <point x="203" y="662"/>
      <point x="251" y="815" type="curve"/>
      <point x="216" y="739" type="line"/>
      <point x="258" y="705"/>
      <point x="365" y="662"/>
      <point x="511" y="662" type="curve" smooth="yes"/>
      <point x="660" y="662"/>
      <point x="771" y="701"/>
      <point x="920" y="824" type="curve"/>
      <point x="833" y="875" type="line"/>
      <point x="831" y="578"/>
      <point x="820" y="274"/>
      <point x="833" y="-3" type="curve"/>
      <point x="849" y="-14"/>
      <point x="872" y="-27"/>
      <point x="890" y="-34" type="curve"/>
      <point x="934" y="-18"/>
      <point x="1074" y="66"/>
      <point x="1086" y="97" type="curve"/>
      <point x="1072" y="345"/>
      <point x="1070" y="616"/>
      <point x="1081" y="960" type="curve"/>
      <point x="1046" y="1000" type="line"/>
      <point x="892" y="907"/>
      <point x="757" y="854"/>
      <point x="571" y="854" type="curve" smooth="yes"/>
      <point x="419" y="854"/>
      <point x="327" y="901"/>
    </contour>
  </outline>
</glyph>
<glyph name="wa-limb" format="2">
  <advance width="1109"/>
  <unicode hex="1918"/>
  <anchor x="952" y="1050" name="K"/>
  <anchor x="489" y="-100" name="L"/>
  <anchor x="1179" y="1050" name="O"/>
  <anchor x="863" y="1050" name="U"/>
  <anchor x="908" y="50" name="V"/>
  <outline>
    <contour>
      <point x="1045" y="836" type="curve"/>
      <point x="940" y="550"/>
      <point x="836" y="261"/>
      <point x="757" y="-3" type="curve"/>
      <point x="757" y="-3"/>
      <point x="799" y="-34"/>
      <point x="802" y="-34" type="curve"/>
      <point x="832" y="-26"/>
      <point x="1011" y="66"/>
      <point x="1033" y="97" type="curve"/>
      <point x="1104" y="345"/>
      <point x="1193" y="615"/>
      <point x="1320" y="959" type="curve"/>
      <point x="1301" y="1000" type="line"/>
      <point x="1263" y="980"/>
      <point x="1102" y="895"/>
    </contour>
    <contour>
      <point x="573" y="214" type="curve" smooth="yes"/>
      <point x="809" y="214"/>
      <point x="978" y="406"/>
      <point x="1014" y="413" type="curve"/>
      <point x="1047" y="566" type="line"/>
      <point x="998" y="513"/>
      <point x="835" y="384"/>
      <point x="738" y="384" type="curve" smooth="yes"/>
      <point x="707" y="384"/>
      <point x="653" y="392"/>
      <point x="653" y="465" type="curve" smooth="yes"/>
      <point x="653" y="539"/>
      <point x="800" y="890"/>
      <point x="831" y="960" type="curve"/>
      <point x="821" y="1000" type="line"/>
      <point x="771" y="976"/>
      <point x="622" y="899"/>
      <point x="570" y="853" type="curve"/>
      <point x="407" y="621"/>
      <point x="295" y="463"/>
      <point x="87" y="229" type="curve"/>
      <point x="112" y="196" type="line"/>
      <point x="162" y="213"/>
      <point x="258" y="267"/>
      <point x="303" y="307" type="curve"/>
      <point x="383" y="420"/>
      <point x="536" y="639"/>
      <point x="601" y="734" type="curve"/>
      <point x="590" y="777" type="line"/>
      <point x="544" y="662"/>
      <point x="422" y="465"/>
      <point x="422" y="341" type="curve" smooth="yes"/>
      <point x="422" y="265"/>
      <point x="466" y="214"/>
    </contour>
  </outline>
</glyph>
<glyph name="sha-limb" format="2">
  <advance width="1022"/>
  <unicode hex="1919"/>
  <anchor x="852" y="1050" name="K"/>
  <anchor x="490" y="-100" name="L"/>
  <anchor x="987" y="1050" name="O"/>
  <anchor x="888" y="1050" name="U"/>
  <anchor x="653" y="50" name="V"/>
  <outline>
    <contour>
      <point x="925" y="970" type="line"/>
      <point x="892" y="949"/>
      <point x="847" y="905"/>
      <point x="816" y="875" type="curve"/>
      <point x="814" y="785" type="line"/>
      <point x="1133" y="785" type="line"/>
      <point x="1198" y="819"/>
      <point x="1257" y="853"/>
      <point x="1317" y="910" type="curve"/>
      <point x="1295" y="970" type="line"/>
    </contour>
    <contour>
      <point x="887" y="409" type="curve" smooth="yes"/>
      <point x="914" y="488"/>
      <point x="1005" y="787"/>
      <point x="1051" y="928" type="curve"/>
      <point x="816" y="875" type="line"/>
      <point x="781" y="769"/>
      <point x="707" y="523"/>
      <point x="674" y="421" type="curve" smooth="yes"/>
      <point x="601" y="195"/>
      <point x="541" y="103"/>
      <point x="469" y="103" type="curve" smooth="yes"/>
      <point x="419" y="103"/>
      <point x="392" y="122"/>
      <point x="376" y="147" type="curve" smooth="yes"/>
      <point x="356" y="178"/>
      <point x="375" y="243"/>
      <point x="398" y="313" type="curve" smooth="yes"/>
      <point x="451" y="476"/>
      <point x="556" y="798"/>
      <point x="613" y="960" type="curve"/>
      <point x="588" y="1000" type="line"/>
      <point x="490" y="956"/>
      <point x="431" y="918"/>
      <point x="354" y="868" type="curve"/>
      <point x="291" y="662"/>
      <point x="208" y="407"/>
      <point x="185" y="337" type="curve" smooth="yes"/>
      <point x="131" y="169"/>
      <point x="134" y="86"/>
      <point x="174" y="33" type="curve" smooth="yes"/>
      <point x="207" y="-12"/>
      <point x="256" y="-34"/>
      <point x="361" y="-34" type="curve" smooth="yes"/>
      <point x="547" y="-34"/>
      <point x="798" y="139"/>
    </contour>
  </outline>
</glyph>
<glyph name="ssa-limb" format="2">
  <advance width="824"/>
  <unicode hex="191A"/>
  <anchor x="709" y="1050" name="K"/>
  <anchor x="319" y="-100" name="L"/>
  <anchor x="927" y="1050" name="O"/>
  <anchor x="692" y="1050" name="U"/>
  <anchor x="654" y="50" name="V"/>
  <outline>
    <contour>
      <point x="785" y="836" type="curve"/>
      <point x="685" y="550"/>
      <point x="585" y="260"/>
      <point x="510" y="-4" type="curve"/>
      <point x="511" y="-6"/>
      <point x="546" y="-32"/>
      <point x="553" y="-34" type="curve"/>
      <point x="613" y="-11"/>
      <point x="770" y="75"/>
      <point x="781" y="97" type="curve"/>
      <point x="850" y="345"/>
      <point x="935" y="616"/>
      <point x="1055" y="960" type="curve"/>
      <point x="1037" y="1000" type="line"/>
      <point x="999" y="980"/>
      <point x="839" y="895"/>
    </contour>
    <contour>
      <point x="198" y="457" type="curve" smooth="yes"/>
      <point x="198" y="300"/>
      <point x="307" y="238"/>
      <point x="406" y="238" type="curve" smooth="yes"/>
      <point x="601" y="238"/>
      <point x="964" y="506"/>
      <point x="964" y="740" type="curve" smooth="yes"/>
      <point x="964" y="886"/>
      <point x="852" y="990"/>
      <point x="723" y="990" type="curve" smooth="yes"/>
      <point x="652" y="990"/>
      <point x="588" y="964"/>
      <point x="498" y="901" type="curve" smooth="yes"/>
      <point x="348" y="796"/>
      <point x="198" y="634"/>
    </contour>
    <contour>
      <point x="405" y="521" type="curve" smooth="yes"/>
      <point x="405" y="650"/>
      <point x="540" y="835"/>
      <point x="644" y="835" type="curve" smooth="yes"/>
      <point x="708" y="835"/>
      <point x="734" y="776"/>
      <point x="734" y="711" type="curve" smooth="yes"/>
      <point x="734" y="571"/>
      <point x="641" y="401"/>
      <point x="508" y="401" type="curve" smooth="yes"/>
      <point x="421" y="401"/>
      <point x="405" y="458"/>
    </contour>
  </outline>
</glyph>
<glyph name="sa-limb" format="2">
  <advance width="1145"/>
  <unicode hex="191B"/>
  <anchor x="894" y="945" name="K"/>
  <anchor x="504" y="-90" name="L"/>
  <anchor x="1183" y="945" name="O"/>
  <anchor x="876" y="945" name="U"/>
  <anchor x="944" y="45" name="V"/>
  <outline>
    <contour>
      <point x="1100" y="87" type="curve"/>
      <point x="1173" y="346"/>
      <point x="1211" y="452"/>
      <point x="1285" y="679" type="curve" smooth="yes"/>
      <point x="1341" y="847"/>
      <point x="1322" y="882"/>
      <point x="1226" y="882" type="curve" smooth="yes"/>
      <point x="1093" y="882"/>
      <point x="821" y="873"/>
      <point x="693" y="888" type="curve"/>
      <point x="640" y="847" type="line"/>
      <point x="708" y="721" type="line"/>
      <point x="829" y="708"/>
      <point x="909" y="716"/>
      <point x="1004" y="713" type="curve" smooth="yes"/>
      <point x="1061" y="711"/>
      <point x="1068" y="671"/>
      <point x="1032" y="571" type="curve"/>
      <point x="964" y="376"/>
      <point x="894" y="176"/>
      <point x="843" y="-3" type="curve"/>
      <point x="844" y="-4"/>
      <point x="880" y="-27"/>
      <point x="886" y="-31" type="curve"/>
      <point x="948" y="-16"/>
      <point x="1075" y="51"/>
    </contour>
    <contour>
      <point x="233" y="579" type="curve" smooth="yes"/>
      <point x="178" y="409"/>
      <point x="240" y="250"/>
      <point x="434" y="250" type="curve" smooth="yes"/>
      <point x="586" y="250"/>
      <point x="777" y="355"/>
      <point x="846" y="569" type="curve" smooth="yes"/>
      <point x="907" y="756"/>
      <point x="862" y="891"/>
      <point x="648" y="891" type="curve" smooth="yes"/>
      <point x="600" y="891"/>
      <point x="516" y="864"/>
      <point x="443" y="824" type="curve" smooth="yes"/>
      <point x="301" y="748"/>
      <point x="260" y="662"/>
    </contour>
    <contour>
      <point x="443" y="643" type="curve" smooth="yes"/>
      <point x="476" y="745"/>
      <point x="537" y="769"/>
      <point x="558" y="769" type="curve" smooth="yes"/>
      <point x="655" y="769"/>
      <point x="669" y="613"/>
      <point x="630" y="493" type="curve" smooth="yes"/>
      <point x="594" y="383"/>
      <point x="553" y="370"/>
      <point x="531" y="370" type="curve" smooth="yes"/>
      <point x="461" y="370"/>
      <point x="377" y="440"/>
    </contour>
  </outline>
</glyph>
<glyph name="ha-limb" format="2">
  <advance width="978"/>
  <unicode hex="191C"/>
  <anchor x="878" y="945" name="K"/>
  <anchor x="465" y="-90" name="L"/>
  <anchor x="1121" y="945" name="O"/>
  <anchor x="824" y="945" name="U"/>
  <anchor x="828" y="45" name="V"/>
  <outline>
    <contour>
      <point x="968" y="707" type="line"/>
      <point x="995" y="742"/>
      <point x="1091" y="807"/>
      <point x="1160" y="828" type="curve"/>
      <point x="1142" y="873" type="line"/>
      <point x="709" y="873" type="line"/>
      <point x="676" y="854"/>
      <point x="660" y="821"/>
      <point x="631" y="794" type="curve"/>
      <point x="518" y="707" type="line"/>
    </contour>
    <contour>
      <point x="709" y="873" type="line"/>
      <point x="504" y="811"/>
      <point x="249" y="629"/>
      <point x="167" y="374" type="curve" smooth="yes"/>
      <point x="87" y="124"/>
      <point x="237" y="-29"/>
      <point x="478" y="-29" type="curve" smooth="yes"/>
      <point x="650" y="-29"/>
      <point x="806" y="35"/>
      <point x="998" y="178" type="curve"/>
      <point x="980" y="238" type="line"/>
      <point x="848" y="159"/>
      <point x="715" y="120"/>
      <point x="598" y="120" type="curve" smooth="yes"/>
      <point x="421" y="120"/>
      <point x="323" y="242"/>
      <point x="397" y="468" type="curve" smooth="yes"/>
      <point x="475" y="709"/>
      <point x="681" y="823"/>
      <point x="848" y="862" type="curve"/>
    </contour>
    <contour>
      <point x="1058" y="356" type="curve"/>
      <point x="1041" y="392" type="line"/>
      <point x="968" y="419"/>
      <point x="808" y="474"/>
      <point x="713" y="518" type="curve"/>
      <point x="702" y="477" type="line"/>
      <point x="822" y="566"/>
      <point x="1031" y="705"/>
      <point x="1160" y="828" type="curve"/>
      <point x="1050" y="857" type="line"/>
      <point x="895" y="730"/>
      <point x="742" y="622"/>
      <point x="507" y="455" type="curve"/>
      <point x="531" y="382" type="line"/>
      <point x="595" y="341"/>
      <point x="769" y="284"/>
      <point x="891" y="245" type="curve"/>
      <point x="941" y="266"/>
      <point x="1035" y="327"/>
    </contour>
  </outline>
</glyph>
<glyph name="gyan-limb" format="2">
  <advance width="995"/>
  <unicode hex="191D"/>
  <anchor x="925" y="1050" name="K"/>
  <anchor x="543" y="-100" name="L"/>
  <anchor x="1132" y="1050" name="O"/>
  <anchor x="916" y="1050" name="U"/>
  <anchor x="782" y="-19" name="V"/>
  <outline>
    <contour>
      <point x="1053" y="463" type="curve" smooth="yes"/>
      <point x="1103" y="615"/>
      <point x="1013" y="668"/>
      <point x="880" y="668" type="curve" smooth="yes"/>
      <point x="789" y="668"/>
      <point x="675" y="633"/>
      <point x="575" y="599" type="curve"/>
      <point x="538" y="571"/>
      <point x="495" y="495"/>
      <point x="473" y="449" type="curve"/>
      <point x="571" y="500"/>
      <point x="668" y="515"/>
      <point x="727" y="515" type="curve" smooth="yes"/>
      <point x="839" y="515"/>
      <point x="838" y="448"/>
      <point x="809" y="360" type="curve" smooth="yes"/>
      <point x="774" y="252"/>
      <point x="648" y="127"/>
      <point x="485" y="-4" type="curve"/>
      <point x="501" y="-44" type="line"/>
      <point x="559" y="-37"/>
      <point x="673" y="-8"/>
      <point x="756" y="25" type="curve"/>
      <point x="868" y="266"/>
      <point x="1005" y="314"/>
    </contour>
    <contour>
      <point x="485" y="970" type="line"/>
      <point x="451" y="949"/>
      <point x="338" y="865"/>
      <point x="307" y="835" type="curve"/>
      <point x="326" y="785" type="line"/>
      <point x="1080" y="785" type="line"/>
      <point x="1133" y="810"/>
      <point x="1221" y="874"/>
      <point x="1266" y="920" type="curve"/>
      <point x="1251" y="970" type="line"/>
    </contour>
    <contour>
      <point x="536" y="903" type="line"/>
      <point x="489" y="764"/>
      <point x="335" y="295"/>
      <point x="313" y="217" type="curve"/>
      <point x="313" y="217"/>
      <point x="344" y="190"/>
      <point x="355" y="185" type="curve"/>
      <point x="420" y="203"/>
      <point x="527" y="276"/>
      <point x="559" y="317" type="curve"/>
      <point x="602" y="483"/>
      <point x="685" y="738"/>
      <point x="740" y="905" type="curve"/>
    </contour>
  </outline>
</glyph>
<glyph name="tra-limb" format="2">
  <advance width="989"/>
  <unicode hex="191E"/>
  <anchor x="829" y="945" name="K"/>
  <anchor x="484" y="-90" name="L"/>
  <anchor x="1054" y="945" name="O"/>
  <anchor x="820" y="945" name="U"/>
  <anchor x="879" y="45" name="V"/>
  <outline>
    <contour>
      <point x="810" y="364" type="curve" smooth="yes"/>
      <point x="773" y="249"/>
      <point x="705" y="112"/>
      <point x="483" y="112" type="curve" smooth="yes"/>
      <point x="370" y="112"/>
      <point x="302" y="159"/>
      <point x="328" y="239" type="curve" smooth="yes"/>
      <point x="336" y="265"/>
      <point x="373" y="300"/>
      <point x="414" y="300" type="curve" smooth="yes"/>
      <point x="599" y="300"/>
      <point x="593" y="41"/>
      <point x="868" y="-31" type="curve"/>
      <point x="905" y="1"/>
      <point x="959" y="68"/>
      <point x="983" y="104" type="curve"/>
      <point x="765" y="120"/>
      <point x="791" y="419"/>
      <point x="501" y="419" type="curve" smooth="yes"/>
      <point x="322" y="419"/>
      <point x="198" y="291"/>
      <point x="168" y="198" type="curve" smooth="yes"/>
      <point x="125" y="66"/>
      <point x="186" y="-31"/>
      <point x="386" y="-31" type="curve" smooth="yes"/>
      <point x="663" y="-31"/>
      <point x="987" y="272"/>
      <point x="1046" y="452" type="curve" smooth="yes"/>
      <point x="1087" y="578"/>
      <point x="1019" y="619"/>
      <point x="803" y="619" type="curve" smooth="yes"/>
      <point x="783" y="619"/>
      <point x="739" y="619"/>
      <point x="714" y="619" type="curve"/>
      <point x="743" y="708"/>
      <point x="765" y="775"/>
      <point x="777" y="814" type="curve"/>
      <point x="555" y="814" type="line"/>
      <point x="545" y="781"/>
      <point x="472" y="558"/>
      <point x="463" y="529" type="curve"/>
      <point x="466" y="518"/>
      <point x="476" y="507"/>
      <point x="487" y="493" type="curve"/>
      <point x="561" y="493"/>
      <point x="620" y="493"/>
      <point x="681" y="493" type="curve" smooth="yes"/>
      <point x="760" y="493"/>
      <point x="844" y="468"/>
    </contour>
    <contour>
      <point x="454" y="873" type="line"/>
      <point x="421" y="854"/>
      <point x="310" y="779"/>
      <point x="280" y="752" type="curve"/>
      <point x="301" y="707" type="line"/>
      <point x="1019" y="707" type="line"/>
      <point x="1070" y="729"/>
      <point x="1145" y="778"/>
      <point x="1201" y="828" type="curve"/>
      <point x="1184" y="873" type="line"/>
    </contour>
  </outline>
</glyph>
<glyph name="akar-limb" format="2">
  <unicode hex="1920"/>
  <anchor x="-342" y="1285" name="K"/>
  <anchor x="-634" y="1025" name="_U"/>
  <outline>
    <contour>
      <point x="-876" y="1070" type="curve" smooth="yes"/>
      <point x="-310" y="1070" type="line"/>
      <point x="-253" y="1095"/>
      <point x="-152" y="1139"/>
      <point x="-108" y="1175" type="curve"/>
      <point x="-123" y="1225" type="line"/>
      <point x="-748" y="1225" type="line" smooth="yes"/>
      <point x="-785" y="1225"/>
      <point x="-842" y="1234"/>
      <point x="-842" y="1278" type="curve" smooth="yes"/>
      <point x="-842" y="1329"/>
      <point x="-796" y="1380"/>
      <point x="-753" y="1380" type="curve" smooth="yes"/>
      <point x="-735" y="1380"/>
      <point x="-712" y="1364"/>
      <point x="-712" y="1334" type="curve" smooth="yes"/>
      <point x="-712" y="1291"/>
      <point x="-754" y="1227"/>
      <point x="-806" y="1234" type="curve"/>
      <point x="-731" y="1179" type="line"/>
      <point x="-608" y="1200"/>
      <point x="-522" y="1278"/>
      <point x="-522" y="1381" type="curve" smooth="yes"/>
      <point x="-522" y="1476"/>
      <point x="-627" y="1491"/>
      <point x="-688" y="1491" type="curve" smooth="yes"/>
      <point x="-858" y="1491"/>
      <point x="-1016" y="1357"/>
      <point x="-1016" y="1206" type="curve" smooth="yes"/>
      <point x="-1016" y="1134"/>
      <point x="-974" y="1070"/>
    </contour>
  </outline>
</glyph>
<glyph name="ikar-limb" format="2">
  <advance width="500"/>
  <unicode hex="1921"/>
  <anchor x="-263" y="1050" name="K"/>
  <outline>
    <contour>
      <point x="438" y="970" type="line"/>
      <point x="406" y="942"/>
      <point x="271" y="851"/>
      <point x="241" y="830" type="curve"/>
      <point x="261" y="785" type="line"/>
      <point x="596" y="785" type="line"/>
      <point x="648" y="810"/>
      <point x="756" y="883"/>
      <point x="798" y="919" type="curve"/>
      <point x="783" y="970" type="line"/>
    </contour>
    <contour>
      <point x="23" y="1264" type="curve" smooth="yes"/>
      <point x="-4" y="1182"/>
      <point x="20" y="1109"/>
      <point x="96" y="1000" type="curve"/>
      <point x="145" y="1012"/>
      <point x="184" y="1027"/>
      <point x="211" y="1043" type="curve"/>
      <point x="191" y="1106"/>
      <point x="200" y="1157"/>
      <point x="208" y="1182" type="curve" smooth="yes"/>
      <point x="229" y="1249"/>
      <point x="311" y="1274"/>
      <point x="440" y="1274" type="curve" smooth="yes"/>
      <point x="578" y="1274"/>
      <point x="633" y="1246"/>
      <point x="613" y="1182" type="curve" smooth="yes"/>
      <point x="604" y="1154"/>
      <point x="579" y="1088"/>
      <point x="372" y="920" type="curve"/>
      <point x="370" y="919"/>
      <point x="497" y="905"/>
      <point x="532" y="932" type="curve" smooth="yes"/>
      <point x="715" y="1069"/>
      <point x="824" y="1182"/>
      <point x="851" y="1264" type="curve" smooth="yes"/>
      <point x="882" y="1360"/>
      <point x="776" y="1446"/>
      <point x="503" y="1446" type="curve" smooth="yes"/>
      <point x="228" y="1446"/>
      <point x="53" y="1358"/>
    </contour>
  </outline>
</glyph>
<glyph name="ukar-limb" format="2">
  <unicode hex="1922"/>
  <anchor x="-150" y="-15" name="_G"/>
  <anchor x="-100" y="50" name="_V"/>
  <outline>
    <contour>
      <point x="-729" y="-476" type="curve" smooth="yes"/>
      <point x="-262" y="-476"/>
      <point x="-7" y="-166"/>
      <point x="66" y="147" type="curve"/>
      <point x="-178" y="88" type="line"/>
      <point x="-245" y="-132"/>
      <point x="-349" y="-363"/>
      <point x="-609" y="-363" type="curve" smooth="yes"/>
      <point x="-680" y="-363"/>
      <point x="-734" y="-363"/>
      <point x="-734" y="-326" type="curve" smooth="yes"/>
      <point x="-734" y="-279"/>
      <point x="-690" y="-235"/>
      <point x="-654" y="-235" type="curve" smooth="yes"/>
      <point x="-633" y="-235"/>
      <point x="-620" y="-246"/>
      <point x="-620" y="-267" type="curve" smooth="yes"/>
      <point x="-620" y="-301"/>
      <point x="-647" y="-359"/>
      <point x="-700" y="-359" type="curve" smooth="yes"/>
      <point x="-724" y="-359"/>
      <point x="-735" y="-338"/>
      <point x="-736" y="-326" type="curve"/>
      <point x="-736" y="-365"/>
      <point x="-687" y="-388"/>
      <point x="-662" y="-399" type="curve"/>
      <point x="-561" y="-361"/>
      <point x="-463" y="-313"/>
      <point x="-463" y="-202" type="curve" smooth="yes"/>
      <point x="-463" y="-160"/>
      <point x="-493" y="-130"/>
      <point x="-553" y="-130" type="curve" smooth="yes"/>
      <point x="-697" y="-130"/>
      <point x="-883" y="-280"/>
      <point x="-883" y="-381" type="curve" smooth="yes"/>
      <point x="-883" y="-441"/>
      <point x="-836" y="-476"/>
    </contour>
  </outline>
</glyph>
<glyph name="eekar-limb" format="2">
  <advance width="594"/>
  <unicode hex="1923"/>
  <outline>
    <contour>
      <point x="525" y="656" type="curve" smooth="yes"/>
      <point x="438" y="425"/>
      <point x="292" y="243"/>
      <point x="30" y="33" type="curve"/>
      <point x="41" y="10"/>
      <point x="83" y="-34"/>
      <point x="96" y="-42" type="curve"/>
      <point x="372" y="129"/>
      <point x="684" y="473"/>
      <point x="778" y="705" type="curve" smooth="yes"/>
      <point x="804" y="769"/>
      <point x="805" y="797"/>
      <point x="805" y="821" type="curve" smooth="yes"/>
      <point x="805" y="936"/>
      <point x="691" y="967"/>
      <point x="617" y="967" type="curve" smooth="yes"/>
      <point x="430" y="967"/>
      <point x="239" y="812"/>
      <point x="239" y="662" type="curve" smooth="yes"/>
      <point x="239" y="587"/>
      <point x="290" y="549"/>
      <point x="361" y="549" type="curve" smooth="yes"/>
      <point x="430" y="549"/>
      <point x="524" y="578"/>
      <point x="664" y="728" type="curve"/>
      <point x="563" y="769" type="line"/>
      <point x="546" y="708"/>
      <point x="487" y="696"/>
      <point x="471" y="696" type="curve" smooth="yes"/>
      <point x="449" y="696"/>
      <point x="438" y="716"/>
      <point x="438" y="739" type="curve" smooth="yes"/>
      <point x="438" y="785"/>
      <point x="494" y="843"/>
      <point x="531" y="843" type="curve" smooth="yes"/>
      <point x="554" y="843"/>
      <point x="567" y="826"/>
      <point x="567" y="800" type="curve" smooth="yes"/>
      <point x="567" y="772"/>
      <point x="542" y="701"/>
    </contour>
  </outline>
</glyph>
<glyph name="aikar-limb" format="2">
  <advance width="1134"/>
  <unicode hex="1924"/>
  <outline>
    <component base="eekar-limb"/>
    <contour>
      <point x="1086" y="690" type="curve"/>
      <point x="1064" y="594" type="line"/>
      <point x="986" y="434"/>
      <point x="715" y="221"/>
      <point x="400" y="32" type="curve"/>
      <point x="403" y="12"/>
      <point x="422" y="-22"/>
      <point x="435" y="-30" type="curve"/>
      <point x="840" y="178"/>
      <point x="1227" y="452"/>
      <point x="1311" y="710" type="curve" smooth="yes"/>
      <point x="1346" y="820"/>
      <point x="1306" y="887"/>
      <point x="1195" y="887" type="curve" smooth="yes"/>
      <point x="975" y="887"/>
      <point x="803" y="712"/>
      <point x="772" y="617" type="curve" smooth="yes"/>
      <point x="746" y="536"/>
      <point x="766" y="471"/>
      <point x="871" y="471" type="curve" smooth="yes"/>
      <point x="924" y="471"/>
      <point x="1041" y="504"/>
      <point x="1176" y="667" type="curve"/>
      <point x="1086" y="690" type="line"/>
      <point x="1075" y="656"/>
      <point x="1032" y="623"/>
      <point x="1001" y="623" type="curve" smooth="yes"/>
      <point x="967" y="623"/>
      <point x="959" y="647"/>
      <point x="969" y="679" type="curve" smooth="yes"/>
      <point x="984" y="724"/>
      <point x="1029" y="761"/>
      <point x="1056" y="761" type="curve" smooth="yes"/>
      <point x="1089" y="761"/>
      <point x="1103" y="743"/>
    </contour>
  </outline>
</glyph>
<glyph name="ekar-limb" format="2">
  <unicode hex="1927"/>
  <anchor x="140" y="1152" name="K"/>
  <anchor x="37" y="945" name="_O"/>
  <outline>
    <contour>
      <point x="-372" y="1253" type="curve"/>
      <point x="-328" y="1177"/>
      <point x="-166" y="1002"/>
      <point x="-48" y="940" type="curve"/>
      <point x="-13" y="959"/>
      <point x="12" y="977"/>
      <point x="42" y="1003" type="curve"/>
      <point x="-24" y="1106"/>
      <point x="-145" y="1294"/>
      <point x="-173" y="1380" type="curve"/>
      <point x="-248" y="1358"/>
      <point x="-318" y="1309"/>
    </contour>
  </outline>
</glyph>
<glyph name="okar-limb" format="2">
  <unicode hex="1928"/>
  <anchor x="357" y="1514" name="K"/>
  <anchor x="152" y="1050" name="_O"/>
  <outline>
    <contour>
      <point x="-151" y="1205" type="line"/>
      <point x="-90" y="1262"/>
      <point x="-12" y="1313"/>
      <point x="25" y="1313" type="curve" smooth="yes"/>
      <point x="64" y="1313"/>
      <point x="89" y="1162"/>
      <point x="99" y="1021" type="curve"/>
      <point x="140" y="1039"/>
      <point x="191" y="1065"/>
      <point x="234" y="1090" type="curve"/>
      <point x="429" y="1330"/>
      <point x="597" y="1484"/>
      <point x="737" y="1549" type="curve"/>
      <point x="729" y="1613" type="line"/>
      <point x="555" y="1540"/>
      <point x="372" y="1409"/>
      <point x="166" y="1189" type="curve"/>
      <point x="299" y="1182" type="line"/>
      <point x="256" y="1431"/>
      <point x="237" y="1458"/>
      <point x="180" y="1458" type="curve" smooth="yes"/>
      <point x="63" y="1458"/>
      <point x="-86" y="1348"/>
      <point x="-174" y="1260" type="curve"/>
    </contour>
  </outline>
</glyph>
<glyph name="subya-limb" format="2">
  <advance width="523"/>
  <unicode hex="1929"/>
  <anchor x="-122" y="-40" name="G"/>
  <outline>
    <contour>
      <point x="625" y="385" type="line"/>
      <point x="445" y="310"/>
      <point x="303" y="92"/>
      <point x="274" y="92" type="curve" smooth="yes"/>
      <point x="214" y="92"/>
      <point x="340" y="292"/>
      <point x="230" y="288" type="curve" smooth="yes"/>
      <point x="126" y="285"/>
      <point x="-21" y="168"/>
      <point x="-123" y="72" type="curve"/>
      <point x="-89" y="18" type="line"/>
      <point x="-35" y="68"/>
      <point x="56" y="121"/>
      <point x="75" y="121" type="curve" smooth="yes"/>
      <point x="122" y="121"/>
      <point x="-3" y="-94"/>
      <point x="160" y="-94" type="curve" smooth="yes"/>
      <point x="259" y="-94"/>
      <point x="309" y="-32"/>
      <point x="423" y="121" type="curve" smooth="yes"/>
      <point x="504" y="229"/>
      <point x="553" y="283"/>
      <point x="639" y="329" type="curve"/>
    </contour>
  </outline>
</glyph>
<glyph name="subra-limb" format="2">
  <unicode hex="192A"/>
  <outline>
    <contour>
      <point x="-440" y="-283" type="line"/>
      <point x="-355" y="-224"/>
      <point x="-242" y="-145"/>
      <point x="-153" y="-56" type="curve"/>
      <point x="-220" y="-54" type="line"/>
      <point x="-221" y="-136"/>
      <point x="-202" y="-238"/>
      <point x="-109" y="-292" type="curve"/>
      <point x="-65" y="-277"/>
      <point x="4" y="-202"/>
      <point x="21" y="-157" type="curve"/>
      <point x="-23" y="-114"/>
      <point x="-52" y="-45"/>
      <point x="-56" y="49" type="curve"/>
      <point x="-59" y="50"/>
      <point x="-93" y="73"/>
      <point x="-100" y="77" type="curve"/>
      <point x="-236" y="-48"/>
      <point x="-338" y="-139"/>
      <point x="-470" y="-241" type="curve"/>
    </contour>
  </outline>
</glyph>
<glyph name="subwa-limb" format="2">
  <advance width="473"/>
  <unicode hex="192B"/>
  <anchor x="-131" y="-36" name="G"/>
  <outline>
    <contour>
      <point x="225" y="292" type="curve" smooth="yes"/>
      <point x="134" y="290"/>
      <point x="-6" y="191"/>
      <point x="-144" y="41" type="curve"/>
      <point x="-97" y="-3" type="line"/>
      <point x="-19" y="78"/>
      <point x="94" y="175"/>
      <point x="114" y="175" type="curve" smooth="yes"/>
      <point x="127" y="175"/>
      <point x="129" y="170"/>
      <point x="124" y="156" type="curve" smooth="yes"/>
      <point x="117" y="133"/>
      <point x="47" y="51"/>
      <point x="28" y="-8" type="curve" smooth="yes"/>
      <point x="14" y="-50"/>
      <point x="34" y="-80"/>
      <point x="92" y="-80" type="curve" smooth="yes"/>
      <point x="182" y="-80"/>
      <point x="264" y="-33"/>
      <point x="311" y="44" type="curve"/>
      <point x="338" y="169" type="line"/>
      <point x="302" y="77"/>
      <point x="252" y="44"/>
      <point x="235" y="44" type="curve" smooth="yes"/>
      <point x="218" y="44"/>
      <point x="216" y="57"/>
      <point x="220" y="69" type="curve" smooth="yes"/>
      <point x="232" y="109"/>
      <point x="275" y="157"/>
      <point x="294" y="216" type="curve" smooth="yes"/>
      <point x="308" y="258"/>
      <point x="282" y="293"/>
    </contour>
    <contour>
      <point x="427" y="-31" type="curve"/>
      <point x="439" y="42"/>
      <point x="455" y="108"/>
      <point x="512" y="253" type="curve"/>
      <point x="482" y="291" type="line"/>
      <point x="454" y="275"/>
      <point x="373" y="224"/>
      <point x="350" y="205" type="curve"/>
      <point x="304" y="80"/>
      <point x="293" y="32"/>
      <point x="252" y="-123" type="curve"/>
      <point x="252" y="-123"/>
      <point x="293" y="-158"/>
      <point x="293" y="-158" type="curve"/>
      <point x="322" y="-138"/>
      <point x="398" y="-73"/>
    </contour>
  </outline>
</glyph>
<glyph name="smallka-limb" format="2">
  <advance width="926"/>
  <unicode hex="1930"/>
  <anchor x="454" y="-100" name="L"/>
  <outline>
    <contour>
      <point x="-73" y="970" type="line"/>
      <point x="-103" y="949"/>
      <point x="-182" y="860"/>
      <point x="-205" y="830" type="curve"/>
      <point x="-163" y="785" type="line"/>
      <point x="718" y="785" type="line"/>
      <point x="766" y="810"/>
      <point x="801" y="823"/>
      <point x="896" y="919" type="curve"/>
      <point x="861" y="970" type="line"/>
    </contour>
    <contour>
      <point x="433" y="839" type="line"/>
      <point x="266" y="798"/>
      <point x="103" y="681"/>
      <point x="103" y="524" type="curve" smooth="yes"/>
      <point x="103" y="360"/>
      <point x="246" y="287"/>
      <point x="411" y="287" type="curve" smooth="yes"/>
      <point x="571" y="287"/>
      <point x="707" y="385"/>
      <point x="828" y="553" type="curve"/>
      <point x="782" y="625" type="line"/>
      <point x="708" y="535"/>
      <point x="594" y="465"/>
      <point x="509" y="465" type="curve" smooth="yes"/>
      <point x="411" y="465"/>
      <point x="318" y="542"/>
      <point x="318" y="594" type="curve" smooth="yes"/>
      <point x="318" y="721"/>
      <point x="419" y="793"/>
      <point x="592" y="845" type="curve"/>
    </contour>
  </outline>
</glyph>
<glyph name="smallnga-limb" format="2">
  <advance width="541"/>
  <unicode hex="1931"/>
  <anchor x="238" y="-100" name="L"/>
  <outline>
    <contour>
      <point x="592" y="268" type="curve" smooth="yes"/>
      <point x="633" y="394"/>
      <point x="595" y="490"/>
      <point x="484" y="490" type="curve" smooth="yes"/>
      <point x="340" y="490"/>
      <point x="136" y="335"/>
      <point x="86" y="183" type="curve" smooth="yes"/>
      <point x="44" y="52"/>
      <point x="99" y="-29"/>
      <point x="193" y="-29" type="curve" smooth="yes"/>
      <point x="347" y="-29"/>
      <point x="550" y="139"/>
    </contour>
    <contour>
      <point x="264" y="240" type="curve" smooth="yes"/>
      <point x="283" y="297"/>
      <point x="325" y="345"/>
      <point x="359" y="345" type="curve" smooth="yes"/>
      <point x="412" y="345"/>
      <point x="442" y="309"/>
      <point x="416" y="228" type="curve" smooth="yes"/>
      <point x="397" y="169"/>
      <point x="364" y="124"/>
      <point x="321" y="124" type="curve" smooth="yes"/>
      <point x="272" y="124"/>
      <point x="239" y="162"/>
    </contour>
  </outline>
</glyph>
<glyph name="smallanusvara-limb" format="2">
  <unicode hex="1932"/>
  <anchor x="-531" y="-80" name="_L"/>
  <outline>
    <contour>
      <point x="-401" y="-292" type="curve"/>
      <point x="-366" y="-186"/>
      <point x="-399" y="-104"/>
      <point x="-492" y="-104" type="curve"/>
      <point x="-613" y="-104"/>
      <point x="-786" y="-235"/>
      <point x="-827" y="-363" type="curve"/>
      <point x="-863" y="-474"/>
      <point x="-817" y="-542"/>
      <point x="-738" y="-542" type="curve"/>
      <point x="-608" y="-542"/>
      <point x="-436" y="-401"/>
    </contour>
    <contour>
      <point x="-681" y="-314" type="curve"/>
      <point x="-666" y="-269"/>
      <point x="-628" y="-227"/>
      <point x="-598" y="-227" type="curve"/>
      <point x="-552" y="-227"/>
      <point x="-524" y="-259"/>
      <point x="-546" y="-326" type="curve"/>
      <point x="-561" y="-372"/>
      <point x="-590" y="-412"/>
      <point x="-628" y="-412" type="curve"/>
      <point x="-672" y="-412"/>
      <point x="-702" y="-378"/>
    </contour>
  </outline>
</glyph>
<glyph name="smallta-limb" format="2">
  <advance width="563"/>
  <unicode hex="1933"/>
  <outline>
    <contour>
      <point x="-166" y="-234" type="curve"/>
      <point x="-164" y="-256"/>
      <point x="-146" y="-276"/>
      <point x="-135" y="-285" type="curve"/>
      <point x="-40" y="-205"/>
      <point x="56" y="-163"/>
      <point x="101" y="-163" type="curve" smooth="yes"/>
      <point x="182" y="-163"/>
      <point x="249" y="-198"/>
      <point x="303" y="-314" type="curve"/>
      <point x="362" y="-294"/>
      <point x="491" y="-198"/>
      <point x="532" y="-151" type="curve"/>
      <point x="477" y="-68"/>
      <point x="393" y="-16"/>
      <point x="251" y="-16" type="curve" smooth="yes"/>
      <point x="100" y="-16"/>
      <point x="-35" y="-97"/>
    </contour>
  </outline>
</glyph>
<glyph name="smallna-limb" format="2">
  <advance width="852"/>
  <unicode hex="1934"/>
  <anchor x="387" y="-90" name="L"/>
  <outline>
    <contour>
      <point x="247" y="873" type="line"/>
      <point x="215" y="854"/>
      <point x="89" y="765"/>
      <point x="60" y="738" type="curve"/>
      <point x="77" y="707" type="line"/>
      <point x="211" y="707" type="line" smooth="yes"/>
      <point x="264" y="707"/>
      <point x="289" y="684"/>
      <point x="275" y="550" type="curve" smooth="yes"/>
      <point x="258" y="381"/>
      <point x="302" y="294"/>
      <point x="512" y="294" type="curve" smooth="yes"/>
      <point x="774" y="294"/>
      <point x="951" y="470"/>
      <point x="996" y="609" type="curve" smooth="yes"/>
      <point x="1026" y="699"/>
      <point x="995" y="774"/>
      <point x="873" y="774" type="curve" smooth="yes"/>
      <point x="737" y="774"/>
      <point x="583" y="648"/>
      <point x="547" y="536" type="curve" smooth="yes"/>
      <point x="530" y="484"/>
      <point x="538" y="436"/>
      <point x="582" y="403" type="curve"/>
      <point x="623" y="398" type="line"/>
      <point x="641" y="397"/>
      <point x="743" y="457"/>
      <point x="744" y="462" type="curve"/>
      <point x="676" y="446"/>
      <point x="653" y="491"/>
      <point x="670" y="543" type="curve" smooth="yes"/>
      <point x="683" y="584"/>
      <point x="721" y="625"/>
      <point x="773" y="625" type="curve" smooth="yes"/>
      <point x="805" y="625"/>
      <point x="828" y="595"/>
      <point x="813" y="550" type="curve" smooth="yes"/>
      <point x="801" y="512"/>
      <point x="752" y="440"/>
      <point x="638" y="437" type="curve" smooth="yes"/>
      <point x="477" y="431"/>
      <point x="459" y="481"/>
      <point x="476" y="642" type="curve" smooth="yes"/>
      <point x="488" y="756"/>
      <point x="489" y="873"/>
      <point x="336" y="873" type="curve" smooth="yes"/>
    </contour>
  </outline>
</glyph>
<glyph name="smallpa-limb" format="2">
  <advance width="838"/>
  <unicode hex="1935"/>
  <anchor x="353" y="-90" name="L"/>
  <outline>
    <contour>
      <point x="803" y="789" type="curve"/>
      <point x="717" y="532"/>
      <point x="613" y="241"/>
      <point x="547" y="4" type="curve"/>
      <point x="547" y="4"/>
      <point x="583" y="-30"/>
      <point x="587" y="-31" type="curve"/>
      <point x="709" y="15"/>
      <point x="772" y="60"/>
      <point x="792" y="87" type="curve"/>
      <point x="851" y="311"/>
      <point x="928" y="554"/>
      <point x="1038" y="864" type="curve"/>
      <point x="1018" y="900" type="line"/>
      <point x="984" y="889"/>
      <point x="855" y="842"/>
    </contour>
    <contour>
      <point x="247" y="873" type="line"/>
      <point x="214" y="854"/>
      <point x="92" y="774"/>
      <point x="63" y="747" type="curve"/>
      <point x="85" y="707" type="line"/>
      <point x="242" y="707" type="line" smooth="yes"/>
      <point x="423" y="707"/>
      <point x="146" y="332"/>
      <point x="434" y="332" type="curve" smooth="yes"/>
      <point x="645" y="332"/>
      <point x="868" y="545"/>
      <point x="911" y="679" type="curve" smooth="yes"/>
      <point x="974" y="875"/>
      <point x="788" y="740"/>
      <point x="782" y="719" type="curve" smooth="yes"/>
      <point x="743" y="601"/>
      <point x="669" y="480"/>
      <point x="564" y="480" type="curve" smooth="yes"/>
      <point x="409" y="480"/>
      <point x="680" y="873"/>
      <point x="371" y="873" type="curve" smooth="yes"/>
    </contour>
  </outline>
</glyph>
<glyph name="smallma-limb" format="2">
  <advance width="890"/>
  <unicode hex="1936"/>
  <anchor x="393" y="-90" name="L"/>
  <outline>
    <contour>
      <point x="242" y="873" type="line"/>
      <point x="200" y="854"/>
      <point x="97" y="774"/>
      <point x="67" y="747" type="curve"/>
      <point x="89" y="707" type="line"/>
      <point x="211" y="707" type="line" smooth="yes"/>
      <point x="314" y="707"/>
      <point x="250" y="621"/>
      <point x="228" y="554" type="curve" smooth="yes"/>
      <point x="193" y="445"/>
      <point x="343" y="382"/>
      <point x="492" y="382" type="curve" smooth="yes"/>
      <point x="682" y="382"/>
      <point x="999" y="506"/>
      <point x="1062" y="702" type="curve" smooth="yes"/>
      <point x="1112" y="853"/>
      <point x="1049" y="896"/>
      <point x="969" y="896" type="curve" smooth="yes"/>
      <point x="910" y="895"/>
      <point x="843" y="882"/>
      <point x="719" y="811" type="curve" smooth="yes"/>
      <point x="575" y="729"/>
      <point x="545" y="663"/>
      <point x="493" y="508" type="curve"/>
      <point x="476" y="454"/>
      <point x="434" y="269"/>
      <point x="384" y="116" type="curve" smooth="yes"/>
      <point x="370" y="72"/>
      <point x="348" y="19"/>
      <point x="342" y="2" type="curve"/>
      <point x="353" y="-5"/>
      <point x="364" y="-15"/>
      <point x="400" y="-31" type="curve"/>
      <point x="448" y="-13"/>
      <point x="515" y="17"/>
      <point x="576" y="68" type="curve"/>
      <point x="588" y="86"/>
      <point x="600" y="114"/>
      <point x="607" y="136" type="curve" smooth="yes"/>
      <point x="660" y="301"/>
      <point x="706" y="548"/>
      <point x="726" y="606" type="curve" smooth="yes"/>
      <point x="768" y="729"/>
      <point x="793" y="761"/>
      <point x="812" y="761" type="curve" smooth="yes"/>
      <point x="838" y="761"/>
      <point x="857" y="732"/>
      <point x="839" y="678" type="curve" smooth="yes"/>
      <point x="799" y="553"/>
      <point x="732" y="510"/>
      <point x="589" y="509" type="curve" smooth="yes"/>
      <point x="500" y="508"/>
      <point x="453" y="570"/>
      <point x="465" y="605" type="curve" smooth="yes"/>
      <point x="509" y="741"/>
      <point x="610" y="873"/>
      <point x="393" y="873" type="curve" smooth="yes"/>
    </contour>
  </outline>
</glyph>
<glyph name="smallra-limb" format="2">
  <advance width="377"/>
  <unicode hex="1937"/>
  <outline>
    <contour>
      <point x="64" y="26" type="curve"/>
      <point x="122" y="-34"/>
      <point x="185" y="-144"/>
      <point x="203" y="-243" type="curve"/>
      <point x="271" y="-205"/>
      <point x="298" y="-189"/>
      <point x="321" y="-174" type="curve"/>
      <point x="323" y="-59"/>
      <point x="323" y="71"/>
      <point x="274" y="147" type="curve"/>
      <point x="211" y="136"/>
      <point x="97" y="66"/>
    </contour>
  </outline>
</glyph>
<glyph name="smallla-limb" format="2">
  <advance width="574"/>
  <unicode hex="1938"/>
  <anchor x="240" y="-100" name="L"/>
  <outline>
    <contour>
      <point x="229" y="646" type="curve" smooth="yes"/>
      <point x="200" y="556"/>
      <point x="208" y="528"/>
      <point x="228" y="487" type="curve" smooth="yes"/>
      <point x="249" y="442"/>
      <point x="304" y="421"/>
      <point x="360" y="421" type="curve" smooth="yes"/>
      <point x="447" y="421"/>
      <point x="701" y="556"/>
      <point x="750" y="706" type="curve" smooth="yes"/>
      <point x="775" y="785"/>
      <point x="807" y="893"/>
      <point x="827" y="954" type="curve"/>
      <point x="810" y="1000" type="line"/>
      <point x="759" y="974"/>
      <point x="675" y="933"/>
      <point x="614" y="875" type="curve"/>
      <point x="600" y="829"/>
      <point x="579" y="758"/>
      <point x="562" y="706" type="curve" smooth="yes"/>
      <point x="529" y="604"/>
      <point x="502" y="572"/>
      <point x="476" y="572" type="curve" smooth="yes"/>
      <point x="459" y="572"/>
      <point x="438" y="582"/>
      <point x="430" y="603" type="curve" smooth="yes"/>
      <point x="417" y="631"/>
      <point x="421" y="662"/>
      <point x="442" y="727" type="curve" smooth="yes"/>
      <point x="464" y="795"/>
      <point x="493" y="883"/>
      <point x="516" y="954" type="curve"/>
      <point x="500" y="1000" type="line"/>
      <point x="454" y="976"/>
      <point x="365" y="931"/>
      <point x="303" y="875" type="curve"/>
      <point x="286" y="823"/>
      <point x="248" y="708"/>
    </contour>
  </outline>
</glyph>
<glyph name="mukphreng-limb" format="2">
  <advance width="289"/>
  <unicode hex="1939"/>
  <outline>
    <contour>
      <point x="28" y="41" type="curve"/>
      <point x="-6" y="-62"/>
      <point x="-57" y="-157"/>
      <point x="-140" y="-239" type="curve"/>
      <point x="-138" y="-252"/>
      <point x="-103" y="-288"/>
      <point x="-97" y="-288" type="curve"/>
      <point x="49" y="-184"/>
      <point x="244" y="-2"/>
      <point x="288" y="108" type="curve"/>
      <point x="282" y="120"/>
      <point x="266" y="149"/>
      <point x="259" y="158" type="curve"/>
      <point x="202" y="129"/>
      <point x="71" y="60"/>
    </contour>
  </outline>
</glyph>
<glyph name="kemphreng-limb" format="2">
  <unicode hex="193A"/>
  <anchor x="122" y="1220" name="_K"/>
  <outline>
    <contour>
      <point x="-52" y="1387" type="curve" smooth="yes"/>
      <point x="-62" y="1352"/>
      <point x="-25" y="1274"/>
      <point x="-1" y="1274" type="curve" smooth="yes"/>
      <point x="33" y="1274"/>
      <point x="127" y="1334"/>
      <point x="131" y="1349" type="curve" smooth="yes"/>
      <point x="145" y="1390"/>
      <point x="126" y="1487"/>
      <point x="108" y="1487" type="curve" smooth="yes"/>
      <point x="64" y="1487"/>
      <point x="-44" y="1417"/>
    </contour>
    <contour>
      <point x="207" y="1386" type="curve" smooth="yes"/>
      <point x="198" y="1353"/>
      <point x="235" y="1274"/>
      <point x="260" y="1274" type="curve" smooth="yes"/>
      <point x="294" y="1274"/>
      <point x="388" y="1335"/>
      <point x="392" y="1349" type="curve" smooth="yes"/>
      <point x="406" y="1390"/>
      <point x="386" y="1487"/>
      <point x="368" y="1487" type="curve" smooth="yes"/>
      <point x="324" y="1487"/>
      <point x="217" y="1417"/>
    </contour>
  </outline>
</glyph>
<glyph name="sai-limb" format="2">
  <unicode hex="193B"/>
  <anchor x="-496" y="-50" name="_L"/>
  <outline>
    <contour>
      <point x="-881" y="-80" type="line"/>
      <point x="-923" y="-101"/>
      <point x="-1018" y="-181"/>
      <point x="-1050" y="-215" type="curve"/>
      <point x="-1031" y="-265" type="line"/>
      <point x="-273" y="-265" type="line"/>
      <point x="-206" y="-228"/>
      <point x="-128" y="-171"/>
      <point x="-87" y="-130" type="curve"/>
      <point x="-102" y="-80" type="line"/>
    </contour>
  </outline>
</glyph>
<glyph name="loo-limb" format="2">
  <advance width="932"/>
  <unicode hex="1940"/>
  <outline>
    <contour>
      <point x="797" y="1000" type="line"/>
      <point x="442" y="850"/>
      <point x="240" y="601"/>
      <point x="172" y="392" type="curve" smooth="yes"/>
      <point x="70" y="77"/>
      <point x="258" y="-34"/>
      <point x="426" y="-34" type="curve" smooth="yes"/>
      <point x="749" y="-34"/>
      <point x="966" y="213"/>
      <point x="1012" y="357" type="curve" smooth="yes"/>
      <point x="1058" y="498"/>
      <point x="1026" y="589"/>
      <point x="869" y="589" type="curve" smooth="yes"/>
      <point x="708" y="589"/>
      <point x="508" y="421"/>
      <point x="461" y="277" type="curve" smooth="yes"/>
      <point x="432" y="189"/>
      <point x="495" y="116"/>
      <point x="584" y="98" type="curve"/>
      <point x="753" y="186" type="line"/>
      <point x="656" y="183"/>
      <point x="628" y="264"/>
      <point x="658" y="347" type="curve" smooth="yes"/>
      <point x="681" y="413"/>
      <point x="732" y="450"/>
      <point x="772" y="450" type="curve" smooth="yes"/>
      <point x="843" y="450"/>
      <point x="847" y="364"/>
      <point x="823" y="290" type="curve" smooth="yes"/>
      <point x="800" y="217"/>
      <point x="685" y="146"/>
      <point x="537" y="146" type="curve" smooth="yes"/>
      <point x="436" y="146"/>
      <point x="325" y="205"/>
      <point x="398" y="442" type="curve" smooth="yes"/>
      <point x="459" y="636"/>
      <point x="611" y="795"/>
      <point x="829" y="922" type="curve"/>
    </contour>
  </outline>
</glyph>
<glyph name="exclam-limb" format="2">
  <advance width="787"/>
  <unicode hex="1944"/>
  <outline>
    <contour>
      <point x="606" y="-196" type="curve" smooth="yes"/>
      <point x="595" y="-229"/>
      <point x="575" y="-256"/>
      <point x="551" y="-276" type="curve" smooth="yes"/>
      <point x="516" y="-305"/>
      <point x="476" y="-319"/>
      <point x="432" y="-319" type="curve" smooth="yes"/>
      <point x="375" y="-319"/>
      <point x="328" y="-292"/>
      <point x="352" y="-219" type="curve" smooth="yes"/>
      <point x="363" y="-184"/>
      <point x="385" y="-156"/>
      <point x="412" y="-135" type="curve" smooth="yes"/>
      <point x="447" y="-109"/>
      <point x="491" y="-94"/>
      <point x="532" y="-94" type="curve" smooth="yes"/>
      <point x="581" y="-94"/>
      <point x="630" y="-123"/>
    </contour>
    <contour>
      <point x="897" y="701" type="curve" smooth="yes"/>
      <point x="935" y="802"/>
      <point x="919" y="896"/>
      <point x="746" y="896" type="curve" smooth="yes"/>
      <point x="508" y="896"/>
      <point x="305" y="743"/>
      <point x="259" y="599" type="curve" smooth="yes"/>
      <point x="233" y="521"/>
      <point x="259" y="449"/>
      <point x="339" y="449" type="curve" smooth="yes"/>
      <point x="429" y="449"/>
      <point x="513" y="488"/>
      <point x="582" y="531" type="curve"/>
      <point x="585" y="597" type="line"/>
      <point x="545" y="584"/>
      <point x="522" y="581"/>
      <point x="509" y="581" type="curve" smooth="yes"/>
      <point x="476" y="581"/>
      <point x="469" y="614"/>
      <point x="481" y="653" type="curve" smooth="yes"/>
      <point x="500" y="710"/>
      <point x="574" y="788"/>
      <point x="640" y="788" type="curve" smooth="yes"/>
      <point x="687" y="788"/>
      <point x="704" y="744"/>
      <point x="687" y="698" type="curve" smooth="yes"/>
      <point x="603" y="473"/>
      <point x="510" y="192"/>
      <point x="452" y="6" type="curve"/>
      <point x="452" y="6"/>
      <point x="492" y="-31"/>
      <point x="492" y="-31" type="curve"/>
      <point x="525" y="-14"/>
      <point x="664" y="41"/>
      <point x="685" y="69" type="curve"/>
      <point x="752" y="302"/>
      <point x="806" y="457"/>
    </contour>
  </outline>
</glyph>
<glyph name="question-limb" format="2">
  <advance width="945"/>
  <unicode hex="1945"/>
  <outline>
    <contour>
      <point x="326" y="-23" type="curve"/>
      <point x="364" y="-15"/>
      <point x="466" y="8"/>
      <point x="528" y="56" type="curve"/>
      <point x="566" y="186"/>
      <point x="624" y="407"/>
      <point x="659" y="506" type="curve" smooth="yes"/>
      <point x="741" y="738"/>
      <point x="818" y="850"/>
      <point x="883" y="850" type="curve" smooth="yes"/>
      <point x="913" y="850"/>
      <point x="938" y="843"/>
      <point x="938" y="805" type="curve" smooth="yes"/>
      <point x="938" y="713"/>
      <point x="864" y="571"/>
      <point x="745" y="575" type="curve"/>
      <point x="741" y="564"/>
      <point x="737" y="519"/>
      <point x="739" y="498" type="curve"/>
      <point x="956" y="467"/>
      <point x="1163" y="659"/>
      <point x="1163" y="854" type="curve" smooth="yes"/>
      <point x="1163" y="959"/>
      <point x="1067" y="1000"/>
      <point x="978" y="1000" type="curve" smooth="yes"/>
      <point x="859" y="1000"/>
      <point x="714" y="911"/>
      <point x="639" y="738" type="curve"/>
      <point x="676" y="745" type="line"/>
      <point x="712" y="869"/>
      <point x="681" y="974"/>
      <point x="640" y="1016" type="curve"/>
      <point x="584" y="1016"/>
      <point x="475" y="1004"/>
      <point x="434" y="988" type="curve"/>
      <point x="417" y="934" type="line"/>
      <point x="464" y="916"/>
      <point x="482" y="848"/>
      <point x="482" y="755" type="curve" smooth="yes"/>
      <point x="482" y="598"/>
      <point x="370" y="263"/>
      <point x="326" y="133" type="curve" smooth="yes"/>
      <point x="310" y="86"/>
      <point x="293" y="38"/>
      <point x="286" y="19" type="curve"/>
      <point x="297" y="10"/>
      <point x="313" y="-14"/>
    </contour>
    <contour>
      <point x="282" y="-350" type="curve" smooth="yes"/>
      <point x="317" y="-350"/>
      <point x="350" y="-338"/>
      <point x="379" y="-316" type="curve" smooth="yes"/>
      <point x="425" y="-281"/>
      <point x="442" y="-226"/>
      <point x="442" y="-193" type="curve" smooth="yes"/>
      <point x="442" y="-129"/>
      <point x="387" y="-108"/>
      <point x="340" y="-108" type="curve" smooth="yes"/>
      <point x="307" y="-108"/>
      <point x="273" y="-120"/>
      <point x="246" y="-139" type="curve" smooth="yes"/>
      <point x="202" y="-170"/>
      <point x="176" y="-222"/>
      <point x="176" y="-265" type="curve" smooth="yes"/>
      <point x="176" y="-327"/>
      <point x="234" y="-350"/>
    </contour>
  </outline>
</glyph>
<glyph name="zero-limb" format="2">
  <advance width="873"/>
  <unicode hex="1946"/>
  <outline>
    <contour>
      <point x="173" y="395" type="curve" smooth="yes"/>
      <point x="90" y="139"/>
      <point x="175" y="-31"/>
      <point x="400" y="-31" type="curve" smooth="yes"/>
      <point x="675" y="-31"/>
      <point x="899" y="219"/>
      <point x="982" y="473" type="curve" smooth="yes"/>
      <point x="1065" y="729"/>
      <point x="986" y="896"/>
      <point x="772" y="896" type="curve" smooth="yes"/>
      <point x="494" y="896"/>
      <point x="257" y="653"/>
    </contour>
    <contour>
      <point x="421" y="474" type="curve" smooth="yes"/>
      <point x="481" y="660"/>
      <point x="604" y="761"/>
      <point x="667" y="761" type="curve" smooth="yes"/>
      <point x="781" y="761"/>
      <point x="801" y="603"/>
      <point x="733" y="396" type="curve" smooth="yes"/>
      <point x="674" y="212"/>
      <point x="567" y="104"/>
      <point x="496" y="104" type="curve" smooth="yes"/>
      <point x="427" y="104"/>
      <point x="323" y="174"/>
    </contour>
  </outline>
</glyph>
<glyph name="one-limb" format="2">
  <advance width="882"/>
  <unicode hex="1947"/>
  <outline>
    <contour>
      <point x="489" y="442" type="curve" smooth="yes"/>
      <point x="532" y="573"/>
      <point x="595" y="777"/>
      <point x="661" y="946" type="curve"/>
      <point x="636" y="1000" type="line"/>
      <point x="553" y="996"/>
      <point x="440" y="961"/>
      <point x="401" y="936" type="curve"/>
      <point x="359" y="818"/>
      <point x="282" y="571"/>
      <point x="244" y="454" type="curve" smooth="yes"/>
      <point x="213" y="358"/>
      <point x="198" y="277"/>
      <point x="198" y="209" type="curve" smooth="yes"/>
      <point x="198" y="10"/>
      <point x="338" y="-86"/>
      <point x="520" y="-86" type="curve" smooth="yes"/>
      <point x="784" y="-86"/>
      <point x="972" y="202"/>
      <point x="972" y="372" type="curve" smooth="yes"/>
      <point x="972" y="470"/>
      <point x="903" y="514"/>
      <point x="811" y="514" type="curve" smooth="yes"/>
      <point x="641" y="514"/>
      <point x="489" y="345"/>
      <point x="489" y="171" type="curve" smooth="yes"/>
      <point x="489" y="124"/>
      <point x="509" y="63"/>
      <point x="549" y="51" type="curve"/>
      <point x="575" y="32" type="line"/>
      <point x="637" y="24"/>
      <point x="742" y="99"/>
      <point x="744" y="103" type="curve"/>
      <point x="725" y="96"/>
      <point x="690" y="86"/>
      <point x="677" y="86" type="curve" smooth="yes"/>
      <point x="652" y="86"/>
      <point x="630" y="125"/>
      <point x="630" y="158" type="curve" smooth="yes"/>
      <point x="630" y="283"/>
      <point x="688" y="351"/>
      <point x="748" y="351" type="curve" smooth="yes"/>
      <point x="779" y="351"/>
      <point x="804" y="332"/>
      <point x="804" y="299" type="curve" smooth="yes"/>
      <point x="804" y="226"/>
      <point x="718" y="65"/>
      <point x="581" y="65" type="curve" smooth="yes"/>
      <point x="495" y="65"/>
      <point x="448" y="121"/>
      <point x="448" y="229" type="curve" smooth="yes"/>
      <point x="448" y="285"/>
      <point x="461" y="356"/>
    </contour>
  </outline>
</glyph>
<glyph name="two-limb" format="2">
  <advance width="846"/>
  <unicode hex="1948"/>
  <outline>
    <contour>
      <point x="618" y="-34" type="curve"/>
      <point x="713" y="11"/>
      <point x="782" y="68"/>
      <point x="838" y="115" type="curve"/>
      <point x="809" y="301"/>
      <point x="809" y="720"/>
      <point x="856" y="958" type="curve"/>
      <point x="815" y="1000" type="line"/>
      <point x="762" y="969"/>
      <point x="647" y="926"/>
      <point x="600" y="888" type="curve"/>
      <point x="454" y="622"/>
      <point x="250" y="300"/>
      <point x="49" y="11" type="curve"/>
      <point x="74" y="-34" type="line"/>
      <point x="121" y="-17"/>
      <point x="249" y="3"/>
      <point x="286" y="27" type="curve"/>
      <point x="375" y="197"/>
      <point x="575" y="576"/>
      <point x="679" y="728" type="curve"/>
      <point x="580" y="733" type="line"/>
      <point x="568" y="516"/>
      <point x="561" y="133"/>
      <point x="596" y="-18" type="curve"/>
      <point x="601" y="-23"/>
      <point x="608" y="-30"/>
    </contour>
  </outline>
</glyph>
<glyph name="three-limb" format="2">
  <advance width="828"/>
  <unicode hex="1949"/>
  <outline>
    <contour>
      <point x="715" y="896" type="curve" smooth="yes"/>
      <point x="534" y="896"/>
      <point x="333" y="752"/>
      <point x="282" y="598" type="curve" smooth="yes"/>
      <point x="247" y="488"/>
      <point x="288" y="410"/>
      <point x="498" y="384" type="curve" smooth="yes"/>
      <point x="670" y="363"/>
      <point x="691" y="287"/>
      <point x="667" y="213" type="curve" smooth="yes"/>
      <point x="648" y="157"/>
      <point x="570" y="111"/>
      <point x="485" y="111" type="curve" smooth="yes"/>
      <point x="371" y="111"/>
      <point x="317" y="194"/>
      <point x="308" y="295" type="curve"/>
      <point x="255" y="301" type="line"/>
      <point x="203" y="241"/>
      <point x="128" y="127"/>
      <point x="114" y="103" type="curve"/>
      <point x="143" y="23"/>
      <point x="276" y="-31"/>
      <point x="400" y="-31" type="curve" smooth="yes"/>
      <point x="552" y="-31"/>
      <point x="806" y="100"/>
      <point x="868" y="288" type="curve" smooth="yes"/>
      <point x="912" y="425"/>
      <point x="864" y="510"/>
      <point x="695" y="535" type="curve" smooth="yes"/>
      <point x="488" y="564"/>
      <point x="461" y="606"/>
      <point x="484" y="675" type="curve" smooth="yes"/>
      <point x="500" y="724"/>
      <point x="566" y="762"/>
      <point x="628" y="762" type="curve" smooth="yes"/>
      <point x="681" y="762"/>
      <point x="736" y="732"/>
      <point x="773" y="677" type="curve"/>
      <point x="806" y="673" type="line"/>
      <point x="836" y="695"/>
      <point x="932" y="779"/>
      <point x="964" y="812" type="curve"/>
      <point x="922" y="864"/>
      <point x="842" y="896"/>
    </contour>
  </outline>
</glyph>
<glyph name="four-limb" format="2">
  <advance width="813"/>
  <unicode hex="194A"/>
  <outline>
    <contour>
      <point x="815" y="127" type="curve"/>
      <point x="746" y="434"/>
      <point x="665" y="684"/>
      <point x="570" y="973" type="curve"/>
      <point x="534" y="1003" type="line"/>
      <point x="495" y="979"/>
      <point x="363" y="897"/>
      <point x="325" y="861" type="curve"/>
      <point x="419" y="544"/>
      <point x="526" y="254"/>
      <point x="582" y="-11" type="curve"/>
      <point x="621" y="-34" type="line"/>
      <point x="655" y="-10"/>
      <point x="786" y="93"/>
    </contour>
    <contour>
      <point x="1086" y="953" type="curve"/>
      <point x="1072" y="1000" type="line"/>
      <point x="1033" y="984"/>
      <point x="899" y="964"/>
      <point x="853" y="935" type="curve"/>
      <point x="587" y="598"/>
      <point x="364" y="351"/>
      <point x="33" y="13" type="curve"/>
      <point x="56" y="-30" type="line"/>
      <point x="95" y="-19"/>
      <point x="245" y="3"/>
      <point x="273" y="20" type="curve"/>
      <point x="556" y="360"/>
      <point x="832" y="670"/>
    </contour>
  </outline>
</glyph>
<glyph name="five-limb" format="2">
  <advance width="858"/>
  <unicode hex="194B"/>
  <outline>
    <contour>
      <point x="473" y="-34" type="curve" smooth="yes"/>
      <point x="676" y="-34"/>
      <point x="871" y="152"/>
      <point x="871" y="279" type="curve" smooth="yes"/>
      <point x="871" y="350"/>
      <point x="802" y="392"/>
      <point x="733" y="392" type="curve" smooth="yes"/>
      <point x="600" y="392"/>
      <point x="424" y="282"/>
      <point x="424" y="159" type="curve" smooth="yes"/>
      <point x="424" y="108"/>
      <point x="464" y="61"/>
      <point x="484" y="45" type="curve"/>
      <point x="532" y="54" type="line"/>
      <point x="593" y="46"/>
      <point x="674" y="119"/>
      <point x="676" y="125" type="curve"/>
      <point x="661" y="117"/>
      <point x="647" y="116"/>
      <point x="635" y="116" type="curve" smooth="yes"/>
      <point x="598" y="116"/>
      <point x="556" y="129"/>
      <point x="556" y="163" type="curve" smooth="yes"/>
      <point x="556" y="214"/>
      <point x="604" y="263"/>
      <point x="660" y="263" type="curve" smooth="yes"/>
      <point x="683" y="263"/>
      <point x="714" y="242"/>
      <point x="714" y="213" type="curve" smooth="yes"/>
      <point x="714" y="159"/>
      <point x="617" y="83"/>
      <point x="558" y="83" type="curve" smooth="yes"/>
      <point x="482" y="83"/>
      <point x="348" y="118"/>
      <point x="348" y="291" type="curve" smooth="yes"/>
      <point x="348" y="466"/>
      <point x="498" y="883"/>
      <point x="716" y="883" type="curve" smooth="yes"/>
      <point x="773" y="883"/>
      <point x="863" y="855"/>
      <point x="863" y="786" type="curve" smooth="yes"/>
      <point x="863" y="741"/>
      <point x="829" y="675"/>
      <point x="772" y="675" type="curve" smooth="yes"/>
      <point x="744" y="675"/>
      <point x="730" y="690"/>
      <point x="730" y="710" type="curve" smooth="yes"/>
      <point x="730" y="752"/>
      <point x="779" y="819"/>
      <point x="846" y="819" type="curve" smooth="yes"/>
      <point x="861" y="819"/>
      <point x="897" y="823"/>
      <point x="915" y="805" type="curve"/>
      <point x="918" y="853"/>
      <point x="881" y="890"/>
      <point x="837" y="900" type="curve"/>
      <point x="723" y="900"/>
      <point x="578" y="762"/>
      <point x="578" y="661" type="curve" smooth="yes"/>
      <point x="578" y="599"/>
      <point x="637" y="554"/>
      <point x="719" y="554" type="curve" smooth="yes"/>
      <point x="850" y="554"/>
      <point x="1037" y="687"/>
      <point x="1037" y="820" type="curve" smooth="yes"/>
      <point x="1037" y="962"/>
      <point x="856" y="995"/>
      <point x="758" y="995" type="curve" smooth="yes"/>
      <point x="327" y="995"/>
      <point x="131" y="553"/>
      <point x="131" y="262" type="curve" smooth="yes"/>
      <point x="131" y="38"/>
      <point x="315" y="-34"/>
    </contour>
  </outline>
</glyph>
<glyph name="six-limb" format="2">
  <advance width="994"/>
  <unicode hex="194C"/>
  <outline>
    <contour>
      <point x="949" y="330" type="curve" smooth="yes"/>
      <point x="949" y="440"/>
      <point x="868" y="534"/>
      <point x="733" y="534" type="curve" smooth="yes"/>
      <point x="555" y="534"/>
      <point x="410" y="380"/>
      <point x="410" y="172" type="curve" smooth="yes"/>
      <point x="410" y="110"/>
      <point x="410" y="-92"/>
      <point x="410" y="-223" type="curve"/>
      <point x="468" y="-260" type="line"/>
      <point x="522" y="-246"/>
      <point x="585" y="-204"/>
      <point x="618" y="-182" type="curve"/>
      <point x="611" y="-153"/>
      <point x="608" y="-118"/>
      <point x="608" y="-80" type="curve" smooth="yes"/>
      <point x="608" y="41"/>
      <point x="608" y="215"/>
      <point x="608" y="265" type="curve"/>
      <point x="609" y="357"/>
      <point x="635" y="378"/>
      <point x="684" y="378" type="curve" smooth="yes"/>
      <point x="728" y="378"/>
      <point x="746" y="339"/>
      <point x="746" y="301" type="curve" smooth="yes"/>
      <point x="746" y="235"/>
      <point x="715" y="116"/>
      <point x="573" y="116" type="curve" smooth="yes"/>
      <point x="326" y="116"/>
      <point x="275" y="266"/>
      <point x="275" y="489" type="curve" smooth="yes"/>
      <point x="275" y="760"/>
      <point x="385" y="785"/>
      <point x="439" y="785" type="curve" smooth="yes"/>
      <point x="701" y="785" type="line"/>
      <point x="750" y="810"/>
      <point x="814" y="854"/>
      <point x="880" y="920" type="curve"/>
      <point x="844" y="970" type="line"/>
      <point x="539" y="970" type="line" smooth="yes"/>
      <point x="383" y="970"/>
      <point x="50" y="827"/>
      <point x="50" y="438" type="curve" smooth="yes"/>
      <point x="50" y="128"/>
      <point x="227" y="-34"/>
      <point x="526" y="-34" type="curve" smooth="yes"/>
      <point x="788" y="-34"/>
      <point x="949" y="174"/>
    </contour>
  </outline>
</glyph>
<glyph name="seven-limb" format="2">
  <advance width="828"/>
  <unicode hex="194D"/>
  <outline>
    <contour>
      <point x="706" y="889" type="curve"/>
      <point x="748" y="901"/>
      <point x="774" y="911"/>
      <point x="842" y="957" type="curve"/>
      <point x="837" y="991" type="line"/>
      <point x="794" y="997"/>
      <point x="754" y="1000"/>
      <point x="716" y="1000" type="curve" smooth="yes"/>
      <point x="531" y="1000"/>
      <point x="279" y="900"/>
      <point x="279" y="725" type="curve" smooth="yes"/>
      <point x="279" y="545"/>
      <point x="627" y="424"/>
      <point x="627" y="249" type="curve" smooth="yes"/>
      <point x="627" y="169"/>
      <point x="545" y="94"/>
      <point x="466" y="94" type="curve" smooth="yes"/>
      <point x="370" y="94"/>
      <point x="315" y="163"/>
      <point x="315" y="233" type="curve" smooth="yes"/>
      <point x="315" y="386"/>
      <point x="927" y="648"/>
      <point x="1025" y="775" type="curve"/>
      <point x="1025" y="792"/>
      <point x="1014" y="825"/>
      <point x="1009" y="834" type="curve"/>
      <point x="929" y="834"/>
      <point x="861" y="824"/>
      <point x="817" y="812" type="curve"/>
      <point x="661" y="632"/>
      <point x="112" y="448"/>
      <point x="112" y="192" type="curve" smooth="yes"/>
      <point x="112" y="29"/>
      <point x="313" y="-34"/>
      <point x="441" y="-34" type="curve" smooth="yes"/>
      <point x="628" y="-34"/>
      <point x="857" y="114"/>
      <point x="857" y="284" type="curve" smooth="yes"/>
      <point x="857" y="487"/>
      <point x="516" y="627"/>
      <point x="516" y="774" type="curve" smooth="yes"/>
      <point x="516" y="846"/>
      <point x="589" y="892"/>
      <point x="662" y="892" type="curve" smooth="yes"/>
      <point x="676" y="892"/>
      <point x="691" y="891"/>
    </contour>
  </outline>
</glyph>
<glyph name="eight-limb" format="2">
  <advance width="833"/>
  <unicode hex="194E"/>
  <outline>
    <contour>
      <point x="1096" y="951" type="curve"/>
      <point x="1072" y="996" type="line"/>
      <point x="1024" y="979"/>
      <point x="927" y="941"/>
      <point x="889" y="917" type="curve"/>
      <point x="797" y="747"/>
      <point x="608" y="388"/>
      <point x="503" y="236" type="curve"/>
      <point x="557" y="229" type="line"/>
      <point x="569" y="446"/>
      <point x="591" y="819"/>
      <point x="572" y="970" type="curve"/>
      <point x="567" y="974"/>
      <point x="555" y="992"/>
      <point x="544" y="996" type="curve"/>
      <point x="436" y="954"/>
      <point x="383" y="912"/>
      <point x="327" y="867" type="curve"/>
      <point x="338" y="681"/>
      <point x="341" y="242"/>
      <point x="312" y="4" type="curve"/>
      <point x="353" y="-38" type="line"/>
      <point x="405" y="-7"/>
      <point x="540" y="56"/>
      <point x="561" y="94" type="curve"/>
      <point x="706" y="360"/>
      <point x="895" y="662"/>
    </contour>
  </outline>
</glyph>
<glyph name="nine-limb" format="2">
  <advance width="864"/>
  <unicode hex="194F"/>
  <outline>
    <contour>
      <point x="474" y="873" type="curve"/>
      <point x="415" y="839"/>
      <point x="313" y="766"/>
      <point x="274" y="734" type="curve"/>
      <point x="292" y="571"/>
      <point x="316" y="428"/>
      <point x="321" y="285" type="curve"/>
      <point x="351" y="248" type="line"/>
      <point x="406" y="264"/>
      <point x="490" y="304"/>
      <point x="517" y="323" type="curve"/>
      <point x="608" y="466"/>
      <point x="710" y="621"/>
      <point x="812" y="774" type="curve"/>
      <point x="689" y="779" type="line"/>
      <point x="616" y="666"/>
      <point x="522" y="522"/>
      <point x="466" y="433" type="curve"/>
      <point x="515" y="422" type="line"/>
      <point x="513" y="483"/>
      <point x="492" y="729"/>
      <point x="481" y="789" type="curve"/>
      <point x="392" y="716" type="line"/>
      <point x="523" y="716"/>
      <point x="799" y="716"/>
      <point x="919" y="716" type="curve"/>
      <point x="930" y="804" type="line"/>
      <point x="765" y="535"/>
      <point x="579" y="268"/>
      <point x="382" y="9" type="curve"/>
      <point x="414" y="-31" type="line"/>
      <point x="457" y="-16"/>
      <point x="551" y="23"/>
      <point x="608" y="61" type="curve"/>
      <point x="794" y="388"/>
      <point x="931" y="607"/>
      <point x="1098" y="830" type="curve"/>
      <point x="1080" y="873" type="line"/>
      <point x="912" y="873"/>
      <point x="655" y="873"/>
    </contour>
  </outline>
</glyph>
<glyph name="dagger" format="2">
  <advance width="952"/>
  <unicode hex="2020"/>
  <outline>
    <contour>
      <point x="624" y="1367" type="curve"/>
      <point x="574" y="1400" type="line"/>
      <point x="532" y="1382"/>
      <point x="372" y="1306"/>
      <point x="324" y="1275" type="curve"/>
      <point x="389" y="1170"/>
      <point x="420" y="1094"/>
      <point x="420" y="964" type="curve" smooth="yes"/>
      <point x="420" y="866"/>
      <point x="394" y="747"/>
      <point x="338" y="643" type="curve"/>
      <point x="391" y="505"/>
      <point x="418" y="389"/>
      <point x="420" y="265" type="curve" smooth="yes"/>
      <point x="421" y="188"/>
      <point x="395" y="76"/>
      <point x="360" y="-9" type="curve"/>
      <point x="396" y="-38" type="line"/>
      <point x="427" y="-28"/>
      <point x="564" y="29"/>
      <point x="587" y="46" type="curve"/>
      <point x="543" y="123"/>
      <point x="528" y="192"/>
      <point x="528" y="265" type="curve" smooth="yes"/>
      <point x="530" y="385"/>
      <point x="558" y="504"/>
      <point x="610" y="643" type="curve"/>
      <point x="554" y="746"/>
      <point x="527" y="865"/>
      <point x="528" y="963" type="curve" smooth="yes"/>
      <point x="531" y="1095"/>
      <point x="563" y="1235"/>
    </contour>
    <contour>
      <point x="906" y="1063" type="curve"/>
      <point x="873" y="1113" type="line"/>
      <point x="746" y="1053"/>
      <point x="612" y="1022"/>
      <point x="475" y="1018" type="curve"/>
      <point x="350" y="1021"/>
      <point x="275" y="1051"/>
      <point x="180" y="1113" type="curve"/>
      <point x="149" y="1065"/>
      <point x="65" y="903"/>
      <point x="47" y="861" type="curve"/>
      <point x="80" y="811" type="line"/>
      <point x="207" y="871"/>
      <point x="340" y="903"/>
      <point x="477" y="907" type="curve"/>
      <point x="603" y="903"/>
      <point x="676" y="874"/>
      <point x="773" y="811" type="curve"/>
      <point x="804" y="859"/>
      <point x="888" y="1021"/>
    </contour>
  </outline>
</glyph>
<glyph name="fraction" format="2">
  <advance width="923"/>
  <unicode hex="2044"/>
  <outline>
    <contour>
      <point x="151" y="-111" type="curve"/>
      <point x="924" y="1253" type="line"/>
      <point x="886" y="1288" type="line"/>
      <point x="852" y="1278"/>
      <point x="811" y="1257"/>
      <point x="776" y="1237" type="curve"/>
      <point x="0" y="-124" type="line"/>
      <point x="37" y="-162" type="line"/>
      <point x="81" y="-147"/>
      <point x="112" y="-133"/>
    </contour>
  </outline>
</glyph>
<glyph name="infinity" format="2">
  <advance width="1214"/>
  <unicode hex="221E"/>
  <outline>
    <contour>
      <point x="269" y="238" type="curve" smooth="yes"/>
      <point x="371" y="238"/>
      <point x="432" y="278"/>
      <point x="614" y="446" type="curve" smooth="yes"/>
      <point x="757" y="578"/>
      <point x="825" y="625"/>
      <point x="887" y="625" type="curve" smooth="yes"/>
      <point x="959" y="625"/>
      <point x="1003" y="555"/>
      <point x="1003" y="500" type="curve" smooth="yes"/>
      <point x="1003" y="455"/>
      <point x="975" y="398"/>
      <point x="909" y="398" type="curve" smooth="yes"/>
      <point x="837" y="398"/>
      <point x="731" y="516"/>
      <point x="680" y="583" type="curve" smooth="yes"/>
      <point x="619" y="665"/>
      <point x="512" y="779"/>
      <point x="375" y="779" type="curve" smooth="yes"/>
      <point x="205" y="779"/>
      <point x="52" y="623"/>
      <point x="52" y="472" type="curve" smooth="yes"/>
      <point x="52" y="324"/>
      <point x="144" y="238"/>
    </contour>
    <contour>
      <point x="838" y="238" type="curve" smooth="yes"/>
      <point x="1007" y="238"/>
      <point x="1161" y="395"/>
      <point x="1161" y="545" type="curve" smooth="yes"/>
      <point x="1162" y="693"/>
      <point x="1068" y="779"/>
      <point x="944" y="779" type="curve" smooth="yes"/>
      <point x="841" y="779"/>
      <point x="753" y="721"/>
      <point x="587" y="563" type="curve" smooth="yes"/>
      <point x="437" y="420"/>
      <point x="388" y="392"/>
      <point x="325" y="392" type="curve" smooth="yes"/>
      <point x="254" y="392"/>
      <point x="210" y="461"/>
      <point x="210" y="517" type="curve" smooth="yes"/>
      <point x="210" y="561"/>
      <point x="238" y="619"/>
      <point x="304" y="619" type="curve" smooth="yes"/>
      <point x="376" y="619"/>
      <point x="477" y="502"/>
      <point x="527" y="435" type="curve" smooth="yes"/>
      <point x="589" y="351"/>
      <point x="700" y="238"/>
    </contour>
  </outline>
</glyph>
<glyph name="notequal" format="2">
  <advance width="817"/>
  <unicode hex="2260"/>
  <outline>
    <contour>
      <point x="774" y="665" type="curve"/>
      <point x="744" y="695" type="line"/>
      <point x="88" y="695" type="line"/>
      <point x="77" y="672"/>
      <point x="50" y="614"/>
      <point x="44" y="589" type="curve"/>
      <point x="74" y="559" type="line"/>
      <point x="730" y="559" type="line"/>
      <point x="739" y="578"/>
      <point x="767" y="640"/>
    </contour>
    <contour>
      <point x="725" y="861" type="line"/>
      <point x="691" y="898" type="line"/>
      <point x="655" y="890"/>
      <point x="581" y="875"/>
      <point x="549" y="855" type="curve"/>
      <point x="92" y="127" type="line"/>
      <point x="122" y="87" type="line"/>
      <point x="151" y="96"/>
      <point x="244" y="116"/>
      <point x="265" y="132" type="curve"/>
    </contour>
    <contour>
      <point x="774" y="401" type="curve"/>
      <point x="744" y="431" type="line"/>
      <point x="88" y="431" type="line"/>
      <point x="77" y="408"/>
      <point x="50" y="350"/>
      <point x="44" y="325" type="curve"/>
      <point x="74" y="295" type="line"/>
      <point x="730" y="295" type="line"/>
      <point x="739" y="314"/>
      <point x="767" y="376"/>
    </contour>
  </outline>
</glyph>
<glyph name="lozenge" format="2">
  <advance width="712"/>
  <unicode hex="25CA"/>
  <outline>
    <contour>
      <point x="711" y="624" type="curve"/>
      <point x="420" y="1232" type="line"/>
      <point x="394" y="1219"/>
      <point x="279" y="1162"/>
      <point x="255" y="1139" type="curve"/>
      <point x="1" y="593" type="line"/>
      <point x="18" y="574" type="line"/>
      <point x="37" y="582"/>
      <point x="165" y="663"/>
      <point x="185" y="681" type="curve"/>
      <point x="309" y="963" type="line"/>
      <point x="526" y="536" type="line"/>
      <point x="553" y="517" type="line"/>
      <point x="586" y="530"/>
      <point x="689" y="607"/>
    </contour>
    <contour>
      <point x="1" y="593" type="curve"/>
      <point x="291" y="-13" type="line"/>
      <point x="319" y="-1"/>
      <point x="432" y="57"/>
      <point x="457" y="79" type="curve"/>
      <point x="711" y="624" type="line"/>
      <point x="693" y="644" type="line"/>
      <point x="675" y="637"/>
      <point x="547" y="555"/>
      <point x="528" y="536" type="curve"/>
      <point x="403" y="254" type="line"/>
      <point x="186" y="681" type="line"/>
      <point x="159" y="701" type="line"/>
      <point x="126" y="689"/>
      <point x="23" y="611"/>
    </contour>
  </outline>
</glyph>
<glyph name="fi" format="2">
  <advance width="1264"/>
  <unicode hex="FB01"/>
  <anchor x="864" y="-95" name="L"/>
  <anchor x="1106" y="851" name="R"/>
  <anchor x="864" y="1533" name="U"/>
  <outline>
    <contour>
      <point x="857" y="1375" type="curve" smooth="yes"/>
      <point x="857" y="1397"/>
      <point x="739" y="1466"/>
      <point x="616" y="1466" type="curve" smooth="yes"/>
      <point x="530" y="1466"/>
      <point x="418" y="1424"/>
      <point x="318" y="1323" type="curve" smooth="yes"/>
      <point x="217" y="1221"/>
      <point x="169" y="1087"/>
      <point x="169" y="909" type="curve" smooth="yes"/>
      <point x="169" y="880" type="line"/>
      <point x="106" y="880" type="line"/>
      <point x="33" y="788" type="line"/>
      <point x="62" y="752" type="line"/>
      <point x="169" y="752" type="line"/>
      <point x="169" y="134" type="line" smooth="yes"/>
      <point x="169" y="119"/>
      <point x="132" y="94"/>
      <point x="47" y="79" type="curve"/>
      <point x="47" y="0" type="line"/>
      <point x="608" y="0" type="line"/>
      <point x="608" y="79" type="line"/>
      <point x="462" y="106"/>
      <point x="422" y="119"/>
      <point x="422" y="134" type="curve" smooth="yes"/>
      <point x="422" y="752" type="line"/>
      <point x="522" y="752"/>
      <point x="568" y="734"/>
      <point x="597" y="719" type="curve"/>
      <point x="619" y="740"/>
      <point x="665" y="798"/>
      <point x="689" y="843" type="curve"/>
      <point x="652" y="880" type="line"/>
      <point x="422" y="880" type="line"/>
      <point x="422" y="961" type="line" smooth="yes"/>
      <point x="422" y="1245"/>
      <point x="468" y="1310"/>
      <point x="532" y="1310" type="curve" smooth="yes"/>
      <point x="574" y="1310"/>
      <point x="632" y="1276"/>
      <point x="692" y="1195" type="curve"/>
      <point x="728" y="1213"/>
      <point x="857" y="1326"/>
    </contour>
    <contour>
      <point x="1138" y="1193" type="curve" smooth="yes"/>
      <point x="1138" y="1270"/>
      <point x="1065" y="1302"/>
      <point x="993" y="1302" type="curve" smooth="yes"/>
      <point x="897" y="1302"/>
      <point x="820" y="1245"/>
      <point x="820" y="1154" type="curve" smooth="yes"/>
      <point x="820" y="1077"/>
      <point x="891" y="1044"/>
      <point x="965" y="1044" type="curve" smooth="yes"/>
      <point x="1064" y="1044"/>
      <point x="1138" y="1103"/>
    </contour>
    <contour>
      <point x="726" y="0" type="line"/>
      <point x="1223" y="0" type="line"/>
      <point x="1223" y="79" type="line"/>
      <point x="1132" y="96"/>
      <point x="1101" y="121"/>
      <point x="1101" y="136" type="curve" smooth="yes"/>
      <point x="1101" y="908" type="line"/>
      <point x="1032" y="908" type="line"/>
      <point x="940" y="877"/>
      <point x="842" y="857"/>
      <point x="726" y="842" type="curve"/>
      <point x="726" y="766" type="line"/>
      <point x="847" y="755"/>
      <point x="848" y="735"/>
      <point x="848" y="605" type="curve" smooth="yes"/>
      <point x="848" y="136" type="line" smooth="yes"/>
      <point x="848" y="119"/>
      <point x="811" y="96"/>
      <point x="726" y="79" type="curve"/>
    </contour>
  </outline>
</glyph>
<glyph name="fl" format="2">
  <advance width="1264"/>
  <unicode hex="FB02"/>
  <anchor x="864" y="-95" name="L"/>
  <anchor x="1117" y="851" name="R"/>
  <anchor x="864" y="1533" name="U"/>
  <outline>
    <contour>
      <point x="857" y="1375" type="curve" smooth="yes"/>
      <point x="857" y="1397"/>
      <point x="739" y="1466"/>
      <point x="616" y="1466" type="curve" smooth="yes"/>
      <point x="530" y="1466"/>
      <point x="418" y="1424"/>
      <point x="318" y="1323" type="curve" smooth="yes"/>
      <point x="217" y="1221"/>
      <point x="169" y="1087"/>
      <point x="169" y="909" type="curve" smooth="yes"/>
      <point x="169" y="880" type="line"/>
      <point x="106" y="880" type="line"/>
      <point x="33" y="788" type="line"/>
      <point x="62" y="752" type="line"/>
      <point x="169" y="752" type="line"/>
      <point x="169" y="134" type="line" smooth="yes"/>
      <point x="169" y="119"/>
      <point x="132" y="94"/>
      <point x="47" y="79" type="curve"/>
      <point x="47" y="0" type="line"/>
      <point x="608" y="0" type="line"/>
      <point x="608" y="79" type="line"/>
      <point x="462" y="106"/>
      <point x="422" y="119"/>
      <point x="422" y="134" type="curve" smooth="yes"/>
      <point x="422" y="752" type="line"/>
      <point x="522" y="752"/>
      <point x="568" y="734"/>
      <point x="597" y="719" type="curve"/>
      <point x="619" y="740"/>
      <point x="665" y="798"/>
      <point x="689" y="843" type="curve"/>
      <point x="652" y="880" type="line"/>
      <point x="422" y="880" type="line"/>
      <point x="422" y="961" type="line" smooth="yes"/>
      <point x="422" y="1245"/>
      <point x="468" y="1310"/>
      <point x="532" y="1310" type="curve" smooth="yes"/>
      <point x="574" y="1310"/>
      <point x="632" y="1276"/>
      <point x="692" y="1195" type="curve"/>
      <point x="728" y="1213"/>
      <point x="857" y="1326"/>
    </contour>
    <contour>
      <point x="717" y="0" type="line"/>
      <point x="1232" y="0" type="line"/>
      <point x="1232" y="79" type="line"/>
      <point x="1130" y="96"/>
      <point x="1101" y="117"/>
      <point x="1101" y="136" type="curve" smooth="yes"/>
      <point x="1101" y="1425" type="line"/>
      <point x="1058" y="1466" type="line"/>
      <point x="953" y="1426"/>
      <point x="863" y="1409"/>
      <point x="726" y="1391" type="curve"/>
      <point x="726" y="1315" type="line"/>
      <point x="831" y="1303"/>
      <point x="848" y="1300"/>
      <point x="848" y="1188" type="curve" smooth="yes"/>
      <point x="848" y="136" type="line" smooth="yes"/>
      <point x="848" y="115"/>
      <point x="825" y="97"/>
      <point x="717" y="79" type="curve"/>
    </contour>
  </outline>
</glyph>
